<?xml version="1.0" standalone="no"?>
<!DOCTYPE svg PUBLIC "-//W3C//DTD SVG 1.1//EN" "http://www.w3.org/Graphics/SVG/1.1/DTD/svg11.dtd">
<svg xmlns="http://www.w3.org/2000/svg"><metadata>This SVG WebFont was generated by YouWorkForThem.
Â©2020 Typekiln.</metadata><defs><font horiz-adv-x="1294" id="ywftsvg"><font-face ascent="1638" bbox="-487 -471 2337 1929" cap-height="1434" descent="-410" font-family="" font-stretch="normal" font-weight="600" panose-1="0 0 0 0 0 0 0 0 0 0" underline-position="0" underline-thickness="0" unicode-range="U+000D-FB04" units-per-em="2048" x-height="1053"/><missing-glyph d="M61 -147v1728h828v-1728h-828zM209 1434v-76h381v-39h-90v-76h241v76h-75v39h75v76h-532zM209 1319v-191h532v78h-276v113h-256zM285 1243h104v-37h-104v37zM666 1094v-228h-457v-75h532v303h-75zM209 1094v-78h229v-37h-229v-78h307v115h35v-115h78v193h-420zM494 756 v-78h172v-37h-381v37h172v78h-248v-193h532v78l-26 37l26 39v39h-247zM209 416v-191h532v191h-532zM285 340h381v-39h-381v39zM209 190v-190h532v76h-456v39h456v75h-532z" horiz-adv-x="950"/><glyph d="M1241 1053v-201h-194v-852h-265v852h-344v-852h-264v852h-147v201h147v77q0 176 79 256t255 80q90 0 135 -12v-205q-57 8 -78 8q-133 0 -133 -129v-75h350v77q0 176 79 256t255 80q92 0 133 -12v-205q-49 8 -75 8q-133 0 -134 -129v-75h201z" glyph-name="uniFB00" horiz-adv-x="1306" unicode="ff"/><glyph d="M918 1198q-68 0 -113 44t-45 109.5t45 108.5t113 43q66 0 111.5 -44t45.5 -107q0 -66 -45.5 -110t-111.5 -44zM1047 0h-265v852h-344v-852h-264v852h-147v201h147v77q0 176 79 256t255 80q90 0 135 -12v-205q-57 8 -78 8q-133 0 -133 -129v-75h615v-1053z" glyph-name="uniFB01" horiz-adv-x="1161" unicode="fi"/><glyph d="M635 1053v-201h-197v-852h-264v852h-147v201h147v77q0 176 79 256t255 80q90 0 135 -12v-205q-57 8 -78 8q-133 0 -133 -129v-75h203zM1049 0h-267v1454h267v-1454z" glyph-name="uniFB02" horiz-adv-x="1153" unicode="fl"/><glyph d="M1524 1198q-66 0 -112 44t-46 110q0 63 46 107t112 44q68 0 112.5 -43t44.5 -108.5t-44.5 -109.5t-112.5 -44zM1655 0h-266v852h-342v-852h-265v852h-344v-852h-264v852h-147v201h147v77q0 176 79 256t255 80q90 0 135 -12v-205q-57 8 -78 8q-133 0 -133 -129v-75h350v77 q0 176 79 256t255 80q92 0 133 -12v-205q-49 8 -75 8q-133 0 -134 -129v-75h615v-1053z" glyph-name="uniFB03" horiz-adv-x="1767" unicode="ffi"/><glyph d="M1241 1053v-201h-194v-852h-265v852h-344v-852h-264v852h-147v201h147v77q0 176 79 256t255 80q90 0 135 -12v-205q-57 8 -78 8q-133 0 -133 -129v-75h350v77q0 176 79 256t255 80q92 0 133 -12v-205q-49 8 -75 8q-133 0 -134 -129v-75h201zM1655 0h-266v1454h266v-1454z " glyph-name="uniFB04" horiz-adv-x="1763" unicode="ffl"/><glyph d="M61 -147v1728h828v-1728h-828zM209 1434v-76h381v-39h-90v-76h241v76h-75v39h75v76h-532zM209 1319v-191h532v78h-276v113h-256zM285 1243h104v-37h-104v37zM666 1094v-228h-457v-75h532v303h-75zM209 1094v-78h229v-37h-229v-78h307v115h35v-115h78v193h-420zM494 756 v-78h172v-37h-381v37h172v78h-248v-193h532v78l-26 37l26 39v39h-247zM209 416v-191h532v191h-532zM285 340h381v-39h-381v39zM209 190v-190h532v76h-456v39h456v75h-532z" glyph-name=".notdef" horiz-adv-x="950"/><glyph glyph-name="glyph1" horiz-adv-x="0"/><glyph glyph-name="glyph1" horiz-adv-x="0"/><glyph glyph-name="space" horiz-adv-x="411" unicode=" "/><glyph d="M205 467l-27 967h283l-29 -967h-227zM176 127q0 63 43 105t108.5 42t108.5 -42t43 -105q0 -61 -44 -103t-107.5 -42t-107.5 42t-44 103z" glyph-name="exclam" horiz-adv-x="643" unicode="!"/><glyph d="M111 1434h245l-28 -516h-189zM520 1434h246l-29 -516h-188z" glyph-name="quotedbl" horiz-adv-x="878" unicode="&quot;"/><glyph d="M16 317l17 193h286l29 332h-285l17 192h285l30 318h209l-31 -318h338l31 318h209l-29 -318h291l-16 -192h-293l-29 -332h291l-16 -193h-291l-31 -317h-209l31 317h-338l-31 -317h-209l29 317h-285zM557 850l-31 -348h340l31 348h-340z" glyph-name="numbersign" horiz-adv-x="1429" unicode="#"/><glyph d="M408 1049q0 -72 64.5 -116t217.5 -79l92 -20q246 -55 349.5 -149.5t103.5 -264.5q0 -178 -125 -297t-340 -141v-166h-197v168q-209 23 -336.5 143.5t-142.5 310.5h281q10 -106 96 -171.5t213 -65.5q119 0 194.5 56t75.5 142q0 76 -62.5 121t-209.5 78l-86 18 q-240 51 -351.5 149.5t-111.5 256.5q0 174 121 291t319 139v166h197v-170q184 -29 300 -139.5t128 -276.5h-268q-12 92 -87 148.5t-188 56.5q-109 0 -178 -53t-69 -135z" glyph-name="dollar" horiz-adv-x="1329" unicode="$"/><glyph d="M381 745q-154 0 -245 97.5t-91 261.5q0 162 91 257t245 95q152 0 242 -95t90 -257q0 -164 -90 -261.5t-242 -97.5zM176 0l1045 1434h245l-1044 -1434h-246zM250 1102q0 -84 36 -136.5t95 -52.5q57 0 92 51.5t35 137.5t-34 136t-93 50t-95 -50t-36 -136zM1264 -23 q-154 0 -245 97.5t-91 259.5t91 258t245 96q152 0 241.5 -96t89.5 -258t-89.5 -259.5t-241.5 -97.5zM1133 334q0 -84 35.5 -136.5t95 -52.5t93.5 50.5t34 138.5q0 86 -34 136t-93.5 50t-95 -50t-35.5 -136z" glyph-name="percent" horiz-adv-x="1642" unicode="%"/><glyph d="M70 385q0 266 329 416q-174 164 -174 323q0 145 113 237.5t278.5 92.5t276.5 -92t111 -242q0 -207 -273 -372l275 -295q53 84 53 333v25h241v-66q0 -299 -124 -469l254 -276h-302l-112 127q-176 -150 -436 -150q-217 0 -363.5 110t-146.5 298zM616 1253q-61 0 -105 -38.5 t-44 -100.5q0 -39 24.5 -85t41 -65.5t61.5 -68.5q168 98 168 219q0 66 -43.5 102.5t-102.5 36.5zM330 389q0 -98 76.5 -151.5t185.5 -53.5q166 0 262 105l-315 348q-90 -39 -149.5 -103.5t-59.5 -144.5z" glyph-name="ampersand" horiz-adv-x="1447" unicode="&amp;"/><glyph d="M111 1434h245l-28 -516h-189z" glyph-name="quotesingle" horiz-adv-x="468" unicode="'"/><glyph d="M182 596q0 256 78 490.5t221 408.5h230q-262 -385 -262 -899q0 -510 262 -903h-230q-143 174 -221 410.5t-78 492.5z" glyph-name="parenleft" horiz-adv-x="745" unicode="("/><glyph d="M563 596q0 -256 -77.5 -492.5t-221.5 -410.5h-229q262 393 262 903q0 514 -262 899h229q143 -174 221 -408.5t78 -490.5z" glyph-name="parenright" horiz-adv-x="745" unicode=")"/><glyph d="M881 1212l-269 -100l269 -104l-103 -181l-223 181l47 -281h-211l47 281l-223 -181l-104 181l268 104l-268 100l104 181l223 -181l-47 283h211l-47 -283l223 181z" glyph-name="asterisk" horiz-adv-x="993" unicode="*"/><glyph d="M119 707h397v423h246v-423h397v-232h-397v-424h-246v424h-397v232z" glyph-name="plus" horiz-adv-x="1277" unicode="+"/><glyph d="M174 229h258l-156 -532h-188z" glyph-name="comma" horiz-adv-x="559" unicode=","/><glyph d="M770 475h-651v230h651v-230z" glyph-name="hyphen" horiz-adv-x="888" unicode="-"/><glyph d="M139 131q0 63 43 105.5t108.5 42.5t108.5 -42t43 -106q0 -61 -44 -103t-107.5 -42t-107.5 42t-44 103z" glyph-name="period" horiz-adv-x="569" unicode="."/><glyph d="M264 -307h-256l539 1802h256z" glyph-name="slash" horiz-adv-x="811" unicode="/"/><glyph d="M84 717q0 346 153.5 542.5t422 196.5t421 -196.5t152.5 -542.5t-152.5 -543t-421 -197t-422 197t-153.5 543zM659.5 1227q-147.5 0 -224.5 -130t-77 -380t77 -380t224.5 -130t224.5 130t77 380t-77 380t-224.5 130z" glyph-name="zero" horiz-adv-x="1316" unicode="0"/><glyph d="M88 909v265l344 260h221v-1434h-270v1133z" glyph-name="one" horiz-adv-x="866" unicode="1"/><glyph d="M90 0v172l576 541q96 90 139 157.5t43 139.5q0 106 -65.5 169.5t-176.5 63.5q-109 0 -175 -61.5t-75 -169.5h-262q6 199 151.5 320.5t370.5 121.5q223 0 363.5 -118.5t140.5 -307.5q0 -207 -225 -420l-403 -383h632v-225h-1034z" glyph-name="two" horiz-adv-x="1210" unicode="2"/><glyph d="M80 422h264q2 -100 78 -163.5t190 -63.5q117 0 192 64.5t75 162.5q0 100 -71 156.5t-196 56.5h-172v199h172q98 0 162 60t64 153q0 86 -63.5 142t-164.5 56q-98 0 -163.5 -62.5t-67.5 -156.5h-256q2 186 142.5 308t352.5 122q205 0 342.5 -105.5t137.5 -263.5 q0 -125 -73 -218t-194 -121q147 -25 234.5 -120.5t87.5 -232.5q0 -182 -151.5 -300t-389.5 -118q-231 0 -379.5 123t-152.5 322z" glyph-name="three" horiz-adv-x="1245" unicode="3"/><glyph d="M766 283h-696v170l690 981h274v-932h195v-219h-195v-283h-268v283zM373 502h393v585z" glyph-name="four" horiz-adv-x="1292" unicode="4"/><glyph d="M113 406h262q16 -96 89 -153.5t175 -57.5q121 0 198.5 78.5t77.5 199.5q0 119 -77.5 199t-194.5 80q-78 0 -148.5 -36t-105.5 -102h-258l82 820h864v-217h-653l-37 -396q111 133 315 133q209 0 343.5 -133t134.5 -342q0 -223 -151.5 -362.5t-389.5 -139.5 q-217 0 -364.5 116t-161.5 313z" glyph-name="five" horiz-adv-x="1247" unicode="5"/><glyph d="M662 -23q-274 0 -426 187.5t-152 531.5q0 352 155.5 556t424.5 204q203 0 342 -105.5t168 -277.5h-267q-20 82 -83.5 127t-155.5 45q-150 0 -238 -136t-88 -370q49 98 149.5 156.5t233.5 58.5q205 0 337 -131t132 -342q0 -229 -145 -366.5t-387 -137.5zM391 475 q0 -123 76 -200.5t194.5 -77.5t193.5 76.5t75 199.5q0 117 -77 197t-191 80q-119 0 -195 -77t-76 -198z" glyph-name="six" horiz-adv-x="1269" unicode="6"/><glyph d="M63 1434h973v-152l-575 -1282h-287l569 1208h-680v226z" glyph-name="seven" horiz-adv-x="1116" unicode="7"/><glyph d="M135 1083q0 162 141.5 267.5t356.5 105.5q217 0 357 -105.5t140 -269.5q0 -111 -68.5 -197.5t-184.5 -123.5q141 -37 224 -135.5t83 -229.5q0 -184 -153.5 -301t-397.5 -117t-396.5 116t-152.5 300q0 131 83 230.5t224 136.5q-117 37 -186.5 124.5t-69.5 198.5zM868 1044 q0 92 -66.5 150.5t-169 58.5t-168 -58t-65.5 -151q0 -90 64.5 -145t169 -55t170 56t65.5 144zM909 418q0 100 -77.5 164.5t-198.5 64.5t-198 -64.5t-77 -164.5q0 -102 77 -167t198 -65t198.5 65t77.5 167z" glyph-name="eight" horiz-adv-x="1265" unicode="8"/><glyph d="M608 1456q279 0 427.5 -185.5t148.5 -533.5q0 -352 -153.5 -556t-424.5 -204q-201 0 -341 106.5t-167 276.5h264q23 -82 85.5 -127t152.5 -45q154 0 240 135.5t86 370.5q-49 -98 -148.5 -156.5t-232.5 -58.5q-203 0 -335 131t-132 342q0 229 144 366.5t386 137.5z M879 958q0 123 -76 201t-195 78t-192.5 -78t-73.5 -198q0 -117 77 -197t191 -80q117 0 193 77.5t76 196.5z" glyph-name="nine" horiz-adv-x="1267" unicode="9"/><glyph d="M139 803q0 63 43 105t108.5 42t108.5 -42t43 -105q0 -61 -44 -103.5t-107.5 -42.5t-107.5 42.5t-44 103.5zM139 131q0 63 43 105.5t108.5 42.5t108.5 -42t43 -106q0 -61 -44 -103t-107.5 -42t-107.5 42t-44 103z" glyph-name="colon" horiz-adv-x="569" unicode=":"/><glyph d="M135 811q0 66 45 110t112.5 44t113 -44t45.5 -110t-45.5 -110t-113 -44t-112.5 44t-45 110zM170 229h258l-156 -532h-188z" glyph-name="semicolon" horiz-adv-x="540" unicode=";"/><glyph d="M1110 266v-266l-936 477v213l936 477v-266l-690 -317z" glyph-name="less" horiz-adv-x="1282" unicode="&lt;"/><glyph d="M1128 717h-991v221h991v-221zM137 246v221h991v-221h-991z" glyph-name="equal" horiz-adv-x="1265" unicode="="/><glyph d="M172 0v266l690 318l-690 317v266l936 -477v-213z" glyph-name="greater" horiz-adv-x="1282" unicode=">"/><glyph d="M307 1040h-258q4 190 136 303t339 113q199 0 328 -102.5t129 -284.5q0 -94 -39 -162.5t-95 -107.5t-111.5 -73t-95.5 -81t-42 -110l-2 -101h-248l-2 117q0 74 25.5 131t66.5 90t88 65.5t88 59.5t69 69t28 95q0 84 -56.5 133t-138.5 49q-90 0 -148.5 -54.5t-60.5 -148.5z M475.5 -16q-63.5 0 -110 46t-46.5 105.5t46.5 103.5t108 44t107.5 -44t46 -103.5t-44 -105.5t-107.5 -46z" glyph-name="question" horiz-adv-x="1052" unicode="?"/><glyph d="M88 540.5q0 403.5 256 658.5t660 255q395 0 658 -237.5t263 -593.5q0 -225 -110.5 -358.5t-296.5 -133.5q-109 0 -181.5 46t-97.5 128q-35 -90 -110.5 -140t-176.5 -50q-164 0 -267 120.5t-103 309t101 307.5t261 119q172 0 252 -137l16 108h209v-477q0 -68 35 -111 t88 -43q76 0 122 81t46 214q0 283 -202.5 471.5t-505.5 188.5q-311 0 -507 -204t-196 -525.5t199.5 -518t529.5 -196.5q291 0 449 153h276q-109 -162 -305.5 -253t-437.5 -91q-410 0 -667 253t-257 656.5zM817 547q0 -111 54.5 -182.5t138.5 -71.5q82 0 133 68.5t51 179.5 q0 113 -52 183.5t-136 70.5q-82 0 -135.5 -69.5t-53.5 -178.5z" glyph-name="at" horiz-adv-x="2013" unicode="@"/><glyph d="M846 1434l518 -1434h-285l-100 297h-569l-101 -297h-284l518 1434h303zM471 508h447l-224 661z" glyph-name="A" horiz-adv-x="1388" unicode="A"/><glyph d="M940 766q129 -29 211 -128t82 -230q0 -178 -125 -293t-317 -115h-668v1434h639q176 0 288.5 -101.5t112.5 -261.5q0 -111 -59.5 -190.5t-163.5 -114.5zM406 1225v-383h272q84 0 140 55t56 139q0 82 -55 135.5t-141 53.5h-272zM698 209q106 0 176 60.5t70 154.5 q0 111 -69.5 172t-192.5 61h-276v-448h292z" glyph-name="B" horiz-adv-x="1286" unicode="B"/><glyph d="M764 211q143 0 240.5 74.5t121.5 206.5h293q-41 -238 -217 -376.5t-440 -138.5q-307 0 -496.5 204t-189.5 536t189.5 535.5t496.5 203.5q262 0 443 -143.5t206 -370.5h-289q-25 125 -124 203t-236 78q-178 0 -287.5 -138.5t-109.5 -365.5q0 -229 109.5 -368.5 t289.5 -139.5z" glyph-name="C" horiz-adv-x="1488" unicode="C"/><glyph d="M633 1434q356 0 541.5 -183.5t185.5 -533.5q0 -338 -191.5 -527.5t-535.5 -189.5h-510v1434h510zM610 227q219 0 338 126t119 366q0 248 -112.5 367.5t-344.5 119.5h-204v-979h204z" glyph-name="D" horiz-adv-x="1433" unicode="D"/><glyph d="M1081 1206h-675v-370h593v-222h-593v-387h675v-227h-958v1434h958v-228z" glyph-name="E" horiz-adv-x="1177" unicode="E"/><glyph d="M1057 1206h-651v-411h569v-222h-569v-573h-283v1434h934v-228z" glyph-name="F" horiz-adv-x="1114" unicode="F"/><glyph d="M1470 776q4 -90 5 -143q0 -309 -174.5 -482.5t-483.5 -173.5q-330 0 -522.5 199t-192.5 541q0 338 189.5 538.5t507.5 200.5q256 0 437 -130t220 -345h-287q-35 115 -132 182.5t-230 67.5q-195 0 -306.5 -135t-111.5 -371q0 -240 117 -381t315 -141q168 0 271.5 94 t107.5 248v28h-360v203h630z" glyph-name="G" horiz-adv-x="1554" unicode="G"/><glyph d="M1075 1434h283v-1434h-283v610h-669v-610h-283v1434h283v-594h669v594z" glyph-name="H" horiz-adv-x="1480" unicode="H"/><glyph d="M406 0h-283v1434h283v-1434z" glyph-name="I" horiz-adv-x="528" unicode="I"/><glyph d="M694 1434h283v-1004q0 -211 -124 -332t-341 -121q-213 0 -342 115t-137 314h278q2 -94 53.5 -146.5t141.5 -52.5q188 0 188 221v1006z" glyph-name="J" horiz-adv-x="1099" unicode="J"/><glyph d="M745 788l580 -788h-344l-432 586l-143 -170v-416h-283v1434h283v-652l534 652h336z" glyph-name="K" horiz-adv-x="1339" unicode="K"/><glyph d="M406 227h641v-227h-924v1434h283v-1207z" glyph-name="L" horiz-adv-x="1105" unicode="L"/><glyph d="M1253 1434h357v-1434h-277v1014l-395 -994h-143l-398 994v-1014h-274v1434h356l387 -971z" glyph-name="M" horiz-adv-x="1732" unicode="M"/><glyph d="M1055 1434h276v-1434h-301l-633 987v-987h-274v1434h299l633 -990v990z" glyph-name="N" horiz-adv-x="1454" unicode="N"/><glyph d="M792.5 1456q319.5 0 517 -204.5t197.5 -534.5t-197.5 -535t-517 -205t-518 205t-198.5 535t198.5 534.5t518 204.5zM792.5 211q194.5 0 310.5 137t116 368.5t-116 369t-310.5 137.5t-311 -137.5t-116.5 -369t116.5 -368.5t311 -137z" glyph-name="O" horiz-adv-x="1585" unicode="O"/><glyph d="M684 1434q217 0 352 -135.5t135 -350.5t-135 -350t-352 -135h-278v-463h-283v1434h561zM633 690q113 0 180.5 72t67.5 186.5t-68 186t-180 71.5h-227v-516h227z" glyph-name="P" horiz-adv-x="1228" unicode="P"/><glyph d="M1196 -160l-143 185q-123 -47 -260 -48q-322 0 -519.5 205t-197.5 535t198.5 534.5t518 204.5t517 -204.5t197.5 -534.5q0 -377 -245 -580l124 -162zM760 416l190 135l150 -193q119 129 119 359q0 231 -116 368.5t-310.5 137.5t-311 -137.5t-116.5 -368.5 q0 -223 106.5 -357.5t288.5 -144.5q76 -2 141 18z" glyph-name="Q" horiz-adv-x="1585" unicode="Q"/><glyph d="M123 0v1434h582q217 0 352 -131.5t135 -339.5q0 -145 -69.5 -255t-194.5 -163l305 -545h-313l-254 496h-260v-496h-283zM653 723q113 0 180.5 66.5t67.5 175t-67.5 175t-180.5 66.5h-247v-483h247z" glyph-name="R" horiz-adv-x="1267" unicode="R"/><glyph d="M379 1049q0 -72 64.5 -118t215.5 -79l93 -21q246 -55 349 -148t103 -263q0 -199 -151.5 -321t-405.5 -122q-252 0 -409.5 124t-171.5 337h278q10 -106 96 -171.5t213 -65.5q119 0 195 56t76 142q0 76 -62.5 121t-212.5 80l-84 18q-240 51 -351.5 148.5t-111.5 255.5 q0 193 146.5 313.5t380.5 120.5q225 0 372.5 -116.5t163.5 -307.5h-270q-10 92 -85 148.5t-187 56.5q-106 0 -175 -52t-69 -136z" glyph-name="S" horiz-adv-x="1269" unicode="S"/><glyph d="M45 1434h1151v-228h-434v-1206h-283v1206h-434v228z" glyph-name="T" horiz-adv-x="1241" unicode="T"/><glyph d="M1020 1434h283v-902q0 -252 -161 -403.5t-429.5 -151.5t-429 152t-160.5 403v902h283v-893q0 -156 81.5 -245t225 -89t225.5 89t82 245v893z" glyph-name="U" horiz-adv-x="1425" unicode="U"/><glyph d="M1053 1434h282l-504 -1434h-303l-503 1434h282l373 -1133z" glyph-name="V" horiz-adv-x="1359" unicode="V"/><glyph d="M1632 1434h277l-363 -1434h-289l-282 1008l-281 -1008h-288l-365 1434h278l254 -1076l285 1055h236l284 -1055z" glyph-name="W" horiz-adv-x="1951" unicode="W"/><glyph d="M836 750l505 -750h-313l-336 543l-336 -543h-315l506 750l-465 684h315l295 -480l295 480h313z" glyph-name="X" horiz-adv-x="1384" unicode="X"/><glyph d="M1001 1434h304l-498 -820v-614h-283v614l-497 820h303l336 -600z" glyph-name="Y" horiz-adv-x="1331" unicode="Y"/><glyph d="M457 227h747v-227h-1114v135l727 1071h-706v228h1073v-136z" glyph-name="Z" unicode="Z"/><glyph d="M729 -104v-203h-541v1802h541v-203h-274v-1396h274z" glyph-name="bracketleft" horiz-adv-x="755" unicode="["/><glyph d="M803 -307h-256l-539 1802h256z" glyph-name="backslash" horiz-adv-x="811" unicode="\"/><glyph d="M27 -307v203h274v1396h-274v203h540v-1802h-540z" glyph-name="bracketright" horiz-adv-x="755" unicode="]"/><glyph d="M51 803l322 631h241l322 -631h-248l-194 422l-197 -422h-246z" glyph-name="asciicircum" horiz-adv-x="987" unicode="^"/><glyph d="M893 -328h-934v217h934v-217z" glyph-name="underscore" horiz-adv-x="851" unicode="_"/><glyph d="M188 1749h242l135 -315h-178z" glyph-name="grave" horiz-adv-x="753" unicode="`"/><glyph d="M571 1075q213 0 325 -103.5t112 -301.5v-670h-236l-20 143q-94 -164 -326 -163q-170 0 -269.5 83.5t-99.5 227.5q0 346 684 346v27q0 111 -45 160.5t-143 49.5q-86 0 -141.5 -38.5t-61.5 -106.5h-252q10 156 139 251t334 95zM743 395v76q-422 0 -421 -172q0 -59 47 -94 t127 -35q115 0 181 61.5t66 163.5z" glyph-name="a" horiz-adv-x="1105" unicode="a"/><glyph d="M346 0h-240v1454h265v-561q53 86 144 134t200 48q199 0 325.5 -152.5t126.5 -396.5q0 -246 -126 -397.5t-326 -151.5q-233 0 -348 189zM362 526.5q0 -153.5 74 -246t195 -92.5t193.5 92.5t72.5 246t-72.5 245.5t-193.5 92t-195 -92t-74 -245.5z" glyph-name="b" horiz-adv-x="1224" unicode="b"/><glyph d="M600 188q88 0 146.5 50.5t74.5 138.5h262q-20 -182 -153 -291t-340 -109q-238 0 -385.5 152t-147.5 397q0 244 147.5 396.5t385.5 152.5q207 0 340 -108.5t153 -290.5h-262q-16 88 -74.5 138t-146.5 50q-127 0 -201.5 -91t-74.5 -246.5t74.5 -247t201.5 -91.5z" glyph-name="c" horiz-adv-x="1138" unicode="c"/><glyph d="M1118 0h-239l-21 166q-115 -188 -348 -189q-201 0 -327 152t-126 397q0 244 127 396.5t326 152.5q109 0 200 -48t144 -134v561h264v-1454zM862 526.5q0 153.5 -73.5 245.5t-194.5 92t-193.5 -92t-72.5 -245.5t72.5 -246t193.5 -92.5t194.5 92.5t73.5 246z" glyph-name="d" horiz-adv-x="1226" unicode="d"/><glyph d="M1100 520v-51h-774q2 -129 73.5 -209t194.5 -80q170 0 227 144h269q-37 -160 -175.5 -253.5t-322.5 -93.5q-244 0 -389.5 153t-145.5 394.5t142.5 396t382.5 154.5q246 0 382 -151.5t136 -403.5zM330 637h504q-12 113 -76 176.5t-172 63.5q-106 0 -175 -65.5t-81 -174.5z " glyph-name="e" horiz-adv-x="1157" unicode="e"/><glyph d="M635 1053v-201h-197v-852h-264v852h-147v201h147v77q0 176 79 256t255 80q90 0 135 -12v-205q-57 8 -78 8q-133 0 -133 -129v-75h203z" glyph-name="f" horiz-adv-x="698" unicode="f"/><glyph d="M582 -188q123 0 190.5 66.5t67.5 199.5v145q-111 -176 -330 -176q-201 0 -327 142.5t-126 372t125 371.5t328 142q104 0 193.5 -47t140.5 -129l18 154h242v-955q0 -240 -142.5 -364.5t-388.5 -124.5q-201 0 -337 100.5t-154 259.5h262q16 -74 79 -115.5t159 -41.5z M850 559q0 139 -72.5 225t-191.5 86t-190.5 -85t-71.5 -226q0 -139 71.5 -225t190.5 -86t191.5 86t72.5 225z" glyph-name="g" horiz-adv-x="1204" unicode="g"/><glyph d="M698 1075q162 0 256.5 -103.5t94.5 -281.5v-690h-265v623q0 231 -196 231q-102 0 -158.5 -71.5t-56.5 -202.5v-580h-267v1454h267v-555q106 176 325 176z" glyph-name="h" horiz-adv-x="1144" unicode="h"/><glyph d="M243.5 1198q-65.5 0 -111.5 44t-46 110q0 63 46 107t111.5 44t111.5 -44t46 -107q0 -66 -46 -110t-111.5 -44zM375 0h-266v1053h266v-1053z" glyph-name="i" horiz-adv-x="487" unicode="i"/><glyph d="M264.5 1198q-67.5 0 -113 44t-45.5 109.5t45.5 108.5t113 43t112.5 -43t45 -108.5t-45 -109.5t-112.5 -44zM129 1053h264v-1063q0 -184 -102.5 -271.5t-317.5 -87.5v205q156 0 156 152v1065z" glyph-name="j" horiz-adv-x="507" unicode="j"/><glyph d="M647 596l440 -596h-313l-317 434l-84 -84v-350h-267v1454h267v-829l391 428h305z" glyph-name="k" horiz-adv-x="1083" unicode="k"/><glyph d="M373 0h-267v1454h267v-1454z" glyph-name="l" horiz-adv-x="479" unicode="l"/><glyph d="M102 1053h238l20 -154q98 176 312 176q209 0 289 -190q109 190 337 190q154 0 246 -104.5t92 -280.5v-690h-262v651q0 98 -45 151.5t-127 53.5q-92 0 -147.5 -66.5t-55.5 -179.5v-610h-262v651q0 98 -44 151.5t-126 53.5q-94 0 -148 -71.5t-54 -192.5v-592h-263v1053z " glyph-name="m" horiz-adv-x="1732" unicode="m"/><glyph d="M690 1075q164 0 259 -102.5t95 -282.5v-690h-266v625q0 113 -50 172t-144 59q-102 0 -159.5 -72.5t-57.5 -203.5v-580h-265v1053h240l20 -154q113 176 328 176z" glyph-name="n" horiz-adv-x="1140" unicode="n"/><glyph d="M596 1075q238 0 386 -152.5t148 -396t-148 -396.5t-386 -153q-242 0 -390.5 153t-148.5 396.5t148.5 396t390.5 152.5zM594 188q121 0 194.5 92.5t73.5 246t-73.5 245.5t-194.5 92q-123 0 -196.5 -91t-73.5 -247q0 -154 73.5 -246t196.5 -92z" glyph-name="o" horiz-adv-x="1185" unicode="o"/><glyph d="M106 -369v1422h240l21 -164q113 186 346 186q209 0 331.5 -155.5t122.5 -393.5q0 -233 -123.5 -389.5t-328.5 -156.5q-109 0 -199 47t-145 135v-531h-265zM362 526.5q0 -153.5 74 -246t195 -92.5q119 0 192.5 93.5t73.5 244.5q0 154 -72.5 247t-193.5 93t-195 -93 t-74 -246.5z" glyph-name="p" horiz-adv-x="1224" unicode="p"/><glyph d="M1118 1053v-1422h-264v531q-55 -88 -145.5 -135t-198.5 -47q-205 0 -329 156.5t-124 389.5q0 238 123 393.5t332 155.5q233 0 346 -186l21 164h239zM862 526.5q0 153.5 -73.5 246.5t-194.5 93t-193.5 -93t-72.5 -247q0 -152 73.5 -245t192.5 -93q121 0 194.5 92.5 t73.5 246z" glyph-name="q" horiz-adv-x="1224" unicode="q"/><glyph d="M696 1063v-238q-35 10 -82 11q-119 0 -184 -82t-65 -232v-522h-267v1053h242l20 -156q35 80 102.5 128t147.5 48q45 0 86 -10z" glyph-name="r" horiz-adv-x="720" unicode="r"/><glyph d="M336 762q0 -45 44 -74t148 -49l70 -14q193 -39 278 -110t85 -191q0 -162 -119 -254.5t-326 -92.5q-201 0 -324.5 94.5t-138.5 254.5h260q4 -68 61.5 -110t149.5 -42q76 0 124 36t48 91q0 47 -44 76t-158 53l-66 14q-180 37 -263 110t-83 194q0 145 115.5 236t302 91 t302.5 -88t128 -237h-246q-8 61 -57 97t-127 36q-72 0 -118 -35t-46 -86z" glyph-name="s" horiz-adv-x="1013" unicode="s"/><glyph d="M610 852h-194v-539q0 -63 29.5 -89.5t95.5 -26.5q57 0 82 8v-205q-76 -16 -144 -16q-172 0 -249.5 75.5t-77.5 247.5v545h-132v201h132v254h258v-254h200v-201z" glyph-name="t" horiz-adv-x="686" unicode="t"/><glyph d="M449 -23q-164 0 -258.5 102.5t-94.5 282.5v691h264v-623q0 -113 51.5 -172t145.5 -59q102 0 159.5 72.5t57.5 203.5v578h264v-1053h-239l-21 154q-112 -177 -329 -177z" glyph-name="u" horiz-adv-x="1140" unicode="u"/><glyph d="M788 1053h281l-397 -1053h-258l-396 1053h281l246 -748z" glyph-name="v" horiz-adv-x="1087" unicode="v"/><glyph d="M20 1053h273l201 -738l213 738h198l211 -738l203 738h270l-325 -1053h-260l-199 670l-199 -670h-260z" glyph-name="w" horiz-adv-x="1611" unicode="w"/><glyph d="M692 543l381 -543h-303l-221 352l-225 -352h-301l380 543l-364 510h301l209 -328l207 328h301z" glyph-name="x" horiz-adv-x="1095" unicode="x"/><glyph d="M786 1053h281l-532 -1422h-279l168 412l-406 1010h281l254 -713z" glyph-name="y" horiz-adv-x="1085" unicode="y"/><glyph d="M430 215h520v-215h-874v133l520 705h-479v215h833v-133z" glyph-name="z" horiz-adv-x="1028" unicode="z"/><glyph d="M27 485v226q109 0 157.5 54t48.5 177v207q0 186 92.5 266t278.5 80l146 -6v-199q-27 2 -45 2q-113 0 -159 -36.5t-46 -145.5v-197q0 -113 -54.5 -202.5t-128.5 -112.5q74 -25 128.5 -114t54.5 -201v-201q0 -111 46 -148.5t159 -37.5l45 2v-197q-84 -8 -146 -8 q-186 0 -278.5 80t-92.5 270v209q0 125 -48.5 179t-157.5 54z" glyph-name="braceleft" horiz-adv-x="774" unicode="{"/><glyph d="M500 -307h-271v1802h271v-1802z" glyph-name="bar" horiz-adv-x="729" unicode="|"/><glyph d="M750 711v-226q-109 0 -158 -54t-49 -179v-209q0 -190 -92.5 -270t-278.5 -80l-145 8v197q27 -2 45 -2q113 0 158.5 37.5t45.5 148.5v201q0 113 54.5 201.5t128.5 113.5q-74 23 -128.5 113t-54.5 202v197q0 109 -46 145.5t-158 36.5l-45 -2v199q84 6 145 6 q186 0 278.5 -80t92.5 -266v-207q0 -123 49 -177t158 -54z" glyph-name="braceright" horiz-adv-x="774" unicode="}"/><glyph d="M133 451q-2 172 82 270t234 98q80 0 147.5 -31.5t105 -68.5t83.5 -69t87 -32q51 0 80 41t29 115h213q2 -174 -81 -271t-234 -97q-80 0 -148.5 31.5t-106.5 68.5t-85 68.5t-88 31.5q-104 0 -105 -155h-213z" glyph-name="asciitilde" horiz-adv-x="1327" unicode="~"/><glyph glyph-name="uni00A0" horiz-adv-x="395" unicode=" "/><glyph d="M174 999q0 61 44 103.5t107.5 42.5t107.5 -42t44 -104q0 -63 -43 -105t-108.5 -42t-108.5 42t-43 105zM176 -307l27 966h227l29 -966h-283z" glyph-name="exclamdown" horiz-adv-x="636" unicode="¡"/><glyph d="M666 381q86 0 145 49t74 137h262q-16 -154 -115.5 -255t-257.5 -130v-182h-237v182q-188 35 -301 179.5t-113 355.5q0 209 112.5 353t301.5 179v185h237v-183q158 -29 257 -130t116 -255h-262q-14 88 -73.5 137.5t-145.5 49.5q-127 0 -199 -90.5t-72 -246t72 -245.5 t199 -90z" glyph-name="cent" horiz-adv-x="1269" unicode="¢"/><glyph d="M109 0v203q172 0 172 266q0 59 -2 111h-170v192h155q-16 172 -16 244q0 205 128 322.5t347 117.5q199 0 325 -106.5t136 -284.5h-248q-6 86 -64.5 137t-148.5 51q-221 0 -221 -266q0 -78 14 -215h387v-192h-377q6 -96 6 -162q-6 -133 -61 -215h723v-203h-1085z" glyph-name="sterling" horiz-adv-x="1292" unicode="£"/><glyph d="M580 979q106 0 194 -47l109 112l153 -153l-110 -109q51 -90 51 -196.5t-49 -194.5l108 -110l-153 -154l-109 115q-82 -49 -194 -49q-104 0 -193 47l-106 -113l-154 154l106 106q-51 90 -51 199q0 111 54 200l-109 105l154 153l108 -110q87 45 191 45zM580 795 q-88 0 -145.5 -61.5t-57.5 -147.5t57.5 -147.5t145.5 -61.5q86 0 143 61.5t57 147.5t-57 147.5t-143 61.5z" glyph-name="currency" horiz-adv-x="1165" unicode="¤"/><glyph d="M1006 1434h307l-443 -725h217v-189h-274v-127h274v-188h-274v-205h-289v205h-272v188h272v127h-272v189h215l-440 725h307l336 -600z" glyph-name="yen" horiz-adv-x="1339" unicode="¥"/><glyph d="M500 799h-271v696h271v-696zM500 -307h-271v696h271v-696z" glyph-name="brokenbar" horiz-adv-x="729" unicode="¦"/><glyph d="M303 1096q0 -53 48 -84t175 -68l60 -16q176 -53 251.5 -122t75.5 -175q0 -199 -215 -275q203 -88 203 -260q0 -141 -112.5 -231t-290.5 -90q-180 0 -297 89t-127 232h227q6 -59 58.5 -96t130 -37t126 37t48.5 94q0 51 -49.5 84t-176.5 68l-61 14q-168 45 -242 115.5 t-76 179.5q0 190 211 276q-209 80 -209 261q0 139 116 230t296 91t297 -88t129 -233h-233q-6 61 -57.5 99t-129.5 38q-76 0 -126 -38t-50 -95zM532 426q68 14 106 55t38 103q0 57 -39 90t-141 65l-62 21q-68 -12 -105.5 -53t-37.5 -103q0 -59 38 -92t130 -61z" glyph-name="section" horiz-adv-x="970" unicode="§"/><glyph d="M205 1556q0 63 43 105.5t108 42.5q63 0 106.5 -42t43.5 -106q0 -61 -43 -103t-106.5 -42t-107.5 42t-44 103zM637 1556q0 63 43 105.5t106 42.5q66 0 109 -42t43 -106q0 -61 -44 -103t-107.5 -42t-106.5 42t-43 103z" glyph-name="dieresis" horiz-adv-x="1142" unicode="¨"/><glyph d="M872.5 1454q360.5 0 585.5 -228.5t225 -590.5q0 -365 -225 -592t-585.5 -227t-586 227t-225.5 592q0 362 225.5 590.5t586 228.5zM872.5 -25q290.5 0 465.5 180.5t175 479.5t-175 479t-465.5 180t-466 -180t-175.5 -479t175.5 -479.5t466 -180.5zM883 365q78 0 131 37.5 t67 107.5h166q-16 -137 -117.5 -217t-248.5 -80q-178 0 -291 119t-113 303t112.5 303t289.5 119q150 0 252 -82t116 -215h-166q-14 70 -67 107.5t-131 37.5q-109 0 -173.5 -73.5t-64.5 -196.5t64.5 -196.5t173.5 -73.5z" glyph-name="copyright" horiz-adv-x="1744" unicode="©"/><glyph d="M385 1446q295 0 295 -270v-447h-164l-14 94q-61 -109 -217 -108q-111 0 -179.5 55t-68.5 154q0 233 457 233v14q0 137 -121 138q-57 0 -92 -26t-39 -69h-176q6 106 93 169t226 63zM496 995v52q-274 0 -275 -115q0 -43 34 -65.5t81 -22.5q74 0 117 40.5t43 110.5z" glyph-name="ordfeminine" horiz-adv-x="749" unicode="ª"/><glyph d="M721 156h-270l-336 438l336 438h270l-344 -438zM1182 156h-271l-336 438l336 438h271l-344 -438z" glyph-name="guillemotleft" horiz-adv-x="1296" unicode="«"/><glyph d="M125 571v209h954v-479h-248v270h-706z" glyph-name="logicalnot" horiz-adv-x="1220" unicode="¬"/><glyph d="M569 1638q215 0 350.5 -135t135.5 -352t-135.5 -352t-350.5 -135t-350 135t-135 352t135 352t350 135zM569.5 797q155.5 0 249.5 97t94 257t-94 257t-249.5 97t-250 -97t-94.5 -257t94.5 -257t250 -97zM395 942v426h201q76 0 125 -43t49 -108q0 -92 -72 -130l84 -145 h-153l-54 117h-40v-117h-140zM571 1157q57 0 58 51q0 49 -58 49h-36v-100h36z" glyph-name="registered" horiz-adv-x="1140" unicode="®"/><glyph d="M188 1434v188h672v-188h-672z" glyph-name="macron" horiz-adv-x="1048" unicode="¯"/><glyph d="M63 1268q0 117 79 192.5t198 75.5q117 0 195.5 -77t78.5 -191.5t-78.5 -191.5t-195.5 -77q-119 0 -198 77t-79 192zM233 1268q0 -45 31 -77t76 -32t74.5 32t29.5 77q0 47 -29.5 77.5t-74.5 30.5t-76 -30.5t-31 -77.5z" glyph-name="degree" horiz-adv-x="677" unicode="°"/><glyph d="M135 819h377v295h238v-295h368v-209h-368v-293h-238v293h-377v209zM135 0v209h983v-209h-983z" glyph-name="plusminus" horiz-adv-x="1251" unicode="±"/><glyph d="M47 729v111l279 250q86 80 86 133q0 41 -27 66.5t-72 25.5q-98 0 -102 -103h-164q0 104 76 168t199 64q119 0 190.5 -57.5t71.5 -151.5q0 -100 -101 -195l-182 -168h287v-143h-541z" glyph-name="uni00B2" horiz-adv-x="624" unicode="²"/><glyph d="M37 942h166q2 -39 33.5 -64.5t78.5 -25.5t78 25.5t31 66.5q0 84 -115 84h-80v121h80q47 0 75 23.5t28 62.5q0 35 -28 57.5t-69 22.5q-43 0 -71.5 -25.5t-28.5 -64.5h-158q0 98 73 158.5t189 60.5q111 0 180.5 -50.5t69.5 -129.5q0 -66 -36.5 -110t-100.5 -58 q76 -10 121 -56.5t45 -113.5q0 -92 -79 -149.5t-204 -57.5q-121 0 -197.5 61.5t-80.5 161.5z" glyph-name="uni00B3" horiz-adv-x="641" unicode="³"/><glyph d="M324 1749h241l-198 -315h-179z" glyph-name="acute" horiz-adv-x="753" unicode="´"/><glyph d="M92 979q0 195 132 325t327 130h231v-1598h-198v688h-33q-195 0 -327 130t-132 325zM1065 -164h-201v1598h201v-1598z" glyph-name="paragraph" horiz-adv-x="1175" unicode="¶"/><glyph d="M164 582q0 63 43 105t108.5 42t108.5 -42t43 -105q0 -61 -44 -103.5t-107.5 -42.5t-107.5 42.5t-44 103.5z" glyph-name="periodcentered" horiz-adv-x="618" unicode="·"/><glyph d="M248 0h137l-16 -115q98 2 151 -46t53 -124q0 -88 -70.5 -137t-199.5 -49q-70 0 -115 14v129q43 -12 101 -12q121 0 121 55.5t-117 55.5q-39 0 -66 -7v95z" glyph-name="cedilla" horiz-adv-x="761" unicode="¸"/><glyph d="M33 1153v156l178 125h139v-705h-170v526z" glyph-name="uni00B9" horiz-adv-x="434" unicode="¹"/><glyph d="M35 1081q0 160 97 261.5t257 101.5q158 0 257 -101.5t99 -261.5q0 -162 -99 -262t-257 -100q-160 0 -257 100t-97 262zM389 1300q-84 0 -133 -58t-49 -160.5t49 -161t133 -58.5t133 58.5t49 160.5q0 104 -48 161.5t-134 57.5z" glyph-name="ordmasculine" horiz-adv-x="778" unicode="º"/><glyph d="M385 156h-270l344 438l-344 438h270l336 -438zM846 156h-271l345 438l-345 438h271l336 -438z" glyph-name="guillemotright" horiz-adv-x="1296" unicode="»"/><glyph d="M-18 1141v168l182 125h145v-705h-180v514zM8 0l1043 1434h186l-1042 -1434h-187zM1075 119h-336v106q0 2 75 113t155 229.5t86 128.5h200v-434h91v-143h-91v-127h-180v127zM934 262h141v225z" glyph-name="onequarter" horiz-adv-x="1433" unicode="¼"/><glyph d="M23 1141v168l182 125h145v-705h-180v514zM8 0l1043 1434h186l-1042 -1434h-187zM821 -8v112l279 248q86 78 86 131q0 39 -26.5 62.5t-67.5 23.5q-43 0 -70 -26.5t-29 -71.5h-172q2 109 81 172.5t200 63.5q115 0 190.5 -55.5t75.5 -151.5q0 -106 -123 -215l-153 -142h280 v-151h-551z" glyph-name="onehalf" horiz-adv-x="1392" unicode="½"/><glyph d="M20 948h177q0 -41 29.5 -65.5t74.5 -24.5t76 24.5t31 63.5t-33 59.5t-82 20.5l-80 -2v129h76q45 0 74.5 20.5t29.5 59.5q0 35 -25.5 55.5t-64.5 20.5q-41 0 -67.5 -24.5t-26.5 -63.5h-166q0 102 76 162.5t188 60.5q104 0 180 -48t76 -136q0 -59 -33.5 -104.5t-91.5 -59.5 q70 -12 111 -57.5t41 -112.5q0 -96 -84 -151.5t-203 -55.5t-200 61.5t-83 167.5zM186 0l1043 1434h186l-1042 -1434h-187zM1192 119h-336v106q0 2 75 113t154.5 229.5t85.5 128.5h201v-434h90v-143h-90v-127h-180v127zM1051 262h141v225z" glyph-name="threequarters" horiz-adv-x="1611" unicode="¾"/><glyph d="M587.5 1145q63.5 0 109.5 -46t46 -105.5t-46 -103.5t-107.5 -44t-107.5 44t-46 103.5t44 105.5t107.5 46zM756 88h258q-4 -190 -136.5 -303t-338.5 -113q-199 0 -328 102.5t-129 284.5q0 94 39 163t95 108t111.5 72.5t95.5 80.5t42 111l2 100h248l2 -116 q0 -74 -25.5 -131.5t-66.5 -90t-88.5 -65.5t-88 -59.5t-68.5 -68.5t-28 -95q0 -84 56.5 -133.5t138.5 -49.5q90 0 148.5 54.5t60.5 148.5z" glyph-name="questiondown" horiz-adv-x="1069" unicode="¿"/><glyph d="M403 1892h242l135 -315h-178zM846 1434l518 -1434h-285l-100 297h-569l-101 -297h-284l518 1434h303zM471 508h447l-224 661z" glyph-name="Agrave" horiz-adv-x="1388" unicode="À"/><glyph d="M735 1892h242l-199 -315h-178zM846 1434l518 -1434h-285l-100 297h-569l-101 -297h-284l518 1434h303zM471 508h447l-224 661z" glyph-name="Aacute" horiz-adv-x="1388" unicode="Á"/><glyph d="M557 1556h-215l254 295h197l254 -295h-216l-137 177zM846 1434l518 -1434h-285l-100 297h-569l-101 -297h-284l518 1434h303zM471 508h447l-224 661z" glyph-name="Acircumflex" horiz-adv-x="1388" unicode="Â"/><glyph d="M381 1577q-2 102 47 159.5t139 57.5q76 0 145.5 -52t94 -52t42 21.5t15.5 55.5h146q0 -104 -47.5 -160.5t-137.5 -56.5q-80 0 -149.5 52.5t-93.5 52.5q-27 0 -42.5 -20.5t-13.5 -57.5h-145zM846 1434l518 -1434h-285l-100 297h-569l-101 -297h-284l518 1434h303zM471 508 h447l-224 661z" glyph-name="Atilde" horiz-adv-x="1388" unicode="Ã"/><glyph d="M328 1700q0 63 43 105t108 42q63 0 106.5 -42t43.5 -105q0 -61 -43 -103.5t-106.5 -42.5t-107.5 42.5t-44 103.5zM760 1700q0 63 43 105t106 42q66 0 109 -42t43 -105q0 -61 -44 -103.5t-107.5 -42.5t-106.5 42.5t-43 103.5zM846 1434l518 -1434h-285l-100 297h-569 l-101 -297h-284l518 1434h303zM471 508h447l-224 661z" glyph-name="Adieresis" horiz-adv-x="1388" unicode="Ä"/><glyph d="M498 1739q0 82 56 136t140 54t140.5 -54t56.5 -136t-56.5 -137.5t-140.5 -55.5t-140 55.5t-56 137.5zM621 1739q0 -33 21.5 -54.5t52 -21.5t52 21.5t21.5 54.5q0 31 -21.5 52t-52 21t-52 -20t-21.5 -53zM846 1434l518 -1434h-285l-100 297h-569l-101 -297h-284l518 1434 h303zM471 508h447l-224 661z" glyph-name="Aring" horiz-adv-x="1388" unicode="Å"/><glyph d="M1802 1206h-674v-370h592v-222h-592v-387h674v-227h-956v297h-434l-101 -297h-284l516 1434h1259v-228zM473 508h373v698h-135z" glyph-name="AE" horiz-adv-x="1918" unicode="Æ"/><glyph d="M764 211q143 0 240.5 74.5t121.5 206.5h293q-39 -229 -204.5 -365.5t-413.5 -146.5l-15 -95q98 2 151.5 -46t53.5 -124q0 -88 -70.5 -137t-199.5 -49q-70 0 -115 14v129q43 -12 101 -12q121 0 120.5 55.5t-116.5 55.5q-39 0 -66 -7v95l19 125q-268 33 -428 231.5 t-160 501.5q0 332 189.5 535.5t496.5 203.5q262 0 443 -143.5t206 -370.5h-289q-25 125 -124 203t-236 78q-178 0 -287.5 -138.5t-109.5 -365.5q0 -229 109.5 -368.5t289.5 -139.5z" glyph-name="Ccedilla" horiz-adv-x="1488" unicode="Ç"/><glyph d="M311 1892h242l135 -315h-178zM1081 1206h-675v-370h593v-222h-593v-387h675v-227h-958v1434h958v-228z" glyph-name="Egrave" horiz-adv-x="1177" unicode="È"/><glyph d="M643 1892h242l-199 -315h-178zM1081 1206h-675v-370h593v-222h-593v-387h675v-227h-958v1434h958v-228z" glyph-name="Eacute" horiz-adv-x="1177" unicode="É"/><glyph d="M465 1556h-215l254 295h196l254 -295h-215l-137 177zM1081 1206h-675v-370h593v-222h-593v-387h675v-227h-958v1434h958v-228z" glyph-name="Ecircumflex" horiz-adv-x="1177" unicode="Ê"/><glyph d="M248 1700q0 63 43 105t108 42q63 0 106.5 -42t43.5 -105q0 -61 -43 -103.5t-106.5 -42.5t-107.5 42.5t-44 103.5zM680 1700q0 63 43 105t106 42q66 0 109 -42t43 -105q0 -61 -44 -103.5t-107.5 -42.5t-106.5 42.5t-43 103.5zM1081 1206h-675v-370h593v-222h-593v-387h675 v-227h-958v1434h958v-228z" glyph-name="Edieresis" horiz-adv-x="1177" unicode="Ë"/><glyph d="M-27 1892h242l135 -315h-178zM406 0h-283v1434h283v-1434z" glyph-name="Igrave" horiz-adv-x="528" unicode="Ì"/><glyph d="M305 1892h242l-199 -315h-178zM406 0h-283v1434h283v-1434z" glyph-name="Iacute" horiz-adv-x="528" unicode="Í"/><glyph d="M127 1556h-215l254 295h196l254 -295h-215l-137 177zM406 0h-283v1434h283v-1434z" glyph-name="Icircumflex" horiz-adv-x="528" unicode="Î"/><glyph d="M-98 1700q0 63 43 105t108 42q63 0 106.5 -42t43.5 -105q0 -61 -43 -103.5t-106.5 -42.5t-107.5 42.5t-44 103.5zM334 1700q0 63 43 105t106 42q66 0 109 -42t43 -105q0 -61 -44 -103.5t-107.5 -42.5t-106.5 42.5t-43 103.5zM406 0h-283v1434h283v-1434z" glyph-name="Idieresis" horiz-adv-x="528" unicode="Ï"/><glyph d="M715 1434q356 0 541.5 -183.5t185.5 -533.5q0 -338 -191.5 -527.5t-535.5 -189.5h-510v586h-168v229h168v619h510zM737 586h-250v-359h205q219 0 338 126t119 366q0 248 -112.5 367.5t-344.5 119.5h-205v-391h250v-229z" glyph-name="Eth" horiz-adv-x="1519" unicode="Ð"/><glyph d="M412 1577q-2 102 47 159.5t139 57.5q76 0 145.5 -52t94 -52t42 21.5t15.5 55.5h145q0 -104 -47 -160.5t-137 -56.5q-59 0 -106.5 26t-80 52.5t-57.5 26.5q-27 0 -42 -20.5t-13 -57.5h-145zM1055 1434h276v-1434h-301l-633 987v-987h-274v1434h299l633 -990v990z" glyph-name="Ntilde" horiz-adv-x="1454" unicode="Ñ"/><glyph d="M485 1892h242l135 -315h-178zM792.5 1456q319.5 0 517 -204.5t197.5 -534.5t-197.5 -535t-517 -205t-518 205t-198.5 535t198.5 534.5t518 204.5zM792.5 211q194.5 0 310.5 137t116 368.5t-116 369t-310.5 137.5t-311 -137.5t-116.5 -369t116.5 -368.5t311 -137z" glyph-name="Ograve" horiz-adv-x="1585" unicode="Ò"/><glyph d="M817 1892h242l-199 -315h-178zM792.5 1456q319.5 0 517 -204.5t197.5 -534.5t-197.5 -535t-517 -205t-518 205t-198.5 535t198.5 534.5t518 204.5zM792.5 211q194.5 0 310.5 137t116 368.5t-116 369t-310.5 137.5t-311 -137.5t-116.5 -369t116.5 -368.5t311 -137z" glyph-name="Oacute" horiz-adv-x="1585" unicode="Ó"/><glyph d="M639 1556h-215l254 295h196l254 -295h-215l-137 177zM792.5 1456q319.5 0 517 -204.5t197.5 -534.5t-197.5 -535t-517 -205t-518 205t-198.5 535t198.5 534.5t518 204.5zM792.5 211q194.5 0 310.5 137t116 368.5t-116 369t-310.5 137.5t-311 -137.5t-116.5 -369 t116.5 -368.5t311 -137z" glyph-name="Ocircumflex" horiz-adv-x="1585" unicode="Ô"/><glyph d="M461 1577q-2 102 47 159.5t139 57.5q76 0 145.5 -52t94 -52t42 21.5t15.5 55.5h146q0 -104 -47.5 -160.5t-137.5 -56.5q-59 0 -106 26t-80 52.5t-57 26.5q-27 0 -42.5 -20.5t-13.5 -57.5h-145zM792.5 1456q319.5 0 517 -204.5t197.5 -534.5t-197.5 -535t-517 -205 t-518 205t-198.5 535t198.5 534.5t518 204.5zM792.5 211q194.5 0 310.5 137t116 368.5t-116 369t-310.5 137.5t-311 -137.5t-116.5 -369t116.5 -368.5t311 -137z" glyph-name="Otilde" horiz-adv-x="1585" unicode="Õ"/><glyph d="M422 1700q0 63 43 105t108 42q63 0 106.5 -42t43.5 -105q0 -61 -43 -103.5t-106.5 -42.5t-107.5 42.5t-44 103.5zM854 1700q0 63 43 105t107 42q66 0 108.5 -42t42.5 -105q0 -61 -44 -103.5t-107.5 -42.5t-106.5 42.5t-43 103.5zM792.5 1456q319.5 0 517 -204.5 t197.5 -534.5t-197.5 -535t-517 -205t-518 205t-198.5 535t198.5 534.5t518 204.5zM792.5 211q194.5 0 310.5 137t116 368.5t-116 369t-310.5 137.5t-311 -137.5t-116.5 -369t116.5 -368.5t311 -137z" glyph-name="Odieresis" horiz-adv-x="1585" unicode="Ö"/><glyph d="M188 297l291 289l-291 288l170 170l285 -290l285 290l170 -170l-291 -288l291 -289l-170 -170l-285 293l-285 -293z" glyph-name="multiply" horiz-adv-x="1286" unicode="×"/><glyph d="M791 1456q53 0 106 -6l49 168h223l-67 -223q188 -84 295.5 -261.5t107.5 -416.5q0 -330 -197.5 -535t-516.5 -205q-61 0 -109 9l-51 -170h-221l65 225q-188 82 -294.5 259t-106.5 417q0 330 199 534.5t518 204.5zM549 283l280 940h-38q-195 0 -312 -137.5t-117 -368.5 q1 -301 187 -434zM791 211q195 0 310.5 137t115.5 369q0 305 -187 434l-280 -940h41z" glyph-name="Oslash" horiz-adv-x="1579" unicode="Ø"/><glyph d="M422 1892h242l135 -315h-178zM1020 1434h283v-902q0 -252 -161 -403.5t-429.5 -151.5t-429 152t-160.5 403v902h283v-893q0 -156 81.5 -245t225 -89t225.5 89t82 245v893z" glyph-name="Ugrave" horiz-adv-x="1425" unicode="Ù"/><glyph d="M754 1892h241l-198 -315h-179zM1020 1434h283v-902q0 -252 -161 -403.5t-429.5 -151.5t-429 152t-160.5 403v902h283v-893q0 -156 81.5 -245t225 -89t225.5 89t82 245v893z" glyph-name="Uacute" horiz-adv-x="1425" unicode="Ú"/><glyph d="M575 1556h-215l254 295h197l254 -295h-215l-137 177zM1020 1434h283v-902q0 -252 -161 -403.5t-429.5 -151.5t-429 152t-160.5 403v902h283v-893q0 -156 81.5 -245t225 -89t225.5 89t82 245v893z" glyph-name="Ucircumflex" horiz-adv-x="1425" unicode="Û"/><glyph d="M358 1700q0 63 43 105t109 42q63 0 106 -42t43 -105q0 -61 -43 -103.5t-106.5 -42.5t-107.5 42.5t-44 103.5zM791 1700q0 63 43 105t106 42q66 0 109 -42t43 -105q0 -61 -44 -103.5t-107.5 -42.5t-106.5 42.5t-43 103.5zM1020 1434h283v-902q0 -252 -161 -403.5 t-429.5 -151.5t-429 152t-160.5 403v902h283v-893q0 -156 81.5 -245t225 -89t225.5 89t82 245v893z" glyph-name="Udieresis" horiz-adv-x="1425" unicode="Ü"/><glyph d="M690 1892h242l-199 -315h-178zM1001 1434h304l-498 -820v-614h-283v614l-497 820h303l336 -600z" glyph-name="Yacute" horiz-adv-x="1331" unicode="Ý"/><glyph d="M696 1184q217 0 352.5 -125t135.5 -323.5t-135.5 -323.5t-352.5 -125h-276v-287h-285v1434h285v-250h276zM645 514q113 0 181.5 61.5t68.5 160t-68.5 159.5t-181.5 61h-225v-442h225z" glyph-name="Thorn" horiz-adv-x="1277" unicode="Þ"/><glyph d="M528 0v207h82q115 0 192 63.5t77 157.5q0 96 -71 151.5t-196 55.5h-75v199h75q98 0 162 60t64 153q0 86 -63.5 142t-164.5 56q-106 0 -169.5 -62.5t-63.5 -168.5v-1014h-254v1014q0 201 135 321.5t360 120.5q205 0 341.5 -105.5t136.5 -263.5q0 -125 -73 -218t-194 -121 q150 -25 237 -117t87 -225q0 -178 -151.5 -292t-389.5 -114h-84z" glyph-name="germandbls" horiz-adv-x="1218" unicode="ß"/><glyph d="M246 1503h241l136 -315h-179zM571 1075q213 0 325 -103.5t112 -301.5v-670h-236l-20 143q-94 -164 -326 -163q-170 0 -269.5 83.5t-99.5 227.5q0 346 684 346v27q0 111 -45 160.5t-143 49.5q-86 0 -141.5 -38.5t-61.5 -106.5h-252q10 156 139 251t334 95zM743 395v76 q-422 0 -421 -172q0 -59 47 -94t127 -35q115 0 181 61.5t66 163.5z" glyph-name="agrave" horiz-adv-x="1105" unicode="à"/><glyph d="M575 1503h242l-199 -315h-178zM571 1075q213 0 325 -103.5t112 -301.5v-670h-236l-20 143q-94 -164 -326 -163q-170 0 -269.5 83.5t-99.5 227.5q0 346 684 346v27q0 111 -45 160.5t-143 49.5q-86 0 -141.5 -38.5t-61.5 -106.5h-252q10 156 139 251t334 95zM743 395v76 q-422 0 -421 -172q0 -59 47 -94t127 -35q115 0 181 61.5t66 163.5z" glyph-name="aacute" horiz-adv-x="1105" unicode="á"/><glyph d="M399 1167h-215l254 295h197l254 -295h-215l-137 176zM571 1075q213 0 325 -103.5t112 -301.5v-670h-236l-20 143q-94 -164 -326 -163q-170 0 -269.5 83.5t-99.5 227.5q0 346 684 346v27q0 111 -45 160.5t-143 49.5q-86 0 -141.5 -38.5t-61.5 -106.5h-252q10 156 139 251 t334 95zM743 395v76q-422 0 -421 -172q0 -59 47 -94t127 -35q115 0 181 61.5t66 163.5z" glyph-name="acircumflex" horiz-adv-x="1105" unicode="â"/><glyph d="M221 1188q-2 102 47 159.5t140 57.5q76 0 145.5 -52.5t94 -52.5t42 21.5t15.5 56.5h145q0 -104 -47 -160.5t-137 -56.5q-59 0 -106.5 25.5t-80.5 52.5t-57 27q-27 0 -42 -20.5t-13 -57.5h-146zM571 1075q213 0 325 -103.5t112 -301.5v-670h-236l-20 143 q-94 -164 -326 -163q-170 0 -269.5 83.5t-99.5 227.5q0 346 684 346v27q0 111 -45 160.5t-143 49.5q-86 0 -141.5 -38.5t-61.5 -106.5h-252q10 156 139 251t334 95zM743 395v76q-422 0 -421 -172q0 -59 47 -94t127 -35q115 0 181 61.5t66 163.5z" glyph-name="atilde" horiz-adv-x="1105" unicode="ã"/><glyph d="M182 1311q0 63 43 105t109 42q63 0 106 -42t43 -105q0 -61 -43 -103.5t-106.5 -42.5t-107.5 42.5t-44 103.5zM614 1311q0 63 43 105t107 42q66 0 108.5 -42t42.5 -105q0 -61 -44 -103.5t-107.5 -42.5t-106.5 42.5t-43 103.5zM571 1075q213 0 325 -103.5t112 -301.5v-670 h-236l-20 143q-94 -164 -326 -163q-170 0 -269.5 83.5t-99.5 227.5q0 346 684 346v27q0 111 -45 160.5t-143 49.5q-86 0 -141.5 -38.5t-61.5 -106.5h-252q10 156 139 251t334 95zM743 395v76q-422 0 -421 -172q0 -59 47 -94t127 -35q115 0 181 61.5t66 163.5z" glyph-name="adieresis" horiz-adv-x="1105" unicode="ä"/><glyph d="M340 1350q0 82 56.5 136t140.5 54t140 -54t56 -136t-56 -137.5t-140 -55.5t-140.5 55.5t-56.5 137.5zM463 1349.5q0 -32.5 21.5 -54t52 -21.5t52 21.5t21.5 54.5q0 31 -21.5 52t-52 21t-52 -20.5t-21.5 -53zM571 1075q213 0 325 -103.5t112 -301.5v-670h-236l-20 143 q-94 -164 -326 -163q-170 0 -269.5 83.5t-99.5 227.5q0 346 684 346v27q0 111 -45 160.5t-143 49.5q-86 0 -141.5 -38.5t-61.5 -106.5h-252q10 156 139 251t334 95zM743 395v76q-422 0 -421 -172q0 -59 47 -94t127 -35q115 0 181 61.5t66 163.5z" glyph-name="aring" horiz-adv-x="1105" unicode="å"/><glyph d="M559 1073q238 0 342 -141q123 143 342 143q238 0 368 -151.5t130 -403.5v-51h-735q2 -127 67.5 -208t179.5 -81q156 0 215 144h261q-39 -164 -175.5 -255.5t-304.5 -91.5q-264 0 -389 201q-66 -100 -182.5 -150.5t-241.5 -50.5q-164 0 -273.5 80t-109.5 234 q0 350 686 350q0 27 -2 39q-2 98 -46 145t-140 47q-86 0 -141.5 -38.5t-61.5 -106.5h-252q8 160 143.5 253t319.5 93zM1010 637h471q-12 113 -71.5 176.5t-162.5 63.5q-100 0 -163.5 -65.5t-73.5 -174.5zM741 401v80q-422 0 -422 -178q0 -70 50.5 -102.5t124.5 -32.5 q113 0 180 62t67 171z" glyph-name="ae" horiz-adv-x="1798" unicode="æ"/><glyph d="M600 188q88 0 146.5 50.5t74.5 138.5h262q-18 -176 -143 -282.5t-317 -114.5l-15 -95q98 2 151.5 -46t53.5 -124q0 -88 -70.5 -137t-199.5 -49q-70 0 -115 14v129q43 -12 100 -12q121 0 121 55.5t-117 55.5q-37 0 -65 -7v95l18 127q-197 33 -312.5 178t-115.5 362 q0 244 147.5 396.5t385.5 152.5q207 0 340 -108.5t153 -290.5h-262q-16 88 -74.5 138t-146.5 50q-127 0 -201.5 -91t-74.5 -246.5t74.5 -247t201.5 -91.5z" glyph-name="ccedilla" horiz-adv-x="1138" unicode="ç"/><glyph d="M272 1503h242l135 -315h-178zM1100 520v-51h-774q2 -129 73.5 -209t194.5 -80q170 0 227 144h269q-37 -160 -175.5 -253.5t-322.5 -93.5q-244 0 -389.5 153t-145.5 394.5t142.5 396t382.5 154.5q246 0 382 -151.5t136 -403.5zM330 637h504q-12 113 -76 176.5t-172 63.5 q-106 0 -175 -65.5t-81 -174.5z" glyph-name="egrave" horiz-adv-x="1157" unicode="è"/><glyph d="M602 1503h242l-199 -315h-178zM1100 520v-51h-774q2 -129 73.5 -209t194.5 -80q170 0 227 144h269q-37 -160 -175.5 -253.5t-322.5 -93.5q-244 0 -389.5 153t-145.5 394.5t142.5 396t382.5 154.5q246 0 382 -151.5t136 -403.5zM330 637h504q-12 113 -76 176.5t-172 63.5 q-106 0 -175 -65.5t-81 -174.5z" glyph-name="eacute" horiz-adv-x="1157" unicode="é"/><glyph d="M424 1167h-215l254 295h196l254 -295h-215l-137 176zM1100 520v-51h-774q2 -129 73.5 -209t194.5 -80q170 0 227 144h269q-37 -160 -175.5 -253.5t-322.5 -93.5q-244 0 -389.5 153t-145.5 394.5t142.5 396t382.5 154.5q246 0 382 -151.5t136 -403.5zM330 637h504 q-12 113 -76 176.5t-172 63.5q-106 0 -175 -65.5t-81 -174.5z" glyph-name="ecircumflex" horiz-adv-x="1157" unicode="ê"/><glyph d="M207 1311q0 63 43 105t108 42q63 0 106.5 -42t43.5 -105q0 -61 -43 -103.5t-106.5 -42.5t-107.5 42.5t-44 103.5zM639 1311q0 63 43 105t106 42q66 0 109 -42t43 -105q0 -61 -44 -103.5t-107.5 -42.5t-106.5 42.5t-43 103.5zM1100 520v-51h-774q2 -129 73.5 -209 t194.5 -80q170 0 227 144h269q-37 -160 -175.5 -253.5t-322.5 -93.5q-244 0 -389.5 153t-145.5 394.5t142.5 396t382.5 154.5q246 0 382 -151.5t136 -403.5zM330 637h504q-12 113 -76 176.5t-172 63.5q-106 0 -175 -65.5t-81 -174.5z" glyph-name="edieresis" horiz-adv-x="1157" unicode="ë"/><glyph d="M-68 1503h242l135 -315h-178zM373 0h-267v1053h267v-1053z" glyph-name="igrave" horiz-adv-x="479" unicode="ì"/><glyph d="M264 1503h242l-199 -315h-178zM373 0h-267v1053h267v-1053z" glyph-name="iacute" horiz-adv-x="479" unicode="í"/><glyph d="M86 1167h-215l254 295h197l253 -295h-215l-137 176zM373 0h-267v1053h267v-1053z" glyph-name="icircumflex" horiz-adv-x="479" unicode="î"/><glyph d="M-131 1311q0 63 43 105t108 42q63 0 106.5 -42t43.5 -105q0 -61 -43 -103.5t-106.5 -42.5t-107.5 42.5t-44 103.5zM301 1311q0 63 43 105t107 42q66 0 108.5 -42t42.5 -105q0 -61 -44 -103.5t-107.5 -42.5t-106.5 42.5t-43 103.5zM373 0h-267v1053h267v-1053z" glyph-name="idieresis" horiz-adv-x="479" unicode="ï"/><glyph d="M610 -20q-229 0 -378.5 136t-149.5 355q0 205 131 343t340 138q244 0 348 -137q-16 217 -141 328l-211 -139v165l74 50q-61 20 -144 20q-121 0 -196 -33v211q80 37 225 37q201 0 342 -84l184 123v-166l-69 -47q193 -205 192 -623v-71q0 -264 -144.5 -435t-402.5 -171z M340 479q0 -115 78 -196.5t196 -81.5q117 0 192 78.5t75 191.5q0 115 -78 194.5t-199 79.5q-117 0 -190.5 -77.5t-73.5 -188.5z" glyph-name="eth" horiz-adv-x="1234" unicode="ð"/><glyph d="M242 1188q-2 102 47 159.5t139 57.5q76 0 145.5 -52.5t94 -52.5t42 21.5t15.5 56.5h145q0 -104 -47 -160.5t-137 -56.5q-80 0 -149.5 52.5t-94.5 52.5q-27 0 -42 -20.5t-13 -57.5h-145zM690 1075q164 0 259 -102.5t95 -282.5v-690h-266v625q0 113 -50 172t-144 59 q-102 0 -159.5 -72.5t-57.5 -203.5v-580h-265v1053h240l20 -154q113 176 328 176z" glyph-name="ntilde" horiz-adv-x="1140" unicode="ñ"/><glyph d="M287 1503h241l136 -315h-179zM596 1075q238 0 386 -152.5t148 -396t-148 -396.5t-386 -153q-242 0 -390.5 153t-148.5 396.5t148.5 396t390.5 152.5zM594 188q121 0 194.5 92.5t73.5 246t-73.5 245.5t-194.5 92q-123 0 -196.5 -91t-73.5 -247q0 -154 73.5 -246t196.5 -92 z" glyph-name="ograve" horiz-adv-x="1185" unicode="ò"/><glyph d="M616 1503h242l-199 -315h-178zM596 1075q238 0 386 -152.5t148 -396t-148 -396.5t-386 -153q-242 0 -390.5 153t-148.5 396.5t148.5 396t390.5 152.5zM594 188q121 0 194.5 92.5t73.5 246t-73.5 245.5t-194.5 92q-123 0 -196.5 -91t-73.5 -247q0 -154 73.5 -246 t196.5 -92z" glyph-name="oacute" horiz-adv-x="1185" unicode="ó"/><glyph d="M440 1167h-215l254 295h197l254 -295h-215l-137 176zM596 1075q238 0 386 -152.5t148 -396t-148 -396.5t-386 -153q-242 0 -390.5 153t-148.5 396.5t148.5 396t390.5 152.5zM594 188q121 0 194.5 92.5t73.5 246t-73.5 245.5t-194.5 92q-123 0 -196.5 -91t-73.5 -247 q0 -154 73.5 -246t196.5 -92z" glyph-name="ocircumflex" horiz-adv-x="1185" unicode="ô"/><glyph d="M262 1188q-2 102 47 159.5t140 57.5q76 0 145.5 -52.5t94 -52.5t42 21.5t14.5 56.5h146q0 -104 -47 -160.5t-137 -56.5q-59 0 -106.5 25.5t-80.5 52.5t-57 27q-27 0 -42 -20.5t-13 -57.5h-146zM596 1075q238 0 386 -152.5t148 -396t-148 -396.5t-386 -153 q-242 0 -390.5 153t-148.5 396.5t148.5 396t390.5 152.5zM594 188q121 0 194.5 92.5t73.5 246t-73.5 245.5t-194.5 92q-123 0 -196.5 -91t-73.5 -247q0 -154 73.5 -246t196.5 -92z" glyph-name="otilde" horiz-adv-x="1185" unicode="õ"/><glyph d="M223 1311q0 63 43 105t109 42q63 0 106 -42t43 -105q0 -61 -43 -103.5t-106.5 -42.5t-107.5 42.5t-44 103.5zM655 1311q0 63 43 105t107 42q66 0 108.5 -42t42.5 -105q0 -61 -44 -103.5t-107.5 -42.5t-106.5 42.5t-43 103.5zM596 1075q238 0 386 -152.5t148 -396 t-148 -396.5t-386 -153q-242 0 -390.5 153t-148.5 396.5t148.5 396t390.5 152.5zM594 188q121 0 194.5 92.5t73.5 246t-73.5 245.5t-194.5 92q-123 0 -196.5 -91t-73.5 -247q0 -154 73.5 -246t196.5 -92z" glyph-name="odieresis" horiz-adv-x="1185" unicode="ö"/><glyph d="M461 976.5q0 63.5 41 102.5t108 39q66 0 107 -39t41 -102.5t-41 -102t-107 -38.5q-68 0 -108.5 38.5t-40.5 102zM1087 487h-966v213h966v-213zM461 210.5q0 63.5 41 102.5t108 39q66 0 107 -39t41 -102.5t-41 -102t-107 -38.5q-68 0 -108.5 38.5t-40.5 102z" glyph-name="divide" horiz-adv-x="1208" unicode="÷"/><glyph d="M604 1075q51 0 109 -10l67 184h174l-88 -235q127 -68 200 -195t73 -293q0 -244 -148.5 -396.5t-386.5 -152.5q-55 0 -117 11l-71 -193h-174l92 246q-127 66 -197.5 192.5t-70.5 292.5q0 244 148 396.5t390 152.5zM418 266l219 596q-4 0 -16.5 1t-18.5 1 q-123 0 -196.5 -91t-73.5 -247q0 -168 86 -260zM602 188q121 0 194.5 92.5t73.5 245.5q0 166 -86 262l-221 -598q6 0 18.5 -1t20.5 -1z" glyph-name="oslash" horiz-adv-x="1200" unicode="ø"/><glyph d="M260 1503h242l135 -315h-178zM449 -23q-164 0 -258.5 102.5t-94.5 282.5v691h264v-623q0 -113 51.5 -172t145.5 -59q102 0 159.5 72.5t57.5 203.5v578h264v-1053h-239l-21 154q-112 -177 -329 -177z" glyph-name="ugrave" horiz-adv-x="1140" unicode="ù"/><glyph d="M592 1503h242l-199 -315h-178zM449 -23q-164 0 -258.5 102.5t-94.5 282.5v691h264v-623q0 -113 51.5 -172t145.5 -59q102 0 159.5 72.5t57.5 203.5v578h264v-1053h-239l-21 154q-112 -177 -329 -177z" glyph-name="uacute" horiz-adv-x="1140" unicode="ú"/><glyph d="M414 1167h-215l254 295h196l254 -295h-215l-137 176zM449 -23q-164 0 -258.5 102.5t-94.5 282.5v691h264v-623q0 -113 51.5 -172t145.5 -59q102 0 159.5 72.5t57.5 203.5v578h264v-1053h-239l-21 154q-112 -177 -329 -177z" glyph-name="ucircumflex" horiz-adv-x="1140" unicode="û"/><glyph d="M197 1311q0 63 43 105t108 42q63 0 106.5 -42t43.5 -105q0 -61 -43 -103.5t-106.5 -42.5t-107.5 42.5t-44 103.5zM629 1311q0 63 43 105t106 42q66 0 109 -42t43 -105q0 -61 -44 -103.5t-107.5 -42.5t-106.5 42.5t-43 103.5zM449 -23q-164 0 -258.5 102.5t-94.5 282.5 v691h264v-623q0 -113 51.5 -172t145.5 -59q102 0 159.5 72.5t57.5 203.5v578h264v-1053h-239l-21 154q-112 -177 -329 -177z" glyph-name="udieresis" horiz-adv-x="1140" unicode="ü"/><glyph d="M567 1503h242l-199 -315h-178zM786 1053h281l-532 -1422h-279l168 412l-406 1010h281l254 -713z" glyph-name="yacute" horiz-adv-x="1085" unicode="ý"/><glyph d="M127 -348v1802h264v-561q53 86 143.5 134t200.5 48q199 0 326 -152.5t127 -396.5q0 -246 -126 -397.5t-327 -151.5q-229 0 -344 189v-514h-264zM383 526.5q0 -153.5 73.5 -246t194.5 -92.5t194 92.5t73 246t-73 245.5t-194 92t-194.5 -92t-73.5 -245.5z" glyph-name="thorn" horiz-adv-x="1261" unicode="þ"/><glyph d="M172 1311q0 63 43 105t109 42q63 0 106 -42t43 -105q0 -61 -43 -103.5t-106.5 -42.5t-107.5 42.5t-44 103.5zM604 1311q0 63 43 105t107 42q66 0 108.5 -42t42.5 -105q0 -61 -44 -103.5t-107.5 -42.5t-106.5 42.5t-43 103.5zM786 1053h281l-532 -1422h-279l168 412 l-406 1010h281l254 -713z" glyph-name="ydieresis" horiz-adv-x="1085" unicode="ÿ"/><glyph d="M342 1577v188h672v-188h-672zM846 1434l518 -1434h-285l-100 297h-569l-101 -297h-284l518 1434h303zM471 508h447l-224 661z" glyph-name="Amacron" horiz-adv-x="1388" unicode="Ā"/><glyph d="M201 1188v188h671v-188h-671zM571 1075q213 0 325 -103.5t112 -301.5v-670h-236l-20 143q-94 -164 -326 -163q-170 0 -269.5 83.5t-99.5 227.5q0 346 684 346v27q0 111 -45 160.5t-143 49.5q-86 0 -141.5 -38.5t-61.5 -106.5h-252q10 156 139 251t334 95zM743 395v76 q-422 0 -421 -172q0 -59 47 -94t127 -35q115 0 181 61.5t66 163.5z" glyph-name="amacron" horiz-adv-x="1105" unicode="ā"/><glyph d="M993 1878q0 -137 -89 -226t-224 -89q-137 0 -227.5 89t-90.5 226h160q0 -70 45 -117t113 -47q66 0 110 47t44 117h159zM846 1434l518 -1434h-285l-100 297h-569l-101 -297h-284l518 1434h303zM471 508h447l-224 661z" glyph-name="Abreve" horiz-adv-x="1388" unicode="Ă"/><glyph d="M852 1489q0 -137 -89 -226t-224 -89q-137 0 -227.5 89t-90.5 226h160q0 -70 45 -117t113 -47q66 0 109.5 47t43.5 117h160zM571 1075q213 0 325 -103.5t112 -301.5v-670h-236l-20 143q-94 -164 -326 -163q-170 0 -269.5 83.5t-99.5 227.5q0 346 684 346v27 q0 111 -45 160.5t-143 49.5q-86 0 -141.5 -38.5t-61.5 -106.5h-252q10 156 139 251t334 95zM743 395v76q-422 0 -421 -172q0 -59 47 -94t127 -35q115 0 181 61.5t66 163.5z" glyph-name="abreve" horiz-adv-x="1105" unicode="ă"/><glyph d="M846 1434l518 -1434h-16q-55 -31 -92 -86t-37 -115q0 -68 51 -93t127 -17v-152q-35 -8 -86 -8q-115 0 -186.5 55.5t-71.5 153.5q0 84 48 153.5t124 108.5h-146l-100 297h-569l-101 -297h-284l518 1434h303zM471 508h447l-224 661z" glyph-name="Aogonek" horiz-adv-x="1388" unicode="Ą"/><glyph d="M571 1075q213 0 325 -103.5t112 -301.5v-670h-17q-55 -31 -92 -86t-37 -115q0 -68 51.5 -93t126.5 -17v-152q-35 -8 -86 -8q-115 0 -186.5 55.5t-71.5 153.5q0 84 48.5 153.5t123.5 108.5h-96l-20 143q-94 -164 -326 -163q-170 0 -269.5 83.5t-99.5 227.5q0 346 684 346 v27q0 111 -45 160.5t-143 49.5q-86 0 -141.5 -38.5t-61.5 -106.5h-252q10 156 139 251t334 95zM743 395v76q-422 0 -421 -172q0 -59 47 -94t127 -35q115 0 181 61.5t66 163.5z" glyph-name="aogonek" horiz-adv-x="1105" unicode="ą"/><glyph d="M772 1892h242l-199 -315h-178zM764 211q143 0 240.5 74.5t121.5 206.5h293q-41 -238 -217 -376.5t-440 -138.5q-307 0 -496.5 204t-189.5 536t189.5 535.5t496.5 203.5q262 0 443 -143.5t206 -370.5h-289q-25 125 -124 203t-236 78q-178 0 -287.5 -138.5t-109.5 -365.5 q0 -229 109.5 -368.5t289.5 -139.5z" glyph-name="Cacute" horiz-adv-x="1488" unicode="Ć"/><glyph d="M594 1503h242l-199 -315h-178zM600 188q88 0 146.5 50.5t74.5 138.5h262q-20 -182 -153 -291t-340 -109q-238 0 -385.5 152t-147.5 397q0 244 147.5 396.5t385.5 152.5q207 0 340 -108.5t153 -290.5h-262q-16 88 -74.5 138t-146.5 50q-127 0 -201.5 -91t-74.5 -246.5 t74.5 -247t201.5 -91.5z" glyph-name="cacute" horiz-adv-x="1138" unicode="ć"/><glyph d="M594 1556h-215l254 295h196l254 -295h-215l-137 177zM764 211q143 0 240.5 74.5t121.5 206.5h293q-41 -238 -217 -376.5t-440 -138.5q-307 0 -496.5 204t-189.5 536t189.5 535.5t496.5 203.5q262 0 443 -143.5t206 -370.5h-289q-25 125 -124 203t-236 78 q-178 0 -287.5 -138.5t-109.5 -365.5q0 -229 109.5 -368.5t289.5 -139.5z" glyph-name="Ccircumflex" horiz-adv-x="1488" unicode="Ĉ"/><glyph d="M416 1167h-215l254 295h196l254 -295h-215l-137 176zM600 188q88 0 146.5 50.5t74.5 138.5h262q-20 -182 -153 -291t-340 -109q-238 0 -385.5 152t-147.5 397q0 244 147.5 396.5t385.5 152.5q207 0 340 -108.5t153 -290.5h-262q-16 88 -74.5 138t-146.5 50 q-127 0 -201.5 -91t-74.5 -246.5t74.5 -247t201.5 -91.5z" glyph-name="ccircumflex" horiz-adv-x="1138" unicode="ĉ"/><glyph d="M598 1697.5q0 55.5 39 93.5t96.5 38t95 -38t37.5 -93.5t-37.5 -93t-95 -37.5t-96.5 37.5t-39 93zM764 211q143 0 240.5 74.5t121.5 206.5h293q-41 -238 -217 -376.5t-440 -138.5q-307 0 -496.5 204t-189.5 536t189.5 535.5t496.5 203.5q262 0 443 -143.5t206 -370.5h-289 q-25 125 -124 203t-236 78q-178 0 -287.5 -138.5t-109.5 -365.5q0 -229 109.5 -368.5t289.5 -139.5z" glyph-name="Cdotaccent" horiz-adv-x="1488" unicode="Ċ"/><glyph d="M420 1308.5q0 55.5 39 93.5t96 38t95 -38t38 -93.5t-38 -93t-95 -37.5t-96 37.5t-39 93zM600 188q88 0 146.5 50.5t74.5 138.5h262q-20 -182 -153 -291t-340 -109q-238 0 -385.5 152t-147.5 397q0 244 147.5 396.5t385.5 152.5q207 0 340 -108.5t153 -290.5h-262 q-16 88 -74.5 138t-146.5 50q-127 0 -201.5 -91t-74.5 -246.5t74.5 -247t201.5 -91.5z" glyph-name="cdotaccent" horiz-adv-x="1138" unicode="ċ"/><glyph d="M381 1872h215l137 -176l137 176h215l-254 -295h-196zM764 211q143 0 240.5 74.5t121.5 206.5h293q-41 -238 -217 -376.5t-440 -138.5q-307 0 -496.5 204t-189.5 536t189.5 535.5t496.5 203.5q262 0 443 -143.5t206 -370.5h-289q-25 125 -124 203t-236 78 q-178 0 -287.5 -138.5t-109.5 -365.5q0 -229 109.5 -368.5t289.5 -139.5z" glyph-name="Ccaron" horiz-adv-x="1488" unicode="Č"/><glyph d="M203 1483h215l137 -176l137 176h215l-254 -295h-196zM600 188q88 0 146.5 50.5t74.5 138.5h262q-20 -182 -153 -291t-340 -109q-238 0 -385.5 152t-147.5 397q0 244 147.5 396.5t385.5 152.5q207 0 340 -108.5t153 -290.5h-262q-16 88 -74.5 138t-146.5 50 q-127 0 -201.5 -91t-74.5 -246.5t74.5 -247t201.5 -91.5z" glyph-name="ccaron" horiz-adv-x="1138" unicode="č"/><glyph d="M291 1872h215l137 -176l137 176h215l-254 -295h-196zM633 1434q356 0 541.5 -183.5t185.5 -533.5q0 -338 -191.5 -527.5t-535.5 -189.5h-510v1434h510zM610 227q219 0 338 126t119 366q0 248 -112.5 367.5t-344.5 119.5h-204v-979h204z" glyph-name="Dcaron" horiz-adv-x="1433" unicode="Ď"/><glyph d="M1124 0h-239l-21 166q-115 -188 -348 -189q-201 0 -327 152t-126 397q0 244 127 396.5t326 152.5q109 0 200 -48t144 -134v561h264v-1454zM1335 1434h258l-157 -533h-189zM868 526.5q0 153.5 -73.5 245.5t-194.5 92t-193.5 -92t-72.5 -245.5t72.5 -246t193.5 -92.5 t194.5 92.5t73.5 246z" glyph-name="dcaron" horiz-adv-x="1611" unicode="ď"/><glyph d="M715 1434q356 0 541.5 -183.5t185.5 -533.5q0 -338 -191.5 -527.5t-535.5 -189.5h-510v586h-168v229h168v619h510zM737 586h-250v-359h205q219 0 338 126t119 366q0 248 -112.5 367.5t-344.5 119.5h-205v-391h250v-229z" glyph-name="Dcroat" horiz-adv-x="1515" unicode="Đ"/><glyph d="M1124 0h-239l-21 166q-115 -188 -348 -189q-201 0 -327 152t-126 397q0 244 127 396.5t326 152.5q109 0 200 -48t144 -134v283h-244v155h244v123h264v-123h103v-155h-103v-1176zM868 526.5q0 153.5 -73.5 245.5t-194.5 92t-193.5 -92t-72.5 -245.5t72.5 -246t193.5 -92.5 t194.5 92.5t73.5 246z" glyph-name="dcroat" horiz-adv-x="1255" unicode="đ"/><glyph d="M266 1577v188h672v-188h-672zM1081 1206h-675v-370h593v-222h-593v-387h675v-227h-958v1434h958v-228z" glyph-name="Emacron" horiz-adv-x="1177" unicode="Ē"/><glyph d="M225 1188v188h672v-188h-672zM1100 520v-51h-774q2 -129 73.5 -209t194.5 -80q170 0 227 144h269q-37 -160 -175.5 -253.5t-322.5 -93.5q-244 0 -389.5 153t-145.5 394.5t142.5 396t382.5 154.5q246 0 382 -151.5t136 -403.5zM330 637h504q-12 113 -76 176.5t-172 63.5 q-106 0 -175 -65.5t-81 -174.5z" glyph-name="emacron" horiz-adv-x="1157" unicode="ē"/><glyph d="M918 1878q0 -137 -89.5 -226t-224.5 -89q-137 0 -227 89t-90 226h159q0 -70 45.5 -117t112.5 -47q66 0 110 47t44 117h160zM1081 1206h-675v-370h593v-222h-593v-387h675v-227h-958v1434h958v-228z" glyph-name="Ebreve" horiz-adv-x="1177" unicode="Ĕ"/><glyph d="M877 1489q0 -137 -89.5 -226t-224.5 -89q-137 0 -227 89t-90 226h160q0 -70 45 -117t112 -47q66 0 110 47t44 117h160zM1100 520v-51h-774q2 -129 73.5 -209t194.5 -80q170 0 227 144h269q-37 -160 -175.5 -253.5t-322.5 -93.5q-244 0 -389.5 153t-145.5 394.5t142.5 396 t382.5 154.5q246 0 382 -151.5t136 -403.5zM330 637h504q-12 113 -76 176.5t-172 63.5q-106 0 -175 -65.5t-81 -174.5z" glyph-name="ebreve" horiz-adv-x="1157" unicode="ĕ"/><glyph d="M467 1697.5q0 55.5 39 93.5t96 38t95 -38t38 -93.5t-38 -93t-95 -37.5t-96 37.5t-39 93zM1081 1206h-675v-370h593v-222h-593v-387h675v-227h-958v1434h958v-228z" glyph-name="Edotaccent" horiz-adv-x="1177" unicode="Ė"/><glyph d="M428 1308.5q0 55.5 39 93.5t96.5 38t95 -38t37.5 -93.5t-37.5 -93t-95 -37.5t-96.5 37.5t-39 93zM1100 520v-51h-774q2 -129 73.5 -209t194.5 -80q170 0 227 144h269q-37 -160 -175.5 -253.5t-322.5 -93.5q-244 0 -389.5 153t-145.5 394.5t142.5 396t382.5 154.5 q246 0 382 -151.5t136 -403.5zM330 637h504q-12 113 -76 176.5t-172 63.5q-106 0 -175 -65.5t-81 -174.5z" glyph-name="edotaccent" horiz-adv-x="1157" unicode="ė"/><glyph d="M1081 1206h-675v-370h593v-222h-593v-387h675v-227h-16q-55 -31 -92 -86t-37 -115q0 -68 51 -93t127 -17v-152q-35 -8 -86 -8q-115 0 -186.5 55.5t-71.5 153.5q0 84 48 153.5t124 108.5h-819v1434h958v-228z" glyph-name="Eogonek" horiz-adv-x="1177" unicode="Ę"/><glyph d="M1100 520v-51h-774q2 -129 73.5 -209t194.5 -80q170 0 227 144h269q-53 -219 -277 -306q-92 -74 -92 -176q0 -68 51 -93t127 -17v-152q-35 -8 -86 -8q-115 0 -186.5 55.5t-71.5 153.5q0 113 86 199q-8 0 -24.5 -1.5t-24.5 -1.5q-244 0 -389.5 153t-145.5 394.5t142.5 396 t382.5 154.5q246 0 382 -151.5t136 -403.5zM330 637h504q-12 113 -76 176.5t-172 63.5q-106 0 -175 -65.5t-81 -174.5z" glyph-name="eogonek" horiz-adv-x="1157" unicode="ę"/><glyph d="M250 1872h215l137 -176l137 176h215l-254 -295h-196zM1081 1206h-675v-370h593v-222h-593v-387h675v-227h-958v1434h958v-228z" glyph-name="Ecaron" horiz-adv-x="1177" unicode="Ě"/><glyph d="M211 1483h215l137 -176l137 176h215l-253 -295h-197zM1100 520v-51h-774q2 -129 73.5 -209t194.5 -80q170 0 227 144h269q-37 -160 -175.5 -253.5t-322.5 -93.5q-244 0 -389.5 153t-145.5 394.5t142.5 396t382.5 154.5q246 0 382 -151.5t136 -403.5zM330 637h504 q-12 113 -76 176.5t-172 63.5q-106 0 -175 -65.5t-81 -174.5z" glyph-name="ecaron" horiz-adv-x="1157" unicode="ě"/><glyph d="M635 1556h-215l254 295h196l254 -295h-215l-137 177zM1470 776q4 -90 5 -143q0 -309 -174.5 -482.5t-483.5 -173.5q-330 0 -522.5 199t-192.5 541q0 338 189.5 538.5t507.5 200.5q256 0 437 -130t220 -345h-287q-35 115 -132 182.5t-230 67.5q-195 0 -306.5 -135 t-111.5 -371q0 -240 117 -381t315 -141q168 0 271.5 94t107.5 248v28h-360v203h630z" glyph-name="Gcircumflex" horiz-adv-x="1554" unicode="Ĝ"/><glyph d="M426 1167h-215l254 295h197l253 -295h-215l-137 176zM582 -188q123 0 190.5 66.5t67.5 199.5v145q-111 -176 -330 -176q-201 0 -327 142.5t-126 372t125 371.5t328 142q104 0 193.5 -47t140.5 -129l18 154h242v-955q0 -240 -142.5 -364.5t-388.5 -124.5 q-201 0 -337 100.5t-154 259.5h262q16 -74 79 -115.5t159 -41.5zM850 559q0 139 -72.5 225t-191.5 86t-190.5 -85t-71.5 -226q0 -139 71.5 -225t190.5 -86t191.5 86t72.5 225z" glyph-name="gcircumflex" horiz-adv-x="1204" unicode="ĝ"/><glyph d="M1087 1878q0 -137 -89 -226t-224 -89q-137 0 -227 89t-90 226h159q0 -70 45.5 -117t112.5 -47q66 0 110 47t44 117h159zM1470 776q4 -90 5 -143q0 -309 -174.5 -482.5t-483.5 -173.5q-330 0 -522.5 199t-192.5 541q0 338 189.5 538.5t507.5 200.5q256 0 437 -130 t220 -345h-287q-35 115 -132 182.5t-230 67.5q-195 0 -306.5 -135t-111.5 -371q0 -240 117 -381t315 -141q168 0 271.5 94t107.5 248v28h-360v203h630z" glyph-name="Gbreve" horiz-adv-x="1554" unicode="Ğ"/><glyph d="M879 1489q0 -137 -89.5 -226t-224.5 -89q-137 0 -227 89t-90 226h160q0 -70 45 -117t112 -47q66 0 110 47t44 117h160zM582 -188q123 0 190.5 66.5t67.5 199.5v145q-111 -176 -330 -176q-201 0 -327 142.5t-126 372t125 371.5t328 142q104 0 193.5 -47t140.5 -129l18 154 h242v-955q0 -240 -142.5 -364.5t-388.5 -124.5q-201 0 -337 100.5t-154 259.5h262q16 -74 79 -115.5t159 -41.5zM850 559q0 139 -72.5 225t-191.5 86t-190.5 -85t-71.5 -226q0 -139 71.5 -225t190.5 -86t191.5 86t72.5 225z" glyph-name="gbreve" horiz-adv-x="1204" unicode="ğ"/><glyph d="M639 1697.5q0 55.5 39 93.5t96 38t95 -38t38 -93.5t-38 -93t-95 -37.5t-96 37.5t-39 93zM1470 776q4 -90 5 -143q0 -309 -174.5 -482.5t-483.5 -173.5q-330 0 -522.5 199t-192.5 541q0 338 189.5 538.5t507.5 200.5q256 0 437 -130t220 -345h-287q-35 115 -132 182.5 t-230 67.5q-195 0 -306.5 -135t-111.5 -371q0 -240 117 -381t315 -141q168 0 271.5 94t107.5 248v28h-360v203h630z" glyph-name="Gdotaccent" horiz-adv-x="1554" unicode="Ġ"/><glyph d="M430 1308.5q0 55.5 39 93.5t96.5 38t95 -38t37.5 -93.5t-37.5 -93t-95 -37.5t-96.5 37.5t-39 93zM582 -188q123 0 190.5 66.5t67.5 199.5v145q-111 -176 -330 -176q-201 0 -327 142.5t-126 372t125 371.5t328 142q104 0 193.5 -47t140.5 -129l18 154h242v-955 q0 -240 -142.5 -364.5t-388.5 -124.5q-201 0 -337 100.5t-154 259.5h262q16 -74 79 -115.5t159 -41.5zM850 559q0 139 -72.5 225t-191.5 86t-190.5 -85t-71.5 -226q0 -139 71.5 -225t190.5 -86t191.5 86t72.5 225z" glyph-name="gdotaccent" horiz-adv-x="1204" unicode="ġ"/><glyph d="M1470 776q4 -90 5 -143q0 -309 -174.5 -482.5t-483.5 -173.5q-330 0 -522.5 199t-192.5 541q0 338 189.5 538.5t507.5 200.5q256 0 437 -130t220 -345h-287q-35 115 -132 182.5t-230 67.5q-195 0 -306.5 -135t-111.5 -371q0 -240 117 -381t315 -141q168 0 271.5 94 t107.5 248v28h-360v203h630zM637 -143h258l-135 -312h-189z" glyph-name="Gcommaaccent" horiz-adv-x="1554" unicode="Ģ"/><glyph d="M690 1188h-258l135 311h189zM586 -188q123 0 190.5 66.5t67.5 199.5v145q-111 -176 -330 -176q-201 0 -327 142.5t-126 372t125 371.5t328 142q104 0 193.5 -47t140.5 -129l18 154h242v-955q0 -240 -142.5 -364.5t-387.5 -124.5q-201 0 -337.5 100.5t-154.5 259.5h262 q16 -74 79 -115.5t159 -41.5zM854 559q0 139 -72.5 225t-191.5 86t-190.5 -85t-71.5 -226q0 -139 71.5 -225t190.5 -86t191.5 86t72.5 225z" glyph-name="gcommaaccent" horiz-adv-x="1210" unicode="ģ"/><glyph d="M604 1556h-215l254 295h197l254 -295h-215l-138 177zM1075 1434h283v-1434h-283v610h-669v-610h-283v1434h283v-594h669v594z" glyph-name="Hcircumflex" horiz-adv-x="1480" unicode="Ĥ"/><glyph d="M76 1556h-215l254 295h196l254 -295h-215l-137 177zM698 1075q162 0 256.5 -103.5t94.5 -281.5v-690h-265v623q0 231 -196 231q-102 0 -158.5 -71.5t-56.5 -202.5v-580h-267v1454h267v-555q106 176 325 176z" glyph-name="hcircumflex" horiz-adv-x="1144" unicode="ĥ"/><glyph d="M1130 1434h285v-230h148v-180h-148v-1024h-285v610h-667v-610h-283v1024h-147v180h147v230h283v-230h667v230zM463 840h667v184h-667v-184z" glyph-name="Hbar" horiz-adv-x="1593" unicode="Ħ"/><glyph d="M735 1075q162 0 256 -103.5t94 -281.5v-690h-264v623q0 231 -196 231q-102 0 -158.5 -71.5t-56.5 -202.5v-580h-267v1159h-114v172h114v123h267v-123h196v-172h-196v-260q106 176 325 176z" glyph-name="hbar" horiz-adv-x="1181" unicode="ħ"/><glyph d="M-49 1577q-2 102 47 159.5t139 57.5q76 0 145.5 -52t94 -52t42 21.5t15.5 55.5h146q0 -104 -47.5 -160.5t-137.5 -56.5q-80 0 -149.5 52.5t-93.5 52.5q-27 0 -42.5 -20.5t-13.5 -57.5h-145zM406 0h-283v1434h283v-1434z" glyph-name="Itilde" horiz-adv-x="528" unicode="Ĩ"/><glyph d="M-92 1188q-2 102 47 159.5t139 57.5q76 0 145.5 -52.5t94 -52.5t42 21.5t15.5 56.5h146q0 -104 -47.5 -160.5t-137.5 -56.5q-59 0 -106 25.5t-80 52.5t-57 27q-27 0 -42.5 -20.5t-13.5 -57.5h-145zM373 0h-267v1053h267v-1053z" glyph-name="itilde" horiz-adv-x="479" unicode="ĩ"/><glyph d="M-72 1577v188h672v-188h-672zM406 0h-283v1434h283v-1434z" glyph-name="Imacron" horiz-adv-x="528" unicode="Ī"/><glyph d="M-113 1188v188h672v-188h-672zM373 0h-267v1053h267v-1053z" glyph-name="imacron" horiz-adv-x="479" unicode="ī"/><glyph d="M406 0h-15q-55 -31 -92 -86t-37 -115q0 -68 51.5 -93t126.5 -17v-152q-35 -8 -86 -8q-115 0 -186.5 55.5t-71.5 153.5q0 84 48.5 153.5t123.5 108.5h-145v1434h283v-1434z" glyph-name="Iogonek" horiz-adv-x="528" unicode="Į"/><glyph d="M243.5 1198q-65.5 0 -111.5 44t-46 110q0 63 46 107t111.5 44t111.5 -44t46 -107q0 -66 -46 -110t-111.5 -44zM375 0h-17q-55 -31 -92 -86t-37 -115q0 -68 51.5 -93t127.5 -17v-152q-35 -8 -86 -8q-115 0 -187 55.5t-72 153.5q0 84 48.5 153.5t124.5 108.5h-127v1053h266 v-1053z" glyph-name="iogonek" horiz-adv-x="487" unicode="į"/><glyph d="M131 1697.5q0 55.5 39 93.5t96.5 38t95 -38t37.5 -93.5t-37.5 -93t-95 -37.5t-96.5 37.5t-39 93zM406 0h-283v1434h283v-1434z" glyph-name="Idotaccent" horiz-adv-x="528" unicode="İ"/><glyph d="M373 0h-267v1053h267v-1053z" glyph-name="dotlessi" horiz-adv-x="479" unicode="ı"/><glyph d="M690 1556h-215l254 295h197l254 -295h-215l-138 177zM694 1434h283v-1004q0 -211 -124 -332t-341 -121q-213 0 -342 115t-137 314h278q2 -94 53.5 -146.5t141.5 -52.5q188 0 188 221v1006z" glyph-name="Jcircumflex" horiz-adv-x="1099" unicode="Ĵ"/><glyph d="M117 1167h-215l254 295h196l254 -295h-215l-137 176zM129 1053h264v-1063q0 -184 -102.5 -271.5t-317.5 -87.5v205q156 0 156 152v1065z" glyph-name="jcircumflex" horiz-adv-x="495" unicode="ĵ"/><glyph d="M745 788l580 -788h-344l-432 586l-143 -170v-416h-283v1434h283v-652l534 652h336zM547 -143h258l-135 -312h-189z" glyph-name="Kcommaaccent" horiz-adv-x="1339" unicode="Ķ"/><glyph d="M647 596l440 -596h-313l-317 434l-84 -84v-350h-267v1454h267v-829l391 428h305zM442 -143h258l-135 -312h-188z" glyph-name="kcommaaccent" horiz-adv-x="1083" unicode="ķ"/><glyph d="M664 596l440 -596h-313l-318 434l-84 -84v-350h-266v1053h266v-428l391 428h305z" glyph-name="kgreenlandic" horiz-adv-x="1118" unicode="ĸ"/><glyph d="M307 1892h242l-199 -315h-178zM406 227h641v-227h-924v1434h283v-1207z" glyph-name="Lacute" horiz-adv-x="1105" unicode="Ĺ"/><glyph d="M264 1892h242l-199 -315h-178zM373 0h-267v1454h267v-1454z" glyph-name="lacute" horiz-adv-x="479" unicode="ĺ"/><glyph d="M406 227h641v-227h-924v1434h283v-1207zM457 -143h258l-135 -312h-189z" glyph-name="Lcommaaccent" horiz-adv-x="1105" unicode="Ļ"/><glyph d="M373 0h-267v1454h267v-1454zM102 -143h258l-135 -312h-188z" glyph-name="lcommaaccent" horiz-adv-x="479" unicode="ļ"/><glyph d="M406 227h641v-227h-924v1434h283v-1207zM612 1434h258l-155 -533h-189z" glyph-name="Lcaron" horiz-adv-x="1107" unicode="Ľ"/><glyph d="M373 0h-267v1454h267v-1454zM582 1434h258l-156 -533h-188z" glyph-name="lcaron" horiz-adv-x="858" unicode="ľ"/><glyph d="M406 227h641v-227h-924v1434h283v-1207zM553 737q0 63 43 105.5t108.5 42.5t108.5 -42t43 -106q0 -61 -44 -103t-107.5 -42t-107.5 42t-44 103z" glyph-name="Ldot" horiz-adv-x="1101" unicode="Ŀ"/><glyph d="M373 0h-267v1454h267v-1454zM520 705q0 63 43 105t108.5 42t108.5 -42t43 -105q0 -61 -44 -103.5t-107.5 -42.5t-107.5 42.5t-44 103.5z" glyph-name="ldot" horiz-adv-x="874" unicode="ŀ"/><glyph d="M506 709l-103 -50v-432h641v-227h-923v520l-76 -37v224l76 36v691h282v-553l103 49v-221z" glyph-name="Lslash" horiz-adv-x="1105" unicode="Ł"/><glyph d="M733 797l-117 -66v-731h-266v584l-104 -60v230l104 57v643h266v-493l117 65v-229z" glyph-name="lslash" horiz-adv-x="966" unicode="ł"/><glyph d="M768 1892h242l-199 -315h-178zM1055 1434h276v-1434h-301l-633 987v-987h-274v1434h299l633 -990v990z" glyph-name="Nacute" horiz-adv-x="1454" unicode="Ń"/><glyph d="M598 1503h242l-199 -315h-178zM690 1075q164 0 259 -102.5t95 -282.5v-690h-266v625q0 113 -50 172t-144 59q-102 0 -159.5 -72.5t-57.5 -203.5v-580h-265v1053h240l20 -154q113 176 328 176z" glyph-name="nacute" horiz-adv-x="1140" unicode="ń"/><glyph d="M1055 1434h276v-1434h-301l-633 987v-987h-274v1434h299l633 -990v990zM631 -143h258l-135 -312h-189z" glyph-name="Ncommaaccent" horiz-adv-x="1454" unicode="Ņ"/><glyph d="M690 1075q164 0 259 -102.5t95 -282.5v-690h-266v625q0 113 -50 172t-144 59q-102 0 -159.5 -72.5t-57.5 -203.5v-580h-265v1053h240l20 -154q113 176 328 176zM475 -143h258l-135 -312h-188z" glyph-name="ncommaaccent" horiz-adv-x="1140" unicode="ņ"/><glyph d="M375 1872h215l137 -176l137 176h215l-254 -295h-196zM1055 1434h276v-1434h-301l-633 987v-987h-274v1434h299l633 -990v990z" glyph-name="Ncaron" horiz-adv-x="1454" unicode="Ň"/><glyph d="M205 1483h215l137 -176l137 176h215l-254 -295h-196zM690 1075q164 0 259 -102.5t95 -282.5v-690h-266v625q0 113 -50 172t-144 59q-102 0 -159.5 -72.5t-57.5 -203.5v-580h-265v1053h240l20 -154q113 176 328 176z" glyph-name="ncaron" horiz-adv-x="1140" unicode="ň"/><glyph d="M440 1577v188h672v-188h-672zM792.5 1456q319.5 0 517 -204.5t197.5 -534.5t-197.5 -535t-517 -205t-518 205t-198.5 535t198.5 534.5t518 204.5zM792.5 211q194.5 0 310.5 137t116 368.5t-116 369t-310.5 137.5t-311 -137.5t-116.5 -369t116.5 -368.5t311 -137z" glyph-name="Omacron" horiz-adv-x="1585" unicode="Ō"/><glyph d="M242 1188v188h671v-188h-671zM596 1075q238 0 386 -152.5t148 -396t-148 -396.5t-386 -153q-242 0 -390.5 153t-148.5 396.5t148.5 396t390.5 152.5zM594 188q121 0 194.5 92.5t73.5 246t-73.5 245.5t-194.5 92q-123 0 -196.5 -91t-73.5 -247q0 -154 73.5 -246t196.5 -92 z" glyph-name="omacron" horiz-adv-x="1185" unicode="ō"/><glyph d="M1092 1878q0 -137 -89.5 -226t-224.5 -89q-137 0 -227 89t-90 226h160q0 -70 45 -117t112 -47q66 0 110 47t44 117h160zM792.5 1456q319.5 0 517 -204.5t197.5 -534.5t-197.5 -535t-517 -205t-518 205t-198.5 535t198.5 534.5t518 204.5zM792.5 211q194.5 0 310.5 137 t116 368.5t-116 369t-310.5 137.5t-311 -137.5t-116.5 -369t116.5 -368.5t311 -137z" glyph-name="Obreve" horiz-adv-x="1585" unicode="Ŏ"/><glyph d="M893 1489q0 -137 -89 -226t-224 -89q-137 0 -227.5 89t-90.5 226h160q0 -70 45 -117t113 -47q66 0 109.5 47t43.5 117h160zM596 1075q238 0 386 -152.5t148 -396t-148 -396.5t-386 -153q-242 0 -390.5 153t-148.5 396.5t148.5 396t390.5 152.5zM594 188q121 0 194.5 92.5 t73.5 246t-73.5 245.5t-194.5 92q-123 0 -196.5 -91t-73.5 -247q0 -154 73.5 -246t196.5 -92z" glyph-name="obreve" horiz-adv-x="1185" unicode="ŏ"/><glyph d="M963 1892h235l-162 -315h-190zM590 1892h229l-119 -315h-180zM792.5 1456q319.5 0 517 -204.5t197.5 -534.5t-197.5 -535t-517 -205t-518 205t-198.5 535t198.5 534.5t518 204.5zM792.5 211q194.5 0 310.5 137t116 368.5t-116 369t-310.5 137.5t-311 -137.5t-116.5 -369 t116.5 -368.5t311 -137z" glyph-name="Ohungarumlaut" horiz-adv-x="1585" unicode="Ő"/><glyph d="M764 1503h235l-161 -315h-191zM391 1503h230l-119 -315h-180zM596 1075q238 0 386 -152.5t148 -396t-148 -396.5t-386 -153q-242 0 -390.5 153t-148.5 396.5t148.5 396t390.5 152.5zM594 188q121 0 194.5 92.5t73.5 246t-73.5 245.5t-194.5 92q-123 0 -196.5 -91 t-73.5 -247q0 -154 73.5 -246t196.5 -92z" glyph-name="ohungarumlaut" horiz-adv-x="1185" unicode="ő"/><glyph d="M776 1456q248 0 408 -137v115h958v-228h-674v-370h592v-222h-592v-387h674v-227h-958v115q-160 -137 -408 -138q-311 0 -504.5 205t-193.5 535t193.5 534.5t504.5 204.5zM776.5 211q186.5 0 297 137t110.5 368.5t-110.5 369t-297 137.5t-297 -137.5t-110.5 -369 t110.5 -368.5t297 -137z" glyph-name="OE" horiz-adv-x="2240" unicode="Œ"/><glyph d="M600 1075q264 0 401 -188q129 188 392 188q244 0 381 -151.5t137 -403.5v-51h-774q2 -129 73.5 -209t194.5 -80q168 0 227 144h266q-37 -160 -175 -253.5t-322 -93.5q-268 0 -400 191q-135 -190 -401 -191q-240 0 -389.5 153t-149.5 396.5t149.5 396t389.5 152.5z M1141 637h504q-12 115 -77 177.5t-173 62.5q-104 0 -173 -65.5t-81 -174.5zM598 188q123 0 195.5 92.5t72.5 245.5q0 156 -72.5 247t-195.5 91t-196.5 -91t-73.5 -247q0 -154 73.5 -246t196.5 -92z" glyph-name="oe" horiz-adv-x="1972" unicode="œ"/><glyph d="M662 1892h241l-198 -315h-179zM123 0v1434h582q217 0 352 -131.5t135 -339.5q0 -145 -69.5 -255t-194.5 -163l305 -545h-313l-254 496h-260v-496h-283zM653 723q113 0 180.5 66.5t67.5 175t-67.5 175t-180.5 66.5h-247v-483h247z" glyph-name="Racute" horiz-adv-x="1267" unicode="Ŕ"/><glyph d="M426 1503h242l-199 -315h-178zM696 1063v-238q-35 10 -82 11q-119 0 -184 -82t-65 -232v-522h-267v1053h242l20 -156q35 80 102.5 128t147.5 48q45 0 86 -10z" glyph-name="racute" horiz-adv-x="720" unicode="ŕ"/><glyph d="M123 0v1434h582q217 0 352 -131.5t135 -339.5q0 -145 -69.5 -255t-194.5 -163l305 -545h-313l-254 496h-260v-496h-283zM653 723q113 0 180.5 66.5t67.5 175t-67.5 175t-180.5 66.5h-247v-483h247zM532 -143h259l-136 -312h-188z" glyph-name="Rcommaaccent" horiz-adv-x="1267" unicode="Ŗ"/><glyph d="M696 1063v-238q-35 10 -82 11q-119 0 -184 -82t-65 -232v-522h-267v1053h242l20 -156q35 80 102.5 128t147.5 48q45 0 86 -10zM96 -143h258l-135 -312h-188z" glyph-name="rcommaaccent" horiz-adv-x="720" unicode="ŗ"/><glyph d="M268 1872h215l138 -176l137 176h215l-254 -295h-197zM123 0v1434h582q217 0 352 -131.5t135 -339.5q0 -145 -69.5 -255t-194.5 -163l305 -545h-313l-254 496h-260v-496h-283zM653 723q113 0 180.5 66.5t67.5 175t-67.5 175t-180.5 66.5h-247v-483h247z" glyph-name="Rcaron" horiz-adv-x="1267" unicode="Ř"/><glyph d="M33 1483h215l137 -176l137 176h215l-254 -295h-196zM696 1063v-238q-35 10 -82 11q-119 0 -184 -82t-65 -232v-522h-267v1053h242l20 -156q35 80 102.5 128t147.5 48q45 0 86 -10z" glyph-name="rcaron" horiz-adv-x="720" unicode="ř"/><glyph d="M659 1892h242l-199 -315h-178zM379 1049q0 -72 64.5 -118t215.5 -79l93 -21q246 -55 349 -148t103 -263q0 -199 -151.5 -321t-405.5 -122q-252 0 -409.5 124t-171.5 337h278q10 -106 96 -171.5t213 -65.5q119 0 195 56t76 142q0 76 -62.5 121t-212.5 80l-84 18 q-240 51 -351.5 148.5t-111.5 255.5q0 193 146.5 313.5t380.5 120.5q225 0 372.5 -116.5t163.5 -307.5h-270q-10 92 -85 148.5t-187 56.5q-106 0 -175 -52t-69 -136z" glyph-name="Sacute" horiz-adv-x="1269" unicode="Ś"/><glyph d="M530 1503h242l-199 -315h-178zM336 762q0 -45 44 -74t148 -49l70 -14q193 -39 278 -110t85 -191q0 -162 -119 -254.5t-326 -92.5q-201 0 -324.5 94.5t-138.5 254.5h260q4 -68 61.5 -110t149.5 -42q76 0 124 36t48 91q0 47 -44 76t-158 53l-66 14q-180 37 -263 110 t-83 194q0 145 115.5 236t302 91t302.5 -88t128 -237h-246q-8 61 -57 97t-127 36q-72 0 -118 -35t-46 -86z" glyph-name="sacute" horiz-adv-x="1013" unicode="ś"/><glyph d="M481 1556h-215l254 295h197l254 -295h-215l-138 177zM379 1049q0 -72 64.5 -118t215.5 -79l93 -21q246 -55 349 -148t103 -263q0 -199 -151.5 -321t-405.5 -122q-252 0 -409.5 124t-171.5 337h278q10 -106 96 -171.5t213 -65.5q119 0 195 56t76 142q0 76 -62.5 121 t-212.5 80l-84 18q-240 51 -351.5 148.5t-111.5 255.5q0 193 146.5 313.5t380.5 120.5q225 0 372.5 -116.5t163.5 -307.5h-270q-10 92 -85 148.5t-187 56.5q-106 0 -175 -52t-69 -136z" glyph-name="Scircumflex" horiz-adv-x="1269" unicode="Ŝ"/><glyph d="M354 1167h-215l254 295h197l254 -295h-215l-137 176zM336 762q0 -45 44 -74t148 -49l70 -14q193 -39 278 -110t85 -191q0 -162 -119 -254.5t-326 -92.5q-201 0 -324.5 94.5t-138.5 254.5h260q4 -68 61.5 -110t149.5 -42q76 0 124 36t48 91q0 47 -44 76t-158 53l-66 14 q-180 37 -263 110t-83 194q0 145 115.5 236t302 91t302.5 -88t128 -237h-246q-8 61 -57 97t-127 36q-72 0 -118 -35t-46 -86z" glyph-name="scircumflex" horiz-adv-x="1013" unicode="ŝ"/><glyph d="M379 1049q0 -72 64.5 -118t215.5 -79l93 -21q246 -55 349 -148t103 -263q0 -190 -139 -311t-377 -129l-14 -95q98 2 151.5 -46t53.5 -124q0 -88 -71 -137t-200 -49q-70 0 -114 14v129q43 -12 100 -12q121 0 121 55.5t-117 55.5q-37 0 -66 -7v95l19 125 q-213 23 -342 142.5t-143 311.5h278q10 -106 96 -171.5t213 -65.5q119 0 195 56t76 142q0 76 -62.5 121t-212.5 80l-84 18q-240 51 -351.5 148.5t-111.5 255.5q0 193 146.5 313.5t380.5 120.5q225 0 372.5 -116.5t163.5 -307.5h-270q-10 92 -85 148.5t-187 56.5 q-106 0 -175 -52t-69 -136z" glyph-name="Scedilla" horiz-adv-x="1269" unicode="Ş"/><glyph d="M336 762q0 -45 44 -74t148 -49l70 -14q193 -39 278 -110t85 -191q0 -152 -106.5 -243t-295.5 -101l-14 -95q98 2 151.5 -46t53.5 -124q0 -88 -71 -137t-200 -49q-70 0 -114 14v129q43 -12 100 -12q121 0 121 55.5t-117 55.5q-39 0 -66 -7v95l19 125q-162 23 -260.5 111.5 t-108.5 230.5h260q4 -68 61.5 -110t149.5 -42q76 0 124 36t48 91q0 47 -44 76t-158 53l-66 14q-180 37 -263 110t-83 194q0 145 115.5 236t302 91t302.5 -88t128 -237h-246q-8 61 -57 97t-127 36q-72 0 -118 -35t-46 -86z" glyph-name="scedilla" horiz-adv-x="1013" unicode="ş"/><glyph d="M266 1872h215l137 -176l138 176h215l-254 -295h-197zM379 1049q0 -72 64.5 -118t215.5 -79l93 -21q246 -55 349 -148t103 -263q0 -199 -151.5 -321t-405.5 -122q-252 0 -409.5 124t-171.5 337h278q10 -106 96 -171.5t213 -65.5q119 0 195 56t76 142q0 76 -62.5 121 t-212.5 80l-84 18q-240 51 -351.5 148.5t-111.5 255.5q0 193 146.5 313.5t380.5 120.5q225 0 372.5 -116.5t163.5 -307.5h-270q-10 92 -85 148.5t-187 56.5q-106 0 -175 -52t-69 -136z" glyph-name="Scaron" horiz-adv-x="1269" unicode="Š"/><glyph d="M139 1483h215l138 -176l137 176h215l-254 -295h-197zM336 762q0 -45 44 -74t148 -49l70 -14q193 -39 278 -110t85 -191q0 -162 -119 -254.5t-326 -92.5q-201 0 -324.5 94.5t-138.5 254.5h260q4 -68 61.5 -110t149.5 -42q76 0 124 36t48 91q0 47 -44 76t-158 53l-66 14 q-180 37 -263 110t-83 194q0 145 115.5 236t302 91t302.5 -88t128 -237h-246q-8 61 -57 97t-127 36q-72 0 -118 -35t-46 -86z" glyph-name="scaron" horiz-adv-x="1013" unicode="š"/><glyph d="M45 1434h1151v-228h-434v-1206h-86l-17 -115q98 2 151.5 -46t53.5 -124q0 -88 -70.5 -137t-199.5 -49q-70 0 -115 14v129q43 -12 101 -12q121 0 120.5 55.5t-116.5 55.5q-39 0 -66 -7v95l21 141h-60v1206h-434v228z" glyph-name="Tcommaaccent" horiz-adv-x="1241" unicode="Ţ"/><glyph d="M610 852h-194v-539q0 -63 29.5 -89.5t95.5 -26.5q57 0 82 8v-205q-4 0 -8.5 -2t-8.5 -2l-16 -111q98 2 151.5 -46t53.5 -124q0 -88 -71 -137t-200 -49q-70 0 -114 14v129q43 -12 100 -12q121 0 121 55.5t-117 55.5q-39 0 -65 -7v95l18 125q-166 2 -240.5 77.5 t-74.5 245.5v545h-132v201h132v254h258v-254h200v-201z" glyph-name="tcommaaccent" horiz-adv-x="686" unicode="ţ"/><glyph d="M254 1872h215l137 -176l137 176h215l-253 -295h-197zM45 1434h1151v-228h-434v-1206h-283v1206h-434v228z" glyph-name="Tcaron" horiz-adv-x="1241" unicode="Ť"/><glyph d="M809 1434h258l-156 -533h-188zM612 852h-194v-539q0 -63 29.5 -89.5t95.5 -26.5q57 0 82 8v-205q-76 -16 -144 -16q-172 0 -249.5 75.5t-77.5 247.5v545h-131v201h131v254h258v-254h200v-201z" glyph-name="tcaron" horiz-adv-x="1114" unicode="ť"/><glyph d="M53 1434h1151v-228h-434v-436h277v-188h-277v-582h-283v582h-276v188h276v436h-434v228z" glyph-name="Tbar" horiz-adv-x="1257" unicode="Ŧ"/><glyph d="M23 479v185h129v204h-129v185h129v254h260v-254h200v-185h-194v-204h194v-185h-194v-166q0 -63 29.5 -89.5t93.5 -26.5q61 0 82 8v-205q-72 -16 -142 -16q-174 0 -251.5 75.5t-77.5 247.5v172h-129z" glyph-name="tbar" horiz-adv-x="700" unicode="ŧ"/><glyph d="M399 1577q-2 102 47.5 159.5t139.5 57.5q76 0 145.5 -52t94 -52t42 21.5t15.5 55.5h145q0 -104 -47 -160.5t-137 -56.5q-59 0 -106.5 26t-80 52.5t-57.5 26.5q-27 0 -42 -20.5t-13 -57.5h-146zM1020 1434h283v-902q0 -252 -161 -403.5t-429.5 -151.5t-429 152t-160.5 403 v902h283v-893q0 -156 81.5 -245t225 -89t225.5 89t82 245v893z" glyph-name="Utilde" horiz-adv-x="1425" unicode="Ũ"/><glyph d="M238 1188q-2 102 47 159.5t139 57.5q76 0 145.5 -52.5t94 -52.5t42 21.5t15.5 56.5h145q0 -104 -47 -160.5t-137 -56.5q-80 0 -149.5 52.5t-94.5 52.5q-27 0 -42 -20.5t-13 -57.5h-145zM449 -23q-164 0 -258.5 102.5t-94.5 282.5v691h264v-623q0 -113 51.5 -172 t145.5 -59q102 0 159.5 72.5t57.5 203.5v578h264v-1053h-239l-21 154q-112 -177 -329 -177z" glyph-name="utilde" horiz-adv-x="1140" unicode="ũ"/><glyph d="M377 1577v188h672v-188h-672zM1020 1434h283v-902q0 -252 -161 -403.5t-429.5 -151.5t-429 152t-160.5 403v902h283v-893q0 -156 81.5 -245t225 -89t225.5 89t82 245v893z" glyph-name="Umacron" horiz-adv-x="1425" unicode="Ū"/><glyph d="M215 1188v188h672v-188h-672zM449 -23q-164 0 -258.5 102.5t-94.5 282.5v691h264v-623q0 -113 51.5 -172t145.5 -59q102 0 159.5 72.5t57.5 203.5v578h264v-1053h-239l-21 154q-112 -177 -329 -177z" glyph-name="umacron" horiz-adv-x="1140" unicode="ū"/><glyph d="M1028 1878q0 -137 -89 -226t-224 -89q-137 0 -227.5 89t-90.5 226h160q0 -70 45 -117t113 -47q66 0 109.5 47t43.5 117h160zM1020 1434h283v-902q0 -252 -161 -403.5t-429.5 -151.5t-429 152t-160.5 403v902h283v-893q0 -156 81.5 -245t225 -89t225.5 89t82 245v893z" glyph-name="Ubreve" horiz-adv-x="1425" unicode="Ŭ"/><glyph d="M866 1489q0 -137 -89 -226t-224 -89q-137 0 -227 89t-90 226h159q0 -70 45 -117t113 -47q66 0 110 47t44 117h159zM449 -23q-164 0 -258.5 102.5t-94.5 282.5v691h264v-623q0 -113 51.5 -172t145.5 -59q102 0 159.5 72.5t57.5 203.5v578h264v-1053h-239l-21 154 q-112 -177 -329 -177z" glyph-name="ubreve" horiz-adv-x="1140" unicode="ŭ"/><glyph d="M516 1739q0 82 56.5 136t140.5 54t140 -54t56 -136t-56 -137.5t-140 -55.5t-140.5 55.5t-56.5 137.5zM639 1739q0 -33 21.5 -54.5t52 -21.5t52 21.5t21.5 54.5q0 31 -21.5 52t-52 21t-52 -20t-21.5 -53zM1020 1434h283v-902q0 -252 -161 -403.5t-429.5 -151.5t-429 152 t-160.5 403v902h283v-893q0 -156 81.5 -245t225 -89t225.5 89t82 245v893z" glyph-name="Uring" horiz-adv-x="1425" unicode="Ů"/><glyph d="M354 1350q0 82 56.5 136t140.5 54t140.5 -54t56.5 -136t-56.5 -137.5t-140.5 -55.5t-140.5 55.5t-56.5 137.5zM477 1349.5q0 -32.5 21.5 -54t52.5 -21.5t52.5 21.5t21.5 54.5q0 31 -21.5 52t-52.5 21t-52.5 -20.5t-21.5 -53zM449 -23q-164 0 -258.5 102.5t-94.5 282.5 v691h264v-623q0 -113 51.5 -172t145.5 -59q102 0 159.5 72.5t57.5 203.5v578h264v-1053h-239l-21 154q-112 -177 -329 -177z" glyph-name="uring" horiz-adv-x="1140" unicode="ů"/><glyph d="M899 1892h236l-162 -315h-191zM526 1892h230l-119 -315h-180zM1020 1434h283v-902q0 -252 -161 -403.5t-429.5 -151.5t-429 152t-160.5 403v902h283v-893q0 -156 81.5 -245t225 -89t225.5 89t82 245v893z" glyph-name="Uhungarumlaut" horiz-adv-x="1425" unicode="Ű"/><glyph d="M737 1503h236l-162 -315h-190zM365 1503h229l-119 -315h-180zM449 -23q-164 0 -258.5 102.5t-94.5 282.5v691h264v-623q0 -113 51.5 -172t145.5 -59q102 0 159.5 72.5t57.5 203.5v578h264v-1053h-239l-21 154q-112 -177 -329 -177z" glyph-name="uhungarumlaut" horiz-adv-x="1140" unicode="ű"/><glyph d="M1020 1434h283v-902q0 -188 -93.5 -323t-257.5 -193q-102 -78 -102 -184q0 -68 51 -93.5t127 -17.5v-151q-35 -8 -86 -8q-115 0 -186.5 55t-71.5 154q0 119 98 211q-45 -4 -69 -5q-268 0 -429 152t-161 403v902h283v-893q0 -156 81.5 -245t225 -89t225.5 89t82 245v893z " glyph-name="Uogonek" horiz-adv-x="1425" unicode="Ų"/><glyph d="M449 -23q-164 0 -258.5 102.5t-94.5 282.5v691h264v-623q0 -113 51.5 -172t145.5 -59q102 0 159.5 72.5t57.5 203.5v578h264v-1053h-14q-55 -31 -92 -86t-37 -115q0 -68 51 -93t127 -17v-152q-35 -8 -86 -8q-115 0 -186.5 55.5t-71.5 153.5q0 84 48 153.5t124 108.5h-102 l-21 154q-112 -177 -329 -177z" glyph-name="uogonek" horiz-adv-x="1140" unicode="ų"/><glyph d="M821 1556h-215l254 295h197l254 -295h-215l-138 177zM1632 1434h277l-363 -1434h-289l-282 1008l-281 -1008h-288l-365 1434h278l254 -1076l285 1055h236l284 -1055z" glyph-name="Wcircumflex" horiz-adv-x="1951" unicode="Ŵ"/><glyph d="M651 1167h-215l254 295h197l254 -295h-215l-138 176zM20 1053h273l201 -738l213 738h198l211 -738l203 738h270l-325 -1053h-260l-199 670l-199 -670h-260z" glyph-name="wcircumflex" horiz-adv-x="1611" unicode="ŵ"/><glyph d="M512 1556h-215l254 295h197l253 -295h-215l-137 177zM1001 1434h304l-498 -820v-614h-283v614l-497 820h303l336 -600z" glyph-name="Ycircumflex" horiz-adv-x="1331" unicode="Ŷ"/><glyph d="M389 1167h-215l254 295h197l254 -295h-215l-138 176zM786 1053h281l-532 -1422h-279l168 412l-406 1010h281l254 -713z" glyph-name="ycircumflex" horiz-adv-x="1085" unicode="ŷ"/><glyph d="M295 1700q0 63 43 105t108 42q63 0 106.5 -42t43.5 -105q0 -61 -43 -103.5t-106.5 -42.5t-107.5 42.5t-44 103.5zM727 1700q0 63 43 105t107 42q66 0 108.5 -42t42.5 -105q0 -61 -44 -103.5t-107.5 -42.5t-106.5 42.5t-43 103.5zM1001 1434h304l-498 -820v-614h-283v614 l-497 820h303l336 -600z" glyph-name="Ydieresis" horiz-adv-x="1331" unicode="Ÿ"/><glyph d="M672 1892h241l-198 -315h-178zM457 227h747v-227h-1114v135l727 1071h-706v228h1073v-136z" glyph-name="Zacute" unicode="Ź"/><glyph d="M537 1503h241l-198 -315h-179zM430 215h520v-215h-874v133l520 705h-479v215h833v-133z" glyph-name="zacute" horiz-adv-x="1028" unicode="ź"/><glyph d="M496 1697.5q0 55.5 38.5 93.5t96 38t95.5 -38t38 -93.5t-38 -93t-95.5 -37.5t-96 37.5t-38.5 93zM457 227h747v-227h-1114v135l727 1071h-706v228h1073v-136z" glyph-name="Zdotaccent" unicode="Ż"/><glyph d="M362 1308.5q0 55.5 39 93.5t96.5 38t95.5 -38t38 -93.5t-38 -93t-95.5 -37.5t-96.5 37.5t-39 93zM430 215h520v-215h-874v133l520 705h-479v215h833v-133z" glyph-name="zdotaccent" horiz-adv-x="1028" unicode="ż"/><glyph d="M281 1872h215l137 -176l137 176h215l-254 -295h-196zM457 227h747v-227h-1114v135l727 1071h-706v228h1073v-136z" glyph-name="Zcaron" unicode="Ž"/><glyph d="M145 1483h215l138 -176l137 176h215l-254 -295h-197zM430 215h520v-215h-874v133l520 705h-479v215h833v-133z" glyph-name="zcaron" horiz-adv-x="1028" unicode="ž"/><glyph d="M375 1128v-1128h-258v1130q0 176 78.5 256t255.5 80q90 0 135 -12v-205q-57 8 -78 8q-133 0 -133 -129z" glyph-name="longs" horiz-adv-x="649" unicode="ſ"/><glyph d="M537 313q0 -176 -80 -256t-258 -80q-92 0 -138 13v205q49 -8 76 -9q133 0 133 129v537h-147v201h147v77q0 176 79 256t255 80q90 0 135 -12v-205q-49 8 -75 8q-133 0 -134 -129v-75h201v-201h-194v-539z" glyph-name="florin" horiz-adv-x="800" unicode="ƒ"/><glyph d="M379 1049q0 -72 64.5 -118t215.5 -79l93 -21q246 -55 349 -148t103 -263q0 -199 -151.5 -321t-405.5 -122q-252 0 -409.5 124t-171.5 337h278q10 -106 96 -171.5t213 -65.5q119 0 195 56t76 142q0 76 -62.5 121t-212.5 80l-84 18q-240 51 -351.5 148.5t-111.5 255.5 q0 193 146.5 313.5t380.5 120.5q225 0 372.5 -116.5t163.5 -307.5h-270q-10 92 -85 148.5t-187 56.5q-106 0 -175 -52t-69 -136zM483 -143h258l-135 -312h-188z" glyph-name="Scommaaccent" horiz-adv-x="1269" unicode="Ș"/><glyph d="M336 762q0 -45 44 -74t148 -49l70 -14q193 -39 278 -110t85 -191q0 -162 -119 -254.5t-326 -92.5q-201 0 -324.5 94.5t-138.5 254.5h260q4 -68 61.5 -110t149.5 -42q76 0 124 36t48 91q0 47 -44 76t-158 53l-66 14q-180 37 -263 110t-83 194q0 145 115.5 236t302 91 t302.5 -88t128 -237h-246q-8 61 -57 97t-127 36q-72 0 -118 -35t-46 -86zM354 -143h258l-135 -312h-188z" glyph-name="scommaaccent" horiz-adv-x="1013" unicode="ș"/><glyph d="M45 1434h1151v-228h-434v-1206h-283v1206h-434v228zM469 -143h258l-135 -312h-189z" glyph-name="uni021A" horiz-adv-x="1241" unicode="Ț"/><glyph d="M610 852h-194v-539q0 -63 29.5 -89.5t95.5 -26.5q57 0 82 8v-205q-76 -16 -144 -16q-172 0 -249.5 75.5t-77.5 247.5v545h-132v201h132v254h258v-254h200v-201zM397 -143h258l-135 -312h-188z" glyph-name="uni021B" horiz-adv-x="686" unicode="ț"/><glyph d="M129 1053h264v-1063q0 -184 -102.5 -271.5t-317.5 -87.5v205q156 0 156 152v1065z" glyph-name="uni0237" horiz-adv-x="495" unicode="ȷ"/><glyph d="M362 1413h-215l254 295h197l254 -295h-215l-137 176z" glyph-name="circumflex" horiz-adv-x="999" unicode="ˆ"/><glyph d="M150 1729h215l137 -177l137 177h215l-254 -295h-197z" glyph-name="caron" horiz-adv-x="1001" unicode="ˇ"/><glyph d="M778 1735q0 -137 -89 -226.5t-224 -89.5q-137 0 -227.5 89t-90.5 227h160q0 -70 45 -117t113 -47q66 0 109.5 47t43.5 117h160z" glyph-name="breve" horiz-adv-x="925" unicode="˘"/><glyph d="M147 1554.5q0 55.5 39 93.5t96.5 38t95.5 -38t38 -93.5t-38 -93.5t-95.5 -38t-96.5 38t-39 93.5z" glyph-name="dotaccent" horiz-adv-x="563" unicode="˙"/><glyph d="M156 1595q0 82 56 136.5t140 54.5t140.5 -54.5t56.5 -136.5t-56.5 -137t-140.5 -55t-140 55t-56 137zM279 1595.5q0 -32.5 21.5 -54t52 -21.5t52 21.5t21.5 53.5q0 31 -21.5 52.5t-52 21.5t-52 -20.5t-21.5 -53z" glyph-name="ring" horiz-adv-x="704" unicode="˚"/><glyph d="M319 0h123q-55 -31 -92 -86t-37 -115q0 -68 51.5 -93t127.5 -17v-152q-35 -8 -86 -8q-115 0 -187 55.5t-72 153.5q0 84 48 153.5t124 108.5z" glyph-name="ogonek" horiz-adv-x="638" unicode="˛"/><glyph d="M147 1434q-2 102 47.5 159.5t139.5 57.5q76 0 145.5 -52.5t94 -52.5t42 21.5t15.5 56.5h145q0 -104 -47 -160.5t-137 -56.5q-80 0 -149.5 52t-94.5 52q-27 0 -42 -20.5t-13 -56.5h-146z" glyph-name="tilde" horiz-adv-x="923" unicode="˜"/><glyph d="M590 1749h235l-161 -315h-191zM217 1749h229l-118 -315h-181z" glyph-name="hungarumlaut" horiz-adv-x="972" unicode="˝"/><glyph d="M256 -143h258l-135 -312h-189z" glyph-name="uni0326" horiz-adv-x="702" unicode="̦"/><glyph d="M45 0l490 1434h288l492 -1434h-1270zM385 231h590l-295 936z" glyph-name="Delta" horiz-adv-x="1357" unicode="Δ"/><glyph d="M86 762q0 311 189.5 501.5t482.5 190.5t482.5 -190.5t189.5 -501.5q0 -160 -78 -318.5t-193 -226.5h271v-217h-553v250q287 111 286 481q0 213 -109.5 351.5t-295.5 138.5q-184 0 -295 -138.5t-111 -351.5q0 -168 76 -294t211 -187v-250h-533v217h248 q-115 68 -191.5 227.5t-76.5 317.5z" glyph-name="Omega" horiz-adv-x="1515" unicode="Ω"/><glyph d="M102 -348v1401h265v-629q0 -109 55 -167t156 -58q113 0 173 74.5t60 201.5v578h264v-1053h-239l-21 147q-43 -80 -120 -123.5t-165 -43.5q-106 0 -163 49v-377h-265z" glyph-name="mu" horiz-adv-x="1177" unicode="μ"/><glyph d="M61 831v222h1223v-222h-188v-518q0 -61 28.5 -88.5t94.5 -27.5q61 0 81 8v-205q-72 -16 -143 -16q-174 0 -251 75.5t-77 247.5v524h-327v-831h-264v831h-177z" glyph-name="pi" horiz-adv-x="1376" unicode="π"/><glyph d="M670 1892h241l136 -315h-179zM1632 1434h277l-363 -1434h-289l-282 1008l-281 -1008h-288l-365 1434h278l254 -1076l285 1055h236l284 -1055z" glyph-name="Wgrave" horiz-adv-x="1951" unicode="Ẁ"/><glyph d="M498 1503h241l135 -315h-178zM20 1053h273l201 -738l213 738h198l211 -738l203 738h270l-325 -1053h-260l-199 670l-199 -670h-260z" glyph-name="wgrave" horiz-adv-x="1611" unicode="ẁ"/><glyph d="M999 1892h242l-199 -315h-178zM1632 1434h277l-363 -1434h-289l-282 1008l-281 -1008h-288l-365 1434h278l254 -1076l285 1055h236l284 -1055z" glyph-name="Wacute" horiz-adv-x="1951" unicode="Ẃ"/><glyph d="M829 1503h242l-199 -315h-178zM20 1053h273l201 -738l213 738h198l211 -738l203 738h270l-325 -1053h-260l-199 670l-199 -670h-260z" glyph-name="wacute" horiz-adv-x="1611" unicode="ẃ"/><glyph d="M604 1700q0 63 43 105t109 42q63 0 106 -42t43 -105q0 -61 -43 -103.5t-106.5 -42.5t-107.5 42.5t-44 103.5zM1036 1700q0 63 43 105t107 42q66 0 108.5 -42t42.5 -105q0 -61 -44 -103.5t-107.5 -42.5t-106.5 42.5t-43 103.5zM1632 1434h277l-363 -1434h-289l-282 1008 l-281 -1008h-288l-365 1434h278l254 -1076l285 1055h236l284 -1055z" glyph-name="Wdieresis" horiz-adv-x="1951" unicode="Ẅ"/><glyph d="M434 1311q0 63 43 105t109 42q63 0 106 -42t43 -105q0 -61 -43 -103.5t-106.5 -42.5t-107.5 42.5t-44 103.5zM866 1311q0 63 43 105t107 42q66 0 108.5 -42t42.5 -105q0 -61 -44 -103.5t-107.5 -42.5t-106.5 42.5t-43 103.5zM20 1053h273l201 -738l213 738h198l211 -738 l203 738h270l-325 -1053h-260l-199 670l-199 -670h-260z" glyph-name="wdieresis" horiz-adv-x="1611" unicode="ẅ"/><glyph d="M1008 475h-1008v230h1008v-230z" glyph-name="endash" horiz-adv-x="1007" unicode="–"/><glyph d="M2015 475h-2015v230h2015v-230z" glyph-name="emdash" horiz-adv-x="2015" unicode="—"/><glyph d="M377 901h-258l155 533h189z" glyph-name="quoteleft" horiz-adv-x="579" unicode="‘"/><glyph d="M205 1434h258l-156 -533h-188z" glyph-name="quoteright" horiz-adv-x="581" unicode="’"/><glyph d="M205 229h258l-156 -532h-188z" glyph-name="quotesinglbase" horiz-adv-x="579" unicode="‚"/><glyph d="M791 901h-259l156 533h189zM377 901h-258l155 533h189z" glyph-name="quotedblleft" horiz-adv-x="993" unicode="“"/><glyph d="M205 1434h258l-156 -533h-188zM606 1434h258l-155 -533h-189z" glyph-name="quotedblright" horiz-adv-x="983" unicode="”"/><glyph d="M618 229h259l-156 -532h-189zM205 229h258l-156 -532h-188z" glyph-name="quotedblbase" horiz-adv-x="993" unicode="„"/><glyph d="M147 1184h254v270h222v-270h254v-199h-254v-530h-222v530h-254v199z" glyph-name="dagger" horiz-adv-x="1024" unicode="†"/><glyph d="M147 1229h254v225h222v-225h254v-182h-254v-185h254v-182h-254v-225h-222v225h-254v182h254v185h-254v182z" glyph-name="daggerdbl" horiz-adv-x="1024" unicode="‡"/><glyph d="M150 583.5q0 104.5 72.5 176t181 71.5t181 -71.5t72.5 -176t-72.5 -176t-181 -71.5t-181 71.5t-72.5 176z" glyph-name="bullet" horiz-adv-x="806" unicode="•"/><glyph d="M139 131q0 63 43 105.5t108.5 42.5t108.5 -42t43 -106q0 -61 -44 -103t-107.5 -42t-107.5 42t-44 103zM668 131q0 63 43 105.5t108.5 42.5t108.5 -42t43 -106q0 -61 -44 -103t-107.5 -42t-107.5 42t-44 103zM1196 131q0 63 43 105.5t108.5 42.5t108.5 -42t43 -106 q0 -61 -44 -103t-107.5 -42t-107.5 42t-44 103z" glyph-name="ellipsis" horiz-adv-x="1626" unicode="…"/><glyph d="M381 745q-154 0 -245 97.5t-91 261.5q0 162 91 257t245 95q152 0 242 -95t90 -257q0 -164 -90 -261.5t-242 -97.5zM176 0l1045 1434h245l-1044 -1434h-246zM250 1102q0 -84 36 -136.5t95 -52.5q57 0 92 51.5t35 137.5t-34 136t-93 50t-95 -50t-36 -136zM1264 -23 q-154 0 -245 97.5t-91 259.5t91 258t245 96q152 0 241.5 -96t89.5 -258t-89.5 -259.5t-241.5 -97.5zM2005 -23q-154 0 -245 97.5t-91 259.5t91 258t245 96q152 0 242 -96t90 -258t-90 -259.5t-242 -97.5zM1133 334q0 -84 35.5 -136.5t95 -52.5t93.5 50.5t34 138.5 q0 86 -34 136t-93.5 50t-95 -50t-35.5 -136zM1874 334q0 -84 36 -136.5t95 -52.5t93 50.5t34 138.5q0 86 -34 136t-93 50t-95 -50t-36 -136z" glyph-name="perthousand" horiz-adv-x="2379" unicode="‰"/><glyph d="M721 156h-270l-336 438l336 438h270l-344 -438z" glyph-name="guilsinglleft" horiz-adv-x="835" unicode="‹"/><glyph d="M385 156h-270l344 438l-344 438h270l336 -438z" glyph-name="guilsinglright" horiz-adv-x="835" unicode="›"/><glyph d="M-487 0l1042 1434h186l-1042 -1434h-186z" glyph-name="fraction" horiz-adv-x="258" unicode="⁄"/><glyph d="M1198 1214h-649v-380h567v-211h-567v-213h328v-205h-328v-205h-277v205h-147v205h147v1024h926v-220z" glyph-name="franc" horiz-adv-x="1310" unicode="₣"/><glyph d="M94 0v203q158 0 172 243h-172v170h170q-10 117 -14 162h-156v170h144q-2 23 -2 68q0 205 125.5 322.5t340.5 117.5q205 0 332 -106.5t137 -284.5h-249q-6 90 -62.5 139t-150.5 49q-109 0 -164.5 -71.5t-57.5 -233.5h295v-170h-286q2 -29 7 -83t7 -79h272v-170h-264 q-2 -164 -61 -243h723v-203h-1086z" glyph-name="lira" horiz-adv-x="1286" unicode="₤"/><glyph d="M797 1434q190 0 320 -106.5t159 -285.5h170v-194h-170q8 61 8 100q0 53 -8 94h-14v-194h14q-33 -176 -162 -280.5t-317 -104.5h-277v-463h-284v848h-164v194h164v392h561zM745 674q113 0 181.5 75.5t68.5 198.5t-68.5 199t-181.5 76h-225v-549h225z" glyph-name="peseta" horiz-adv-x="1503" unicode="₧"/><glyph d="M82 487v175h121v55v65h-121v172h143q47 240 194.5 371t368.5 131q219 0 356.5 -130t172.5 -368h-275q-16 129 -82.5 199t-175.5 70q-217 0 -282 -273h383v-172h-408v-120h408v-175h-387q66 -281 286 -280q113 0 179.5 73.5t83.5 211.5h274q-25 -244 -164 -379.5 t-364.5 -135.5t-374 134.5t-195.5 375.5h-141z" glyph-name="Euro" horiz-adv-x="1409" unicode="€"/><glyph d="M109 532v197h43q315 0 387 156h-430v196h434q-25 70 -78 113t-127 43h-229v197h917v-197h-278q55 -68 77 -156h201v-196h-203q-37 -129 -150.5 -218t-275.5 -108l574 -559h-330z" glyph-name="uni20B9" horiz-adv-x="1134" unicode="₹"/><glyph d="M94 1434h600v-148h-213v-557h-172v557h-215v148zM1366 1434h233v-705h-178v453l-184 -443h-82l-182 443v-453h-178v705h231l170 -439z" glyph-name="trademark" horiz-adv-x="1746" unicode="™"/><glyph d="M53 1141v168l183 125h145v-705h-180v514zM41 0l1042 1434h187l-1043 -1434h-186zM842 211h176q0 -41 29.5 -65.5t74.5 -24.5t76 24.5t31 63.5t-33 59.5t-82 20.5l-80 -2v129h76q45 0 74.5 20.5t29.5 59.5q0 35 -25.5 55t-64.5 20q-41 0 -67.5 -24.5t-26.5 -63.5h-166 q0 102 76 163t188 61q104 0 180 -48.5t76 -136.5q0 -59 -33.5 -104t-90.5 -60q70 -12 110.5 -57t40.5 -113q0 -96 -84 -151t-202.5 -55t-199.5 61.5t-83 167.5z" glyph-name="onethird" horiz-adv-x="1458" unicode="⅓"/><glyph d="M31 729v113l278 248q86 78 86 131q0 39 -26.5 62.5t-67.5 23.5q-43 0 -69.5 -27t-28.5 -72h-172q2 109 80.5 172.5t199.5 63.5q115 0 191 -55.5t76 -151.5q0 -106 -123 -215l-154 -141h281v-152h-551zM207 0l1042 1434h187l-1043 -1434h-186zM971 211h176 q0 -41 29.5 -65.5t74.5 -24.5t76 24.5t31 63.5t-33 59.5t-82 20.5l-80 -2v129h76q45 0 74.5 20.5t29.5 59.5q0 35 -25.5 55t-64.5 20q-41 0 -67.5 -24.5t-26.5 -63.5h-166q0 102 76 163t188 61q104 0 180 -48.5t76 -136.5q0 -59 -33.5 -104t-90.5 -60q70 -12 110.5 -57 t40.5 -113q0 -96 -84 -151t-202.5 -55t-199.5 61.5t-83 167.5z" glyph-name="twothirds" horiz-adv-x="1599" unicode="⅔"/><glyph d="M47 1141v168l182 125h146v-705h-180v514zM59 0l1043 1434h186l-1042 -1434h-187zM868 522q0 86 79 135.5t183 49.5q106 0 185.5 -49.5t79.5 -135.5q0 -53 -33 -96t-86 -61q66 -18 104.5 -64.5t38.5 -110.5q0 -98 -85 -153t-203.5 -55t-203.5 54t-85 152q0 63 40 110.5 t105 66.5q-53 18 -86 61t-33 96zM1221 498q0 37 -25 60.5t-66 23.5q-39 0 -64.5 -23.5t-25.5 -60.5t26 -58.5t64 -21.5q41 0 66 21.5t25 58.5zM1237 205q0 39 -29.5 63.5t-77.5 24.5q-45 0 -75.5 -24.5t-30.5 -63.5q0 -41 30.5 -65.5t75.5 -24.5q47 0 77 24.5t30 65.5z" glyph-name="oneeighth" horiz-adv-x="1478" unicode="⅛"/><glyph d="M45 948h176q0 -41 30 -65.5t75 -24.5t75.5 24.5t30.5 63.5t-32.5 59.5t-82.5 20.5l-79 -2v129h75q45 0 75 20.5t30 59.5q0 35 -25.5 55.5t-64.5 20.5q-41 0 -68 -24.5t-27 -63.5h-165q0 102 75.5 162.5t188.5 60.5q104 0 180 -48t76 -136q0 -59 -34 -104.5t-91 -59.5 q70 -12 110.5 -57.5t40.5 -112.5q0 -96 -84 -151.5t-202.5 -55.5t-199.5 61.5t-83 167.5zM186 0l1043 1434h186l-1042 -1434h-187zM1016 522q0 86 79 135.5t183 49.5q106 0 185 -49.5t79 -135.5q0 -53 -32.5 -96t-86.5 -61q66 -18 105 -64.5t39 -110.5q0 -98 -85 -153 t-204 -55t-204 54t-85 152q0 63 39 110.5t107 66.5q-53 18 -86 61t-33 96zM1368 498q0 37 -25.5 60.5t-64.5 23.5t-64.5 -23.5t-25.5 -60.5t24.5 -58.5t65.5 -21.5t65.5 21.5t24.5 58.5zM1384 205q0 39 -29.5 63.5t-76.5 24.5q-45 0 -76 -24.5t-31 -63.5q0 -41 31 -65.5 t76 -24.5q47 0 76.5 24.5t29.5 65.5z" glyph-name="threeeighths" horiz-adv-x="1626" unicode="⅜"/><glyph d="M37 940h172q8 -37 36.5 -59.5t67.5 -22.5q49 0 80 32t31 79t-31 78.5t-78 31.5q-68 0 -100 -57h-168l39 412h461v-142h-322l-12 -143q53 55 145 55q104 0 171 -64.5t67 -168.5q0 -115 -81 -183.5t-202 -68.5q-115 0 -192.5 58.5t-83.5 162.5zM170 0l1042 1434h187 l-1043 -1434h-186zM997 522q0 86 79 135.5t186 49.5q104 0 183 -49.5t79 -135.5q0 -53 -33 -96t-86 -61q66 -18 104.5 -64.5t38.5 -110.5q0 -98 -84 -153t-202 -55q-121 0 -205 54t-84 152q0 63 39 110.5t104 66.5q-53 18 -86 61t-33 96zM1350 498q0 37 -25 60.5t-63 23.5 q-41 0 -67 -23.5t-26 -60.5t26 -58.5t67 -21.5q39 0 63.5 21.5t24.5 58.5zM1366 205q0 39 -29.5 63.5t-74.5 24.5q-47 0 -78 -24.5t-31 -63.5q0 -41 30.5 -65.5t78.5 -24.5q45 0 74.5 24.5t29.5 65.5z" glyph-name="fiveeighths" horiz-adv-x="1607" unicode="⅝"/><glyph d="M63 1434h515v-93l-273 -612h-190l264 557h-316v148zM74 0l1042 1434h187l-1043 -1434h-186zM913 522q0 86 78 135.5t184.5 49.5t184.5 -49.5t78 -135.5q0 -53 -33 -96t-86 -61q66 -18 104.5 -64.5t38.5 -110.5q0 -98 -84 -153t-202 -55q-121 0 -205 54t-84 152 q0 63 39 110.5t106 66.5q-53 18 -86 61t-33 96zM1266 498q0 37 -26 60.5t-64.5 23.5t-64.5 -23.5t-26 -60.5t25 -58.5t66 -21.5t65.5 21.5t24.5 58.5zM1282 205q0 39 -29.5 63.5t-77 24.5t-77 -24.5t-29.5 -63.5q0 -41 29.5 -65.5t77 -24.5t77 24.5t29.5 65.5z" glyph-name="seveneighths" horiz-adv-x="1521" unicode="⅞"/><glyph d="M729 1296l137 -137l-348 -348h1055v-193h-1055l348 -348l-137 -137l-582 582z" glyph-name="arrowleft" horiz-adv-x="1722" unicode="←"/><glyph d="M287 725l-137 137l581 582l582 -582l-137 -137l-349 348v-1055h-192v1055z" glyph-name="arrowup" horiz-adv-x="1462" unicode="↑"/><glyph d="M854 1159l137 137l582 -581l-582 -582l-137 137l348 348h-1055v193h1055z" glyph-name="arrowright" horiz-adv-x="1722" unicode="→"/><glyph d="M150 602l137 137l348 -348v1055h192v-1055l349 348l137 -137l-582 -582z" glyph-name="arrowdown" horiz-adv-x="1462" unicode="↓"/><glyph d="M795 342l-138 -135l-510 508l510 510l138 -140l-275 -272h1008l-273 272l138 140l508 -510l-508 -508l-138 135l275 276h-1010z" glyph-name="arrowboth" horiz-adv-x="2050" unicode="↔"/><glyph d="M1030 410l135 -138l-508 -510l-510 510l140 138l272 -275v1008l-272 -273l-140 138l510 508l508 -508l-135 -138l-276 275v-1010z" glyph-name="arrowupdn" horiz-adv-x="1312" unicode="↕"/><glyph d="M342 1102v-494h-192v824l823 2v-195h-492l746 -745l-137 -138z" glyph-name="uni2196" horiz-adv-x="1374" unicode="↖"/><glyph d="M1032 608v494l-747 -746l-138 138l746 745h-492v195l824 -2v-824h-193z" glyph-name="uni2197" horiz-adv-x="1374" unicode="↗"/><glyph d="M1032 332v493h193v-823l-824 -2v195h492l-746 745l138 137z" glyph-name="uni2198" horiz-adv-x="1374" unicode="↘"/><glyph d="M342 825v-493l748 745l137 -137l-746 -745h492v-195l-823 2v823h192z" glyph-name="uni2199" horiz-adv-x="1374" unicode="↙"/><glyph d="M618 -20q-233 0 -384.5 142t-151.5 374q0 215 134 360t347 145q111 0 206 -47t149 -139q-14 195 -122 309.5t-300 114.5q-121 0 -197 -33v211q80 37 225 37q174 0 302 -59.5t203 -169t110 -248.5t35 -311v-74q0 -266 -148 -439t-408 -173zM340 504q0 -125 80 -214 t203 -89q121 0 197.5 86t76.5 209q0 125 -81 212t-204 87q-121 0 -196.5 -85t-75.5 -206z" glyph-name="partialdiff" horiz-adv-x="1251" unicode="∂"/><glyph d="M344 -328h-270v1762h1081v-1762h-270v1534h-541v-1534z" glyph-name="product" horiz-adv-x="1228" unicode="∏"/><glyph d="M131 1217v217h1094v-234h-770l450 -635l-450 -659h770v-234h-1094v217l461 676z" glyph-name="summation" horiz-adv-x="1343" unicode="∑"/><glyph d="M1178 475h-1057v230h1057v-230z" glyph-name="minus" horiz-adv-x="1298" unicode="−"/><glyph d="M264 -307h-256l539 1802h256z" glyph-name="uni2215" horiz-adv-x="811" unicode="∕"/><glyph d="M176 583.5q0 104.5 73 176t181.5 71.5t181 -71.5t72.5 -176t-72.5 -176t-181 -71.5t-181.5 71.5t-73 176z" glyph-name="uni2219" horiz-adv-x="860" unicode="∙"/><glyph d="M55 715v229h404l229 -610l311 1100h265l-422 -1434h-293l-273 715h-221z" glyph-name="radical" horiz-adv-x="1282" unicode="√"/><glyph d="M61 587.5q0 192.5 127 301t287 108.5q242 0 432 -254q190 254 432 254q160 0 287 -108.5t127 -301t-127 -301t-287 -108.5q-242 0 -432 254q-190 -254 -432 -254q-160 0 -287 108.5t-127 301zM1323 791q-80 0 -148.5 -51.5t-146.5 -151.5q156 -201 295 -201 q82 0 139.5 61.5t57.5 139.5t-57.5 140.5t-139.5 62.5zM295 588q0 -78 57.5 -139.5t139.5 -61.5q139 0 294 201q-78 100 -146.5 151.5t-147.5 51.5q-82 0 -139.5 -62.5t-57.5 -140.5z" glyph-name="infinity" horiz-adv-x="1816" unicode="∞"/><glyph d="M649 1114l-133 -1077q-23 -182 -92.5 -259t-233.5 -77q-86 0 -131 12v205q49 -8 74 -8q63 0 91 30.5t38 98.5l129 1059q25 201 95.5 284.5t238.5 83.5q90 0 135 -12v-205q-49 8 -78 8q-68 0 -95.5 -34.5t-37.5 -108.5z" glyph-name="integral" horiz-adv-x="929" unicode="∫"/><glyph d="M164 653q2 156 87 244t232 88q100 0 176 -44t131.5 -88t106.5 -44q49 0 80 32.5t33 86.5h213q0 -156 -85 -243t-235 -87q-80 0 -146.5 27.5t-102.5 60.5t-81 60.5t-88 27.5q-49 0 -77.5 -31.5t-30.5 -89.5h-213zM164 172q2 156 87 244t232 88q100 0 176 -44t131.5 -88 t106.5 -44q49 0 80 31.5t33 86.5h213q0 -156 -86 -243.5t-234 -87.5q-80 0 -146.5 27.5t-102.5 60.5t-81 60.5t-88 27.5q-49 0 -77.5 -32t-30.5 -87h-213z" glyph-name="approxequal" horiz-adv-x="1386" unicode="≈"/><glyph d="M143 246v221h324l98 250h-422v221h510l76 188h248l-74 -188h232v-221h-320l-98 -250h418v-221h-506l-76 -189h-248l74 189h-236z" glyph-name="notequal" horiz-adv-x="1280" unicode="≠"/><glyph d="M1151 362l-1016 302v210l1016 306v-250l-672 -160l672 -158v-250zM1151 61h-1016v211h1016v-211z" glyph-name="lessequal" horiz-adv-x="1284" unicode="≤"/><glyph d="M135 362v250l670 158l-670 160v250l1016 -306v-210zM135 61v211h1016v-211h-1016z" glyph-name="greaterequal" horiz-adv-x="1284" unicode="≥"/><glyph d="M74 729l436 705h190l437 -705l-437 -729h-190zM854 729l-254 436l-254 -436l254 -459z" glyph-name="lozenge" horiz-adv-x="1210" unicode="◊"/><glyph d="M760 1053h282l-430 -1176q-55 -152 -149 -205t-295 -53v215q84 0 130 38t85 142l25 66l-390 973h283l238 -715z" glyph-name="glyph395" horiz-adv-x="1060"/><glyph d="M1118 0h-241l-21 166q-113 -188 -346 -189q-201 0 -327 152t-126 397q0 244 126 396.5t325 152.5q111 0 201 -48t143 -134l20 160h246v-1053zM860 526.5q0 153.5 -72.5 245.5t-193.5 92t-193.5 -92t-72.5 -245.5t72.5 -246t193.5 -92.5t193.5 92.5t72.5 246z" glyph-name="glyph396" horiz-adv-x="1224"/><glyph d="M748 1147l409 -1147h-272l-72 217h-436l-72 -217h-268l407 1147h304zM432 410h330l-166 505z" glyph-name="A.aalt" horiz-adv-x="1191"/><glyph d="M786 612q109 -18 177.5 -99t68.5 -187q0 -141 -101.5 -233.5t-256.5 -92.5h-565v1147h544q141 0 232.5 -81t91.5 -208q0 -88 -51.5 -154.5t-139.5 -91.5zM379 956v-276h178q63 0 104 39t41 100.5t-39.5 99t-105.5 37.5h-178zM575 199q78 0 130.5 43t52.5 110 q0 78 -52.5 122t-144.5 44h-182v-319h196z" glyph-name="B.aalt" horiz-adv-x="1087"/><glyph d="M639 197q102 0 173 56t87 157h277q-31 -197 -177.5 -312.5t-363.5 -115.5q-252 0 -405.5 162.5t-153.5 429t153.5 429t405.5 162.5q219 0 367.5 -118.5t166.5 -309.5h-274q-16 96 -88 154.5t-172 58.5q-129 0 -207 -102.5t-78 -272.5q0 -172 79 -275t210 -103z" glyph-name="C.aalt" horiz-adv-x="1243"/><glyph d="M543 1147q291 0 440.5 -146.5t149.5 -427.5q0 -270 -156 -421.5t-434 -151.5h-430v1147h430zM516 211q164 0 252 93t88 271q0 184 -84 272.5t-256 88.5h-133v-725h133z" glyph-name="D.aalt" horiz-adv-x="1208"/><glyph d="M903 936h-520v-256h455v-201h-455v-268h520v-211h-790v1147h790v-211z" glyph-name="E.aalt" horiz-adv-x="993"/><glyph d="M885 936h-502v-295h436v-201h-436v-440h-270v1147h772v-211z" glyph-name="F.aalt" horiz-adv-x="946"/><glyph d="M1192 627q6 -53 6 -115q0 -252 -142.5 -391t-398.5 -139q-268 0 -424.5 158.5t-156.5 432.5q0 272 153.5 432t413.5 160q211 0 360.5 -106.5t178.5 -278.5h-269q-25 82 -95 130t-167 48q-141 0 -223 -101t-82 -277q0 -180 86 -286t234 -106q119 0 193.5 64.5t78.5 171.5 l2 20h-262v183h514z" glyph-name="G.aalt" horiz-adv-x="1273"/><glyph d="M862 1147h271v-1147h-271v475h-479v-475h-270v1147h270v-463h479v463z" glyph-name="H.aalt" horiz-adv-x="1245"/><glyph d="M383 0h-270v1147h270v-1147z" glyph-name="I.aalt" horiz-adv-x="493"/><glyph d="M569 1147h271v-789q0 -178 -104.5 -277t-291 -99t-294 96t-111.5 266h262q6 -152 137 -151.5t131 167.5v787z" glyph-name="J.aalt" horiz-adv-x="950"/><glyph d="M659 651l445 -651h-320l-311 465l-90 -100v-365h-270v1147h270v-467l389 467h311z" glyph-name="K.aalt" horiz-adv-x="1120"/><glyph d="M383 211h494v-211h-764v1147h270v-936z" glyph-name="L.aalt" horiz-adv-x="940"/><glyph d="M1008 1147h342v-1147h-265v770l-290 -754h-129l-291 754v-770h-262v1147h342l276 -717z" glyph-name="M.aalt" horiz-adv-x="1460"/><glyph d="M852 1147h264v-1147h-293l-448 735v-735h-262v1147h290l449 -735v735z" glyph-name="N.aalt" horiz-adv-x="1226"/><glyph d="M657.5 1165q262.5 0 422 -162.5t159.5 -429t-159.5 -429t-422 -162.5t-422 162.5t-159.5 429t159.5 429t422 162.5zM657.5 197q141.5 0 224.5 102t83 274t-83 274.5t-224.5 102.5t-224.5 -102.5t-83 -274.5t83 -274t224.5 -102z" glyph-name="O.aalt" horiz-adv-x="1314"/><glyph d="M588 1147q178 0 288.5 -110.5t110.5 -287t-110.5 -287t-288.5 -110.5h-205v-352h-270v1147h475zM532 563q82 0 131.5 51.5t49.5 135.5t-49.5 135t-131.5 51h-149v-373h149z" glyph-name="P.aalt" horiz-adv-x="1048"/><glyph d="M963 -133l-111 145q-90 -31 -193 -30q-262 0 -422.5 162.5t-160.5 429t159.5 429t422 162.5t422 -162.5t159.5 -429.5q0 -301 -195 -460l97 -127zM604 356l178 119l113 -149q74 88 74 247q0 172 -84 274.5t-227.5 102.5t-227.5 -102.5t-84 -274.5q0 -162 75 -261 t202 -111q53 0 88 14z" glyph-name="Q.aalt" horiz-adv-x="1314"/><glyph d="M113 0v1147h491q178 0 289 -107.5t111 -279.5q0 -115 -53.5 -202t-147.5 -134l233 -424h-286l-191 377h-176v-377h-270zM549 586q82 0 131 48t49 128t-49 127t-131 47h-168v-350h168z" glyph-name="R.aalt" horiz-adv-x="1085"/><glyph d="M362 836q0 -51 48.5 -84t162.5 -60l74 -16q195 -43 278 -118t83 -212q0 -166 -124 -265t-335 -99t-339 99t-140 275h264q4 -76 65.5 -123t155.5 -47q82 0 133 39t51 99q0 53 -46 84.5t-158 56.5l-70 16q-186 39 -275.5 120t-89.5 210q0 158 120 256t312 98 q188 0 309.5 -95t133.5 -251h-256q-8 66 -59.5 106t-129.5 40q-76 0 -122 -36t-46 -93z" glyph-name="S.aalt" horiz-adv-x="1077"/><glyph d="M53 1147h946v-211h-337v-936h-271v936h-338v211z" glyph-name="T.aalt" horiz-adv-x="1052"/><glyph d="M811 1147h268v-721q0 -201 -132 -322.5t-351 -121.5t-351 121.5t-132 322.5v721h270v-711q0 -117 55.5 -179t157.5 -62t158.5 62t56.5 179v711z" glyph-name="U.aalt" horiz-adv-x="1191"/><glyph d="M852 1147h266l-399 -1147h-285l-399 1147h266l274 -866z" glyph-name="V.aalt" horiz-adv-x="1153"/><glyph d="M1311 1147h260l-281 -1147h-268l-211 772l-213 -772h-266l-283 1147h260l183 -815l208 798h222l206 -798z" glyph-name="W.aalt" horiz-adv-x="1619"/><glyph d="M729 600l408 -600h-293l-252 412l-250 -412h-293l408 600l-375 547h293l217 -361l219 361h293z" glyph-name="X.aalt" horiz-adv-x="1159"/><glyph d="M815 1147h279l-394 -655v-492h-272v492l-393 655h278l250 -459z" glyph-name="Y.aalt" horiz-adv-x="1128"/><glyph d="M436 211h578v-211h-926v117l561 819h-545v211h893v-117z" glyph-name="Z.aalt" horiz-adv-x="1101"/><glyph d="M156 1147h262l-29 -768h-205zM147 120.5q0 57.5 41 97.5t100.5 40t100.5 -40t41 -97.5t-41 -97t-100.5 -39.5t-100.5 39.5t-41 97z" glyph-name="exclam.aalt" horiz-adv-x="575"/><glyph d="M475 1294h170v-135q152 -23 247 -113t105 -227h-249q-8 66 -61.5 106t-135.5 40q-78 0 -126 -36t-48 -93q0 -51 48 -83t165 -59l74 -16q199 -43 281.5 -118t82.5 -212q0 -152 -102.5 -249t-280.5 -113v-133h-170v135q-170 20 -272.5 116.5t-112.5 251.5h260 q6 -76 68.5 -123t156.5 -47q84 0 137.5 39t53.5 99q0 55 -47 86.5t-160 54.5l-70 14q-188 39 -278 121t-90 211q0 141 96 235.5t258 114.5v133z" glyph-name="dollar.aalt" horiz-adv-x="1118"/><glyph d="M315 582q-127 0 -202.5 79.5t-75.5 213t75.5 212t202.5 78.5q125 0 199 -78.5t74 -212t-74 -213t-199 -79.5zM158 0l835 1147h215l-835 -1147h-215zM221 874.5q0 -65.5 25.5 -105.5t68.5 -40q41 0 66 39t25 106q0 66 -25 105t-66 39q-45 0 -69.5 -39t-24.5 -104.5z M1053 -18q-127 0 -202 79.5t-75 213t75 212t202 78.5t200.5 -78.5t73.5 -212t-74.5 -213t-199.5 -79.5zM961 274.5q0 -65.5 24.5 -105.5t67.5 -40t67.5 40t24.5 105.5t-25.5 104.5t-66.5 39q-43 0 -67.5 -39t-24.5 -104.5z" glyph-name="percent.aalt" horiz-adv-x="1366"/><glyph d="M70 303q0 221 272 336q-145 119 -145 260q0 117 92 190.5t229 73.5q139 0 229.5 -73.5t90.5 -192.5q0 -178 -215 -299l202 -217q37 61 37 250v18h209v-53q0 -240 -98 -367l209 -229h-269l-84 96q-133 -115 -344 -114q-180 0 -297.5 87t-117.5 234zM518 999 q-47 0 -81 -29.5t-34 -76.5q0 -31 20.5 -69t33 -52t49.5 -53q123 76 123 172q0 51 -32 79.5t-79 28.5zM309 311q0 -72 54.5 -111.5t134.5 -39.5q127 0 194 73l-239 265q-144 -76 -144 -187z" glyph-name="ampersand.aalt" horiz-adv-x="1200"/><glyph d="M178 477q0 205 62.5 392.5t177.5 326.5h211q-209 -307 -209 -719q0 -408 209 -723h-211q-115 139 -177.5 328.5t-62.5 394.5z" glyph-name="parenleft.c2sc" horiz-adv-x="667"/><glyph d="M492 477q0 -205 -62.5 -394t-177.5 -329h-213q209 315 209 723q0 412 -209 719h213q115 -139 177.5 -326.5t62.5 -392.5z" glyph-name="parenright.c2sc" horiz-adv-x="667"/><glyph d="M84 573.5q0 276.5 126 434t347 157.5q223 0 349 -157.5t126 -434t-126 -434t-349 -157.5q-221 0 -347 157.5t-126 434zM557 954q-109 0 -165 -97t-56 -283.5t56.5 -283.5t164.5 -97q223 0 223 380.5t-223 380.5z" glyph-name="zero.c2sc" horiz-adv-x="1114"/><glyph d="M84 707v235l285 205h202v-1147h-249v881z" glyph-name="one.c2sc" horiz-adv-x="757"/><glyph d="M82 0v160l457 420q78 72 110.5 122t32.5 103q0 76 -47 121t-129 45q-80 0 -129 -45t-53 -127h-240q2 166 122 265t312 99q186 0 301 -94t115 -246q0 -164 -172 -325l-307 -289h483v-209h-856z" glyph-name="two.c2sc" horiz-adv-x="1024"/><glyph d="M80 342h242q2 -70 58 -116t140 -46t138.5 46t54.5 118t-52.5 112t-146.5 40h-133v180h133q78 0 125 42t47 111q0 63 -47 103.5t-121 40.5t-122 -45t-50 -115h-231q0 156 114.5 254t296.5 98q172 0 284 -84t112 -211q0 -102 -58.5 -175.5t-158.5 -96.5q121 -20 191.5 -95 t70.5 -186q0 -150 -124 -242.5t-323 -92.5q-193 0 -314.5 99t-125.5 261z" glyph-name="three.c2sc" horiz-adv-x="1054"/><glyph d="M623 217h-553v154l530 776h270v-729h154v-201h-154v-217h-247v217zM344 418h279v438z" glyph-name="four.c2sc" horiz-adv-x="1091"/><glyph d="M109 330h239q14 -68 68.5 -109t126.5 -41q88 0 145 57.5t57 145.5t-57 145.5t-143 57.5q-57 0 -108.5 -25.5t-76.5 -75.5h-237l65 662h717v-201h-524l-25 -284q90 104 248 104q168 0 275.5 -105.5t107.5 -273.5q0 -180 -125 -292.5t-321 -112.5q-180 0 -301 94t-131 254z " glyph-name="five.c2sc" horiz-adv-x="1060"/><glyph d="M559 -18q-227 0 -352 150.5t-125 424.5q0 281 129 444.5t348 163.5q168 0 283.5 -88t138.5 -225h-244q-35 121 -174 121q-111 0 -177.5 -101.5t-66.5 -273.5q88 168 302 168q164 0 270 -104.5t106 -274.5q0 -184 -119.5 -294.5t-318.5 -110.5zM360 385q0 -90 56.5 -146.5 t144.5 -56.5q86 0 140.5 55.5t54.5 143.5t-57.5 145.5t-141.5 57.5q-86 0 -141.5 -55.5t-55.5 -143.5z" glyph-name="six.c2sc" horiz-adv-x="1079"/><glyph d="M66 1147h802v-133l-450 -1014h-264l440 938h-528v209z" glyph-name="seven.c2sc" horiz-adv-x="954"/><glyph d="M125 866q0 129 115.5 214t296.5 85q178 0 294.5 -85t116.5 -214q0 -90 -57 -159.5t-152 -98.5q115 -27 182.5 -105.5t67.5 -185.5q0 -150 -125 -242.5t-327.5 -92.5t-327.5 93t-125 240q0 109 66.5 188t181.5 105q-94 29 -150.5 98.5t-56.5 159.5zM707 831.5 q0 65.5 -48.5 109.5t-121.5 44q-76 0 -123 -44t-47 -109.5t47 -107.5t122.5 -42t123 42t47.5 107.5zM735 338q0 74 -55 121t-143 47t-144.5 -47t-56.5 -121q0 -72 56.5 -120t144.5 -48t143 48t55 120z" glyph-name="eight.c2sc" horiz-adv-x="1071"/><glyph d="M520 1165q227 0 351 -149.5t124 -425.5q0 -281 -128 -444.5t-349 -163.5q-166 0 -281.5 88t-138.5 225h244q35 -121 172 -121q115 0 179.5 100.5t64.5 274.5q-39 -78 -118 -123t-183 -45q-162 0 -268.5 104.5t-106.5 274.5q0 184 119.5 294.5t318.5 110.5zM717 762 q0 90 -55.5 146.5t-141.5 56.5q-88 0 -142 -55.5t-54 -143.5t56 -145.5t140 -57.5q86 0 141.5 55.5t55.5 143.5z" glyph-name="nine.c2sc" horiz-adv-x="1077"/><glyph d="M297 823h-238q2 156 112 249t284 93q166 0 272.5 -84t106.5 -231q0 -92 -47.5 -155.5t-104.5 -91.5t-105.5 -73t-50.5 -102l-2 -74h-225l-4 95q-2 68 27.5 117.5t72.5 78.5t86 54.5t73 60.5t30 82q0 59 -40 95t-100 36q-61 0 -103 -41t-44 -109zM416 -14q-57 0 -98.5 40 t-41.5 93t41 93t96.5 40t96.5 -40t41 -93q0 -51 -40 -92t-95 -41z" glyph-name="question.aalt" horiz-adv-x="911"/><glyph d="M653 -246h-465v1442h465v-182h-217v-1077h217v-183z" glyph-name="bracketleft.c2sc" horiz-adv-x="679"/><glyph d="M27 -246v183h217v1077h-217v182h465v-1442h-465z" glyph-name="bracketright.c2sc" horiz-adv-x="679"/><glyph d="M362 1403l105 -256h-156l-161 256h212z" glyph-name="glyph442" horiz-adv-x="616"/><glyph d="M143 780q0 59 40 98.5t99.5 39.5t101.5 -40t42 -97.5t-42 -97.5t-101.5 -40t-99.5 40t-40 97zM152 -246l28 752h205l29 -752h-262z" glyph-name="exclamdown.c2sc" horiz-adv-x="565"/><glyph d="M547 326q63 0 105 36.5t53 100.5h239q-10 -125 -90 -208t-209 -108v-147h-209v147q-152 29 -241 144t-89 282.5t89.5 281.5t240.5 144v148h209v-148q129 -25 209 -107.5t90 -207.5h-239q-10 63 -52.5 100t-105.5 37q-90 0 -140.5 -65.5t-50.5 -182t50.5 -182t140.5 -65.5 z" glyph-name="cent.aalt" horiz-adv-x="1050"/><glyph d="M98 0v182q139 0 140 195q0 10 -1 36.5t-1 45.5h-138v170h125q-12 127 -12 178q0 168 104.5 263t288.5 95q166 0 269.5 -86t111.5 -233h-227q-4 63 -46 101t-108 38q-164 0 -164 -203q0 -55 11 -153h317v-170h-307q6 -84 4 -123q-4 -88 -47 -154h577v-182h-897z" glyph-name="sterling.aalt" horiz-adv-x="1091"/><glyph d="M815 1147h279l-349 -576h168v-163h-217v-95h217v-163h-217v-150h-268v150h-217v163h217v95h-217v163h170l-350 576h280l252 -459z" glyph-name="yen.aalt" horiz-adv-x="1126"/><glyph d="M147 1272q0 57 41 97t100.5 40t100.5 -40t41 -97q0 -59 -41 -99t-100.5 -40t-100.5 40t-41 99zM532 1272q0 57 41 97t100.5 40t100.5 -40t41 -97q0 -59 -41 -99t-100.5 -40t-100.5 40t-41 99z" glyph-name="glyph447" horiz-adv-x="962"/><glyph d="M147 1147v164h545v-164h-545z" glyph-name="glyph448" horiz-adv-x="841"/><glyph d="M254 1403h213l-162 -256h-155z" glyph-name="glyph449" horiz-adv-x="616"/><glyph d="M496 918q57 0 98 -40t41 -93.5t-41 -92.5t-96.5 -39t-95.5 39t-40 92.5t39.5 93.5t94.5 40zM614 80h238q-2 -158 -110.5 -250t-282.5 -92q-166 0 -273.5 83t-107.5 232q0 76 31.5 131.5t75.5 86t89 57t78 63.5t35 84l2 74h223l2 -94q2 -68 -26.5 -118t-71.5 -79 t-86 -54.5t-72.5 -60t-29.5 -82.5q0 -59 41 -95t98 -36q63 0 104 40t43 110z" glyph-name="questiondown.c2sc" horiz-adv-x="911"/><glyph d="M420 0v186h61q86 0 141.5 45t55.5 117q0 70 -52.5 109t-146.5 39h-53v180h53q78 0 125 42t47 111q0 63 -47 103.5t-121 40.5q-78 0 -126 -45t-48 -121v-807h-231v807q0 162 113.5 260t297.5 98q174 0 286 -84t112 -211q0 -102 -58.5 -175.5t-160.5 -96.5 q121 -18 192.5 -92t71.5 -180q0 -145 -124 -235.5t-323 -90.5h-65z" glyph-name="germandbls.aalt" horiz-adv-x="991"/><glyph d="M1491 936h-520v-256h454v-201h-454v-268h520v-211h-786v217h-336l-72 -217h-262l407 1147h1049v-211zM422 410h283v526h-109z" glyph-name="AE.aalt" horiz-adv-x="1583"/><glyph d="M598 1147q289 0 438.5 -145.5t149.5 -428.5q0 -270 -154.5 -421.5t-433.5 -151.5h-432v457h-129v211h129v479h432zM625 457h-189v-246h133q164 0 252 93t88 271q0 184 -84 272.5t-256 88.5h-133v-268h189v-211z" glyph-name="Eth.aalt" horiz-adv-x="1261"/><glyph d="M657 1165q29 0 74 -4l41 133h201l-55 -182q152 -68 236.5 -208t84.5 -331q0 -266 -159.5 -428.5t-422.5 -162.5q-27 0 -75 4l-41 -133h-199l53 182q-150 68 -234.5 208t-84.5 330q0 266 159.5 429t421.5 163zM465 264l205 686q-162 0 -243 -104.5t-81 -272.5 q0 -209 119 -309zM645 197q162 0 243 104.5t81 271.5q0 209 -119 312z" glyph-name="Oslash.aalt" horiz-adv-x="1314"/><glyph d="M584 952q178 0 288.5 -102t110.5 -266t-110.5 -266.5t-288.5 -102.5h-207v-215h-266v1147h266v-195h207zM530 426q82 0 131.5 43t49.5 114.5t-49.5 114.5t-131.5 43h-153v-315h153z" glyph-name="Thorn.aalt" horiz-adv-x="1056"/><glyph d="M598 1147q289 0 438.5 -145.5t149.5 -428.5q0 -270 -154.5 -421.5t-433.5 -151.5h-432v457h-129v211h129v479h432zM625 457h-189v-246h133q164 0 252 93t88 271q0 184 -84 272.5t-256 88.5h-133v-268h189v-211z" glyph-name="Dcroat.aalt" horiz-adv-x="1261"/><glyph d="M150 1386h186l102 -139l105 139h186l-203 -239h-174z" glyph-name="glyph457" horiz-adv-x="878"/><glyph d="M659 1391q0 -113 -71.5 -184.5t-182 -71.5t-184.5 72.5t-74 183.5h142q0 -53 31.5 -89t82.5 -36q49 0 83 35.5t34 89.5h139z" glyph-name="glyph458" horiz-adv-x="806"/><glyph d="M147 1249q0 47 33 80t82 33t82 -33t33 -80t-33 -79.5t-82 -32.5t-82 32.5t-33 79.5z" glyph-name="glyph459" horiz-adv-x="526"/><glyph d="M147 1298.5q0 69.5 48.5 115.5t119.5 46q70 0 118 -47t48 -115q0 -70 -48 -116.5t-118 -46.5q-72 0 -120 47t-48 116.5zM254 1298q0 -27 18.5 -44t43 -17t41 18.5t16.5 43t-16.5 42t-41 17.5t-43 -17.5t-18.5 -42.5z" glyph-name="glyph460" horiz-adv-x="628"/><glyph d="M150 1147q-2 86 37.5 133t113.5 47q59 0 114.5 -40t73.5 -40q20 0 33 16.5t10 43.5h125q2 -88 -37.5 -135.5t-111.5 -47.5q-61 0 -118.5 41t-74.5 41q-45 0 -41 -59h-124z" glyph-name="glyph461" horiz-adv-x="804"/><glyph d="M524 1403h207l-129 -256h-174zM207 1403h201l-95 -256h-163z" glyph-name="glyph462" horiz-adv-x="878"/><glyph d="M315 582q-127 0 -202.5 79.5t-75.5 213t75.5 212t202.5 78.5q125 0 199 -78.5t74 -212t-74 -213t-199 -79.5zM158 0l835 1147h215l-835 -1147h-215zM221 874.5q0 -65.5 25.5 -105.5t68.5 -40q41 0 66 39t25 106q0 66 -25 105t-66 39q-45 0 -69.5 -39t-24.5 -104.5z M1053 -18q-127 0 -202 79.5t-75 213t75 212t202 78.5t200.5 -78.5t73.5 -212t-74.5 -213t-199.5 -79.5zM1675 -18q-127 0 -201.5 79.5t-74.5 213t74.5 212t201.5 78.5t201 -78.5t74 -212t-75 -213t-200 -79.5zM961 274.5q0 -65.5 24.5 -105.5t67.5 -40t67.5 40t24.5 105.5 t-25.5 104.5t-66.5 39q-43 0 -67.5 -39t-24.5 -104.5zM1583 274.5q0 -65.5 24.5 -105.5t67.5 -40t67.5 40t24.5 105.5t-25.5 104.5t-66.5 39q-43 0 -67.5 -39t-24.5 -104.5z" glyph-name="perthousand.aalt" horiz-adv-x="1986"/><glyph d="M84 387v145h98q-2 14 -2 41q0 31 2 48h-98v145h117q41 190 161.5 294.5t305 104.5t298 -106.5t140.5 -302.5h-252q-10 94 -60.5 146t-129.5 52q-156 0 -209 -188h280v-145h-301v-89h301v-145h-280q51 -195 207 -194q82 0 133 56t61 157l252 -3q-14 -199 -132 -310 t-308 -111q-184 0 -306 106.5t-163 298.5h-115z" glyph-name="Euro.aalt" horiz-adv-x="1198"/><glyph d="M922 1147h264v-166h114v-156h-114v-825h-264v475h-492v-475h-264v825h-113v156h113v166h264v-166h492v166zM430 684h492v141h-492v-141z" glyph-name="Hbar.aalt" horiz-adv-x="1351"/><glyph d="M96 391v174h35q242 0 305 117h-340v174h346q-45 117 -163 117h-183v174h752v-174h-215q43 -55 57 -117h158v-174h-156q-29 -102 -117 -173t-217 -91l449 -418h-303z" glyph-name="uni20B9.aalt" horiz-adv-x="948"/><glyph d="M383 211h494v-211h-764v1147h270v-936zM600 1147h195l-121 -406h-137z" glyph-name="Lcaron.aalt" horiz-adv-x="925"/><glyph d="M383 211h494v-211h-764v1147h270v-936zM487 610q0 49 33 82t84 33q49 0 82 -34t33 -81t-33 -79.5t-82 -32.5t-83 32.5t-34 79.5z" glyph-name="Ldot.aalt" horiz-adv-x="933"/><glyph d="M387 211h494v-211h-766v436l-68 -26v174l68 28v535h272v-424l82 33v-174l-82 -33v-338z" glyph-name="Lslash.aalt" horiz-adv-x="937"/><glyph d="M195 436v178h204v322h-338v211h947v-211h-338v-322h204v-178h-204v-436h-271v436h-204z" glyph-name="Tbar.aalt" horiz-adv-x="1069"/><glyph d="M197 -102h204l-137 -312h-135z" glyph-name="glyph471" horiz-adv-x="528"/><glyph d="M59 1081q0 168 80 266.5t223 98.5q145 0 225.5 -98.5t80.5 -266.5t-80 -267t-226 -99q-143 0 -223 99t-80 267zM362 1294q-121 0 -120 -213q0 -96 29.5 -155.5t90.5 -59.5q123 0 123 215q0 213 -123 213z" glyph-name="zero.numr" horiz-adv-x="727"/><glyph d="M47 1141v168l182 125h146v-705h-180v514z" glyph-name="one.numr" horiz-adv-x="495"/><glyph d="M31 729v113l278 248q86 78 86 131q0 39 -26.5 62.5t-67.5 23.5q-43 0 -69.5 -27t-28.5 -72h-172q2 109 80.5 172.5t199.5 63.5q115 0 191 -55.5t76 -151.5q0 -106 -123 -215l-154 -141h281v-152h-551z" glyph-name="two.numr" horiz-adv-x="638"/><glyph d="M45 948h176q0 -41 30 -65.5t75 -24.5t75.5 24.5t30.5 63.5t-32.5 59.5t-82.5 20.5l-79 -2v129h75q45 0 75 20.5t30 59.5q0 35 -25.5 55.5t-64.5 20.5q-41 0 -68 -24.5t-27 -63.5h-165q0 102 75.5 162.5t188.5 60.5q104 0 180 -48t76 -136q0 -59 -34 -104.5t-91 -59.5 q70 -12 110.5 -57.5t40.5 -112.5q0 -96 -84 -151.5t-202.5 -55.5t-199.5 61.5t-83 167.5z" glyph-name="three.numr" horiz-adv-x="673"/><glyph d="M371 856h-336v107q0 2 74.5 112.5t154.5 229t86 129.5h201v-435h90v-143h-90v-127h-180v127zM229 999h142v226z" glyph-name="four.numr" horiz-adv-x="679"/><glyph d="M37 940h172q8 -37 36.5 -59.5t67.5 -22.5q49 0 80 32t31 79t-31 78.5t-78 31.5q-68 0 -100 -57h-168l39 412h461v-142h-322l-12 -143q53 55 145 55q104 0 171 -64.5t67 -168.5q0 -115 -81 -183.5t-202 -68.5q-115 0 -192.5 58.5t-83.5 162.5z" glyph-name="five.numr" horiz-adv-x="655"/><glyph d="M360 719q-145 0 -223 93t-78 259q0 170 80 271.5t221 101.5q104 0 181 -54.5t90 -144.5h-174q-14 63 -92 64q-63 0 -99.5 -54.5t-36.5 -142.5q53 84 177 84q102 0 168.5 -64.5t66.5 -166.5q0 -115 -79 -180.5t-202 -65.5zM254 967q0 -49 29.5 -79t77 -30t77 30t29.5 77 q0 45 -30.5 76.5t-76 31.5t-76 -30.5t-30.5 -75.5z" glyph-name="six.numr" horiz-adv-x="700"/><glyph d="M39 1434h514v-93l-272 -612h-191l264 557h-315v148z" glyph-name="seven.numr" horiz-adv-x="571"/><glyph d="M84 1260q0 86 79 135t183 49q106 0 185 -49t79 -135q0 -53 -32.5 -96.5t-85.5 -61.5q66 -18 104.5 -64.5t38.5 -109.5q0 -98 -85 -153.5t-204 -55.5t-204 54t-85 153q0 63 40 110t106 66q-53 18 -86 61.5t-33 96.5zM436 1235q0 37 -24.5 60.5t-65.5 23.5 q-39 0 -64.5 -23.5t-25.5 -60.5t25.5 -58.5t64.5 -21.5q41 0 65.5 21.5t24.5 58.5zM453 942q0 39 -30 63.5t-77 24.5q-45 0 -75.5 -24.5t-30.5 -63.5q0 -41 30.5 -65.5t75.5 -24.5q47 0 77 24.5t30 65.5z" glyph-name="eight.numr" horiz-adv-x="694"/><glyph d="M338 1444q145 0 223 -93.5t78 -258.5q0 -168 -79 -270.5t-222 -102.5q-102 0 -179 55t-91 146h174q18 -66 92 -66q63 0 98 53.5t37 143.5q-55 -84 -176 -84q-100 0 -167 64.5t-67 166.5q0 115 79 180.5t200 65.5zM444 1198q0 47 -29.5 77t-76.5 30t-77 -29t-30 -76 t32 -77.5t77 -30.5t74.5 29.5t29.5 76.5z" glyph-name="nine.numr" horiz-adv-x="698"/><glyph d="M401 1528q295 0 295 -271v-446h-164l-14 94q-61 -109 -217 -108q-111 0 -179.5 55t-68.5 154q0 233 459 233v14q0 137 -123 138q-55 0 -91 -26t-40 -69h-174q4 106 91 169t226 63zM512 1077v51q-272 0 -272 -114q0 -43 32.5 -65.5t79.5 -22.5q74 0 117 40.5t43 110.5z " glyph-name="a.superior" horiz-adv-x="776"/><glyph d="M88 811v971h184v-373q76 121 230 121q133 0 217 -102.5t84 -264.5q0 -164 -84 -265t-217 -101q-154 0 -232 123l-14 -109h-168zM268 1163.5q0 -100.5 47 -161t125 -60.5t126 61.5t48 160t-48 159.5t-126 61t-125 -60t-47 -160.5z" glyph-name="b.superior" horiz-adv-x="851"/><glyph d="M412 942q121 0 143 123h184q-14 -125 -104 -196.5t-229 -71.5q-160 0 -258.5 101t-98.5 265t98.5 265.5t258.5 101.5q139 0 229 -73t104 -195h-184q-10 57 -48 88.5t-95 31.5q-82 0 -129 -59t-47 -160q0 -102 47 -161.5t129 -59.5z" glyph-name="c.superior" horiz-adv-x="778"/><glyph d="M760 811h-168l-14 109q-74 -123 -230 -123q-133 0 -217 101t-84 265q0 162 83 264.5t216 102.5q154 0 229 -121v373h185v-971zM582 1163.5q0 100.5 -48.5 160.5t-126 60t-124.5 -60t-47 -160.5t47 -161t124.5 -60.5t126 60.5t48.5 161z" glyph-name="d.superior" horiz-adv-x="851"/><glyph d="M750 1159v-37h-512q0 -82 47 -134t125 -52q111 0 147 92h186q-25 -106 -119 -168.5t-216 -62.5q-164 0 -261.5 100t-97.5 264q0 162 95.5 265.5t256.5 103.5q166 0 257.5 -100.5t91.5 -270.5zM240 1239h323q-16 154 -160 154q-68 0 -111.5 -42t-51.5 -112z" glyph-name="e.superior" horiz-adv-x="804"/><glyph d="M406 688q166 0 165 176v99q-72 -119 -219 -119q-133 0 -217 94t-84 247.5t83 249t218 95.5q150 0 221 -117l13 103h170v-639q0 -160 -95.5 -243t-261.5 -83q-137 0 -228 65.5t-103 174.5h182q25 -103 156 -103zM580 1186q0 90 -47.5 146.5t-124.5 56.5q-76 0 -123 -56.5 t-47 -146.5q0 -92 47 -148.5t123 -56.5q78 0 125 56.5t47 148.5z" glyph-name="g.superior" horiz-adv-x="837"/><glyph d="M184 1608q-47 0 -78.5 30.5t-31.5 75.5t31.5 75t78.5 30t78 -30t31 -75t-31 -75.5t-78 -30.5zM276 811h-186v705h186v-705z" glyph-name="i.superior" horiz-adv-x="366"/><glyph d="M272 811h-184v971h184v-971z" glyph-name="l.superior" horiz-adv-x="360"/><glyph d="M82 1516h168l14 -103q66 117 209 117q141 0 193 -125q72 125 225 125q102 0 164.5 -69.5t62.5 -186.5v-463h-184v432q0 133 -113 133q-59 0 -94 -42t-35 -117v-406h-184v432q0 133 -111 133q-61 0 -96 -46t-35 -126v-393h-184v705z" glyph-name="m.superior" horiz-adv-x="1193"/><glyph d="M483 1530q111 0 174.5 -68.5t63.5 -187.5v-463h-186v416q0 150 -127 149q-66 0 -103 -46t-37 -134v-385h-186v705h170l12 -103q76 117 219 117z" glyph-name="n.superior" horiz-adv-x="798"/><glyph d="M412 1530q160 0 260 -102.5t100 -264.5t-100.5 -264t-259.5 -102q-162 0 -262.5 101t-100.5 265t100.5 265.5t262.5 101.5zM409.5 942q77.5 0 126 60.5t48.5 161t-47.5 159.5t-126.5 59q-78 0 -125 -59t-47 -159.5t47 -161t124.5 -60.5z" glyph-name="o.superior" horiz-adv-x="821"/><glyph d="M492 1522v-166q-23 6 -56 6q-78 0 -123 -54.5t-45 -152.5v-344h-186v705h170l12 -105q23 53 70 85t100 32q33 0 58 -6z" glyph-name="r.superior" horiz-adv-x="516"/><glyph d="M248 1319q0 -29 28.5 -47.5t100.5 -32.5l47 -8q131 -27 186.5 -74t55.5 -129q0 -106 -81 -168.5t-220 -62.5q-135 0 -219.5 62.5t-94.5 170.5h182q2 -43 40 -70.5t98 -27.5q49 0 79.5 22.5t30.5 57.5q0 31 -28.5 50t-104.5 34l-45 10q-233 47 -233 203q0 98 78.5 159.5 t205.5 61.5q125 0 204 -59.5t87 -159.5h-172q-6 39 -38 62.5t-81 23.5q-47 0 -76.5 -21.5t-29.5 -56.5z" glyph-name="s.superior" horiz-adv-x="716"/><glyph d="M418 1376h-131v-352q0 -78 82 -78q31 0 55 8v-143q-41 -12 -98 -12q-117 0 -170.5 52t-53.5 169v356h-86v140h86v167h181v-167h135v-140z" glyph-name="t.superior" horiz-adv-x="479"/><glyph d="M436 1516v-140h-129v-565h-186v565h-98v140h98v47q0 121 54 174t173 53q61 0 94 -8v-142q-31 6 -51 7q-88 0 -88 -84v-47h133z" glyph-name="f.superior" horiz-adv-x="489"/><glyph d="M492 1530q109 0 171 -68.5t62 -187.5v-463h-184v416q0 150 -127 149q-66 0 -104 -47t-38 -133v-385h-184v971h184v-369q73 117 220 117z" glyph-name="h.superior" horiz-adv-x="802"/><glyph d="M166 1608q-47 0 -79 30.5t-32 75.5t32 75t79 30t77.5 -30t30.5 -75q0 -47 -30.5 -76.5t-77.5 -29.5zM72 1516h186v-709q0 -125 -70.5 -183.5t-218.5 -58.5v142q102 0 103 98v711z" glyph-name="j.superior" horiz-adv-x="346"/><glyph d="M461 1210l293 -399h-219l-205 285l-58 -56v-229h-184v971h184v-549l256 283h213z" glyph-name="k.superior" horiz-adv-x="755"/><glyph d="M84 1516h168l12 -109q76 123 232 123q141 0 222 -103.5t81 -263.5q0 -156 -83 -261t-220 -105q-154 0 -228 121v-353h-184v951zM262 1163.5q0 -100.5 48 -160t126 -59.5t125 59.5t47 160t-47 160.5t-125 60t-126 -60t-48 -160.5z" glyph-name="p.superior" horiz-adv-x="847"/><glyph d="M799 1516v-951h-187v353q-72 -121 -227 -121q-137 0 -219 105.5t-82 260.5q0 160 81 263.5t222 103.5q154 0 229 -123l15 109h168zM618 1163.5q0 100.5 -47 160.5t-124.5 60t-126 -60t-48.5 -160.5t48.5 -160t126 -59.5t124.5 59.5t47 160z" glyph-name="q.superior" horiz-adv-x="847"/><glyph d="M313 797q-111 0 -173 67.5t-62 188.5v463h186v-414q0 -74 34 -113t93 -39q66 0 102.5 46t36.5 134v386h187v-705h-170l-12 102q-75 -116 -222 -116z" glyph-name="u.superior" horiz-adv-x="796"/><glyph d="M537 1516h196l-264 -705h-180l-266 705h196l158 -492z" glyph-name="v.superior" horiz-adv-x="755"/><glyph d="M25 1516h190l131 -486l139 486h138l139 -486l131 486h190l-219 -705h-180l-129 438l-131 -438h-180z" glyph-name="w.superior" horiz-adv-x="1107"/><glyph d="M485 1176l256 -365h-213l-143 231l-143 -231h-213l254 365l-242 340h209l135 -216l135 216h209z" glyph-name="x.superior" horiz-adv-x="770"/><glyph d="M535 1516h196l-356 -951h-195l113 275l-270 676h196l164 -469z" glyph-name="y.superior" horiz-adv-x="755"/><glyph d="M324 958h360v-147h-616v92l360 463h-334v150h590v-93z" glyph-name="z.superior" horiz-adv-x="753"/><glyph d="M147 1130l205 240h174l203 -240h-186l-105 138l-102 -138h-189z" glyph-name="glyph508" horiz-adv-x="878"/><glyph d="M129 1053h264v-1063q0 -184 -102.5 -271.5t-317.5 -87.5v205q156 0 156 152v1065z" glyph-name="glyph509" horiz-adv-x="495"/><glyph d="M537 313q0 -176 -80 -256t-258 -80q-92 0 -138 13v205q49 -8 76 -9q133 0 133 129v234h-147v201h147v75q0 178 79 258t255 80q96 0 135 -14v-203q-49 8 -75 8q-133 0 -134 -129v-75h201v-201h-194v-236z" glyph-name="florin.aalt" horiz-adv-x="800"/><glyph d="M285 0h102q-41 -23 -66.5 -63.5t-25.5 -86.5q0 -100 135 -88v-133q-31 -6 -70 -6q-94 0 -152 45t-58 123q0 63 38 120.5t97 88.5z" glyph-name="glyph511" horiz-adv-x="579"/><glyph d="M182 698q0 256 78 490.5t221 408.5h230q-262 -385 -262 -899q0 -510 262 -903h-230q-143 174 -221 410.5t-78 492.5z" glyph-name="parenleft.case" horiz-adv-x="745"/><glyph d="M563 698q0 -256 -77.5 -492.5t-221.5 -410.5h-229q262 393 262 903q0 514 -262 899h229q143 -174 221 -408.5t78 -490.5z" glyph-name="parenright.case" horiz-adv-x="745"/><glyph d="M119 809h397v424h246v-424h397v-231h-397v-424h-246v424h-397v231z" glyph-name="plus.case" horiz-adv-x="1277"/><glyph d="M770 578h-651v229h651v-229z" glyph-name="hyphen.aalt" horiz-adv-x="888"/><glyph d="M1110 369v-267l-936 478v213l936 477v-266l-690 -318z" glyph-name="less.case" horiz-adv-x="1282"/><glyph d="M1128 819h-991v221h991v-221zM137 348v221h991v-221h-991z" glyph-name="equal.case" horiz-adv-x="1265"/><glyph d="M172 102v267l690 317l-690 318v266l936 -477v-213z" glyph-name="greater.case" horiz-adv-x="1282"/><glyph d="M729 -2v-203h-541v1802h541v-202h-274v-1397h274z" glyph-name="bracketleft.case" horiz-adv-x="755"/><glyph d="M803 -205h-256l-539 1802h256z" glyph-name="backslash.aalt" horiz-adv-x="811"/><glyph d="M27 -205v203h274v1397h-274v202h540v-1802h-540z" glyph-name="bracketright.case" horiz-adv-x="755"/><glyph d="M27 588v225q109 0 157.5 54.5t48.5 176.5v207q0 186 92.5 266t278.5 80l146 -6v-198q-27 2 -45 2q-113 0 -159 -37t-46 -146v-196q0 -113 -54.5 -203t-128.5 -113q74 -25 128.5 -113.5t54.5 -201.5v-201q0 -111 46 -148.5t159 -37.5l45 2v-197q-84 -8 -146 -8 q-186 0 -278.5 80t-92.5 270v209q0 125 -48.5 179.5t-157.5 54.5z" glyph-name="braceleft.aalt" horiz-adv-x="774"/><glyph d="M500 -205h-271v1802h271v-1802z" glyph-name="bar.aalt" horiz-adv-x="729"/><glyph d="M750 813v-225q-109 0 -158 -54.5t-49 -179.5v-209q0 -190 -92.5 -270t-278.5 -80l-145 8v197q27 -2 45 -2q113 0 158.5 38t45.5 148v201q0 113 54.5 202t128.5 113q-74 23 -128.5 113t-54.5 203v196q0 109 -46 146t-158 37l-45 -2v198q84 6 145 6q186 0 278.5 -79.5 t92.5 -266.5v-207q0 -123 49 -177t158 -54z" glyph-name="braceright.aalt" horiz-adv-x="774"/><glyph d="M133 553q-2 172 82 270.5t234 98.5q80 0 147.5 -32t105 -69t83.5 -68.5t87 -31.5q51 0 80 41t29 115h213q2 -174 -81 -271.5t-234 -97.5q-80 0 -148.5 31.5t-106.5 68.5t-85 69t-88 32q-104 0 -105 -156h-213z" glyph-name="asciitilde.aalt" horiz-adv-x="1327"/><glyph d="M174 1307q0 61 44 103t107.5 42t107.5 -42t44 -103q0 -63 -43 -105.5t-108.5 -42.5t-108.5 42.5t-43 105.5zM176 0l27 967h227l29 -967h-283z" glyph-name="exclamdown.case" horiz-adv-x="636"/><glyph d="M721 258h-270l-336 438l336 439h270l-344 -439zM1182 258h-271l-336 438l336 439h271l-344 -439z" glyph-name="guillemotleft.aalt" horiz-adv-x="1296"/><glyph d="M135 922h377v295h238v-295h368v-209h-368v-293h-238v293h-377v209zM135 102v209h983v-209h-983z" glyph-name="plusminus.aalt" horiz-adv-x="1251"/><glyph d="M164 684q0 63 43 105t108.5 42t108.5 -41.5t43 -105.5q0 -61 -44 -103t-107.5 -42t-107.5 42t-44 103z" glyph-name="periodcentered.aalt" horiz-adv-x="618"/><glyph d="M385 258h-270l344 438l-344 439h270l336 -439zM846 258h-271l345 438l-345 439h271l336 -439z" glyph-name="guillemotright.aalt" horiz-adv-x="1296"/><glyph d="M587.5 1448q63.5 0 109.5 -46t46 -105.5t-46 -103.5t-107.5 -44t-107.5 44t-46 103.5t44 105.5t107.5 46zM756 391h258q-4 -190 -136.5 -303t-338.5 -113q-199 0 -328 102.5t-129 284.5q0 94 39 163t95 108t111.5 72.5t95.5 81t42 110.5l2 100h248l2 -116 q0 -74 -25.5 -131.5t-66.5 -90t-88.5 -65.5t-88 -59.5t-68.5 -68.5t-28 -95q0 -84 56.5 -133.5t138.5 -49.5q90 0 148.5 54.5t60.5 148.5z" glyph-name="questiondown.case" horiz-adv-x="1069"/><glyph d="M188 399l291 289l-291 289l170 170l285 -291l285 291l170 -170l-291 -289l291 -289l-170 -170l-285 293l-285 -293z" glyph-name="multiply.case" horiz-adv-x="1286"/><glyph d="M461 1079.5q0 63.5 41 102.5t108 39q66 0 107 -39t41 -102.5t-41 -102.5t-107 -39q-68 0 -108.5 39t-40.5 102.5zM1087 590h-966v213h966v-213zM461 313.5q0 63.5 41 102.5t108 39q66 0 107 -39t41 -102.5t-41 -102.5t-107 -39q-68 0 -108.5 39t-40.5 102.5z" glyph-name="divide.case" horiz-adv-x="1208"/><glyph d="M72 717q0 346 153.5 542.5t421.5 196.5t422 -196.5t154 -542.5t-154 -543t-422 -197t-421.5 197t-153.5 543zM647 1227q-145 0 -223 -131t-78 -379t78 -379t223 -131q147 0 224 130t77 380t-77 380t-224 130z" glyph-name="zero.tnum"/><glyph d="M303 909v265l344 260h219v-1434h-268v1133z" glyph-name="one.tnum"/><glyph d="M133 0v172l576 541q96 90 139 157.5t43 139.5q0 106 -66.5 169.5t-177.5 63.5q-106 0 -172.5 -61.5t-75.5 -169.5h-264q8 199 152.5 320.5t371.5 121.5q223 0 363.5 -118.5t140.5 -307.5q0 -207 -225 -420l-406 -383h635v-225h-1034z" glyph-name="two.tnum"/><glyph d="M104 422h265q2 -100 77.5 -163.5t190.5 -63.5q117 0 191.5 64.5t74.5 162.5q0 100 -70.5 156.5t-195.5 56.5h-170v199h170q98 0 161.5 60t63.5 153q0 86 -63.5 142t-161.5 56q-100 0 -165.5 -62.5t-68.5 -156.5h-256q2 186 142.5 308t353.5 122q205 0 342 -105.5 t137 -263.5q0 -125 -72.5 -218t-193.5 -121q147 -25 234.5 -120.5t87.5 -232.5q0 -182 -152 -300t-389 -118q-231 0 -380 123t-153 322z" glyph-name="three.tnum"/><glyph d="M766 283h-694v170l688 981h276v-932h195v-219h-195v-283h-270v283zM375 502h391v585z" glyph-name="four.tnum"/><glyph d="M137 406h262q16 -96 88 -153.5t175 -57.5q123 0 199.5 78.5t76.5 199.5q0 119 -77 199t-193 80q-80 0 -151 -36t-105 -102h-256l82 820h864v-217h-653l-37 -396q111 133 313 133q211 0 344 -133t133 -342q0 -223 -151.5 -362.5t-388.5 -139.5q-217 0 -365 116t-160 313z " glyph-name="five.tnum"/><glyph d="M672 -23q-274 0 -425 187.5t-151 531.5q0 352 156 556t424 204q203 0 342 -105.5t168 -277.5h-266q-23 82 -86.5 127t-153.5 45q-150 0 -238 -136t-88 -370q49 98 149.5 156.5t233.5 58.5q205 0 337 -131t132 -342q0 -229 -145 -366.5t-389 -137.5zM403 475 q0 -123 76 -200.5t195 -77.5t193.5 76.5t74.5 199.5q0 117 -78 197t-190 80q-119 0 -195 -77t-76 -198z" glyph-name="six.tnum"/><glyph d="M154 1434h972v-152l-575 -1282h-287l567 1208h-677v226z" glyph-name="seven.tnum"/><glyph d="M150 1083q0 162 140 267.5t357 105.5t357.5 -105.5t140.5 -269.5q0 -111 -69.5 -197.5t-184.5 -123.5q141 -37 223 -135.5t82 -229.5q0 -184 -152.5 -301t-396.5 -117t-396.5 116t-152.5 300q0 131 83 230.5t222 136.5q-115 37 -184 124.5t-69 198.5zM881 1044 q0 92 -65.5 150.5t-168 58.5t-168 -58t-65.5 -151q0 -90 64.5 -145t169 -55t169 55t64.5 145zM924 418q0 100 -78 164.5t-199 64.5t-198.5 -64.5t-77.5 -164.5q0 -102 77.5 -167t198.5 -65t199 65t78 167z" glyph-name="eight.tnum"/><glyph d="M623 1456q276 0 425.5 -186.5t149.5 -532.5q0 -354 -153.5 -557t-426.5 -203q-201 0 -341 106.5t-166 276.5h266q20 -82 83.5 -127t153.5 -45q154 0 240 135.5t86 370.5q-49 -98 -149.5 -156.5t-233.5 -58.5q-203 0 -335 132t-132 341q0 229 145.5 366.5t387.5 137.5z M891 958q0 123 -75 201t-193.5 78t-193.5 -78t-75 -198q0 -117 77 -197t192 -80q117 0 192.5 77.5t75.5 196.5z" glyph-name="nine.tnum"/><glyph d="M70 633q0 307 140 481t384 174q246 0 385 -174t139 -481q0 -305 -139 -480.5t-385 -175.5q-244 0 -384 175.5t-140 480.5zM594 1059q-121 0 -185.5 -108.5t-64.5 -315.5t64.5 -316.5t185.5 -109.5q123 0 187.5 108.5t64.5 317.5q0 207 -64.5 315.5t-187.5 108.5z" glyph-name="zero.oldstyle" horiz-adv-x="1189"/><glyph d="M137 766v264l295 240h221v-1270h-270v969z" glyph-name="one.oldstyle" horiz-adv-x="866"/><glyph d="M90 0v176l506 455q90 80 125 136t35 120q0 86 -55.5 139t-145.5 53q-86 0 -141.5 -50t-61.5 -136h-258q6 178 138.5 287.5t338.5 109.5q203 0 328 -108.5t125 -286.5q0 -100 -51 -191.5t-180 -203.5l-306 -275h541v-225h-938z" glyph-name="two.oldstyle" horiz-adv-x="1114"/><glyph d="M80 258h264q2 -100 78 -163.5t190 -63.5q117 0 192 64.5t75 162.5q0 100 -71 156.5t-196 56.5h-172v199h172q98 0 162 60.5t64 152.5q0 86 -63.5 142t-164.5 56q-98 0 -163.5 -62.5t-67.5 -156.5h-256q2 186 142.5 308t352.5 122q205 0 342.5 -105.5t137.5 -262.5 q0 -125 -73 -218.5t-194 -121.5q147 -25 234.5 -120t87.5 -233q0 -182 -151.5 -299.5t-389.5 -117.5q-231 0 -379.5 122.5t-152.5 321.5z" glyph-name="three.oldstyle" horiz-adv-x="1245"/><glyph d="M766 119h-696v170l690 981h274v-932h195v-219h-195v-283h-268v283zM373 338h393v586z" glyph-name="four.oldstyle" horiz-adv-x="1292"/><glyph d="M113 242h262q16 -96 89 -153.5t175 -57.5q121 0 198.5 78.5t77.5 199.5q0 119 -77.5 199t-194.5 80q-78 0 -148.5 -36t-105.5 -101h-258l82 819h864v-217h-653l-37 -396q111 133 315 134q209 0 343.5 -133.5t134.5 -342.5q0 -223 -151.5 -362t-389.5 -139 q-217 0 -364.5 115.5t-161.5 312.5z" glyph-name="five.oldstyle" horiz-adv-x="1247"/><glyph d="M662 -23q-274 0 -426 187.5t-152 531.5q0 352 155.5 556t424.5 204q203 0 342 -105.5t168 -277.5h-267q-20 82 -83.5 127t-155.5 45q-150 0 -238 -136t-88 -370q49 98 149.5 156.5t233.5 58.5q205 0 337 -131t132 -342q0 -229 -145 -366.5t-387 -137.5zM391 475 q0 -123 76 -200.5t194.5 -77.5t193.5 76.5t75 199.5q0 117 -77 197t-191 80q-119 0 -195 -77t-76 -198z" glyph-name="six.oldstyle" horiz-adv-x="1269"/><glyph d="M63 1270h973v-152l-575 -1282h-287l569 1208h-680v226z" glyph-name="seven.oldstyle" horiz-adv-x="1116"/><glyph d="M135 1083q0 162 141.5 267.5t356.5 105.5q217 0 357 -105.5t140 -269.5q0 -111 -68.5 -197.5t-184.5 -123.5q141 -37 224 -135.5t83 -229.5q0 -184 -153.5 -301t-397.5 -117t-396.5 116t-152.5 300q0 131 83 230.5t224 136.5q-117 37 -186.5 124.5t-69.5 198.5zM868 1044 q0 92 -66.5 150.5t-169 58.5t-168 -58t-65.5 -151q0 -90 64.5 -145t169 -55t170 56t65.5 144zM909 418q0 100 -77.5 164.5t-198.5 64.5t-198 -64.5t-77 -164.5q0 -102 77 -167t198 -65t198.5 65t77.5 167z" glyph-name="eight.oldstyle" horiz-adv-x="1265"/><glyph d="M608 1292q279 0 427.5 -185t148.5 -534q0 -352 -153.5 -555.5t-424.5 -203.5q-201 0 -341 106.5t-167 276.5h264q23 -82 85.5 -127t152.5 -45q154 0 240 135t86 370q-49 -98 -148.5 -156.5t-232.5 -58.5q-203 0 -335 131.5t-132 341.5q0 229 144 366.5t386 137.5z M879 795q0 123 -76 200.5t-195 77.5t-192.5 -77.5t-73.5 -198.5q0 -117 77 -197t191 -80q117 0 193 78t76 197z" glyph-name="nine.oldstyle" horiz-adv-x="1267"/><glyph d="M127 707h397v423h246v-423h397v-232h-397v-424h-246v424h-397v232z" glyph-name="plus.tnum"/><glyph d="M1116 266v-266l-936 477v213l936 477v-266l-690 -317z" glyph-name="less.tnum"/><glyph d="M1143 717h-991v221h991v-221zM152 246v221h991v-221h-991z" glyph-name="equal.tnum"/><glyph d="M178 0v266l690 318l-690 317v266l936 -477v-213z" glyph-name="greater.tnum"/><glyph d="M193 297l290 289l-290 288l169 170l285 -290l285 290l170 -170l-291 -288l291 -289l-170 -170l-285 293l-285 -293z" glyph-name="multiply.tnum"/><glyph d="M504 976.5q0 63.5 41 102.5t106 39q68 0 109 -39t41 -102.5t-41 -102t-109 -38.5q-66 0 -106.5 38.5t-40.5 102zM1130 487h-966v213h966v-213zM504 210.5q0 63.5 41 102.5t106 39q68 0 109 -39t41 -102.5t-41 -102t-109 -38.5q-66 0 -106.5 38.5t-40.5 102z" glyph-name="divide.tnum"/><glyph d="M1176 475h-1057v230h1057v-230z" glyph-name="minus.tnum"/><glyph d="M117 653q2 156 88 244t233 88q80 0 145.5 -27.5t101.5 -60.5t80 -60.5t85 -27.5q49 0 80 32.5t35 86.5h213q-2 -156 -87 -243t-233 -87q-80 0 -146.5 27.5t-103.5 60.5t-82 60.5t-86 27.5q-49 0 -78.5 -31.5t-31.5 -89.5h-213zM117 172q2 156 88 244t233 88 q80 0 145.5 -27.5t101.5 -60.5t80 -60.5t85 -27.5q49 0 81 31.5t34 86.5h213q-2 -156 -87 -243.5t-233 -87.5q-80 0 -146.5 27.5t-103.5 60.5t-82 60.5t-86 27.5q-49 0 -78.5 -32t-31.5 -87h-213z" glyph-name="approxequal.tnum"/><glyph d="M152 246v221h323l98 250h-421v221h510l73 188h250l-76 -188h234v-221h-322l-98 -250h420v-221h-508l-74 -189h-250l76 189h-235z" glyph-name="notequal.tnum"/><glyph d="M1155 362l-1016 302v210l1016 306v-250l-672 -160l672 -158v-250zM1155 61h-1016v211h1016v-211z" glyph-name="lessequal.tnum"/><glyph d="M139 362v250l672 158l-672 160v250l1016 -306v-210zM139 61v211h1016v-211h-1016z" glyph-name="greaterequal.tnum"/><glyph d="M150 686.5q0 104.5 72.5 176t181 71.5t181 -71.5t72.5 -176t-72.5 -176.5t-181 -72t-181 72t-72.5 176.5z" glyph-name="bullet.aalt" horiz-adv-x="806"/><glyph d="M176 686.5q0 104.5 73 176t181.5 71.5t181 -71.5t72.5 -176t-72.5 -176.5t-181 -72t-181.5 72t-73 176.5z" glyph-name="glyph566" horiz-adv-x="860"/><glyph d="M61 690.5q0 192.5 127 301t287 108.5q242 0 432 -254q190 254 432 254q160 0 287 -108.5t127 -301t-127 -301t-287 -108.5q-242 0 -432 254q-190 -254 -432 -254q-160 0 -287 108.5t-127 301zM1323 893q-80 0 -148.5 -51t-146.5 -152q156 -201 295 -201q82 0 139.5 61.5 t57.5 139.5t-57.5 140.5t-139.5 62.5zM295 690q0 -78 57.5 -139.5t139.5 -61.5q139 0 294 201q-78 100 -146.5 151.5t-147.5 51.5q-82 0 -139.5 -62.5t-57.5 -140.5z" glyph-name="infinity.aalt" horiz-adv-x="1816"/><glyph d="M121 633q0 307 140 481t384 174q246 0 385 -174t139 -481q0 -305 -139 -480.5t-385 -175.5q-244 0 -384 175.5t-140 480.5zM645 1059q-121 0 -185.5 -108.5t-64.5 -315.5t64.5 -316.5t185.5 -109.5q123 0 187.5 108.5t64.5 317.5q0 207 -64.5 315.5t-187.5 108.5z" glyph-name="glyph568"/><glyph d="M352 766v264l295 240h219v-1270h-268v969z" glyph-name="glyph569"/><glyph d="M180 0v176l504 455q90 80 126 136t36 120q0 86 -55.5 139t-145.5 53q-88 0 -142 -49t-61 -137h-260q6 178 138.5 287.5t338.5 109.5q205 0 330 -107.5t125 -287.5q0 -100 -51 -191.5t-180 -203.5l-305 -275h538v-225h-936z" glyph-name="glyph570"/><glyph d="M104 258h265q2 -100 77.5 -163.5t190.5 -63.5q117 0 191.5 64.5t74.5 162.5q0 100 -70.5 156.5t-195.5 56.5h-170v199h170q98 0 161.5 60.5t63.5 152.5q0 86 -63.5 142t-161.5 56q-100 0 -165.5 -62.5t-68.5 -156.5h-256q2 186 142.5 308t353.5 122q205 0 342 -105.5 t137 -262.5q0 -125 -72.5 -218.5t-193.5 -121.5q147 -25 234.5 -120t87.5 -233q0 -182 -152 -299.5t-389 -117.5q-231 0 -380 122.5t-153 321.5z" glyph-name="glyph571"/><glyph d="M766 119h-694v170l688 981h276v-932h195v-219h-195v-283h-270v283zM375 338h391v586z" glyph-name="glyph572"/><glyph d="M137 242h262q16 -96 88 -153.5t175 -57.5q123 0 199.5 78.5t76.5 199.5q0 119 -77 199t-193 80q-80 0 -151 -36t-105 -101h-256l82 819h864v-217h-653l-37 -396q111 133 313 134q211 0 344 -133.5t133 -342.5q0 -223 -151.5 -362t-388.5 -139q-217 0 -365 115.5 t-160 312.5z" glyph-name="glyph573"/><glyph d="M672 -23q-274 0 -425 187.5t-151 531.5q0 352 156 556t424 204q203 0 342 -105.5t168 -277.5h-266q-23 82 -86.5 127t-153.5 45q-150 0 -238 -136t-88 -370q49 98 149.5 156.5t233.5 58.5q205 0 337 -131t132 -342q0 -229 -145 -366.5t-389 -137.5zM403 475 q0 -123 76 -200.5t195 -77.5t193.5 76.5t74.5 199.5q0 117 -78 197t-190 80q-119 0 -195 -77t-76 -198z" glyph-name="glyph574"/><glyph d="M154 1270h972v-152l-575 -1282h-287l567 1208h-677v226z" glyph-name="glyph575"/><glyph d="M150 1083q0 162 140 267.5t357 105.5t357.5 -105.5t140.5 -269.5q0 -111 -69.5 -197.5t-184.5 -123.5q141 -37 223 -135.5t82 -229.5q0 -184 -152.5 -301t-396.5 -117t-396.5 116t-152.5 300q0 131 83 230.5t222 136.5q-115 37 -184 124.5t-69 198.5zM881 1044 q0 92 -65.5 150.5t-168 58.5t-168 -58t-65.5 -151q0 -90 64.5 -145t169 -55t169 55t64.5 145zM924 418q0 100 -78 164.5t-199 64.5t-198.5 -64.5t-77.5 -164.5q0 -102 77.5 -167t198.5 -65t199 65t78 167z" glyph-name="glyph576"/><glyph d="M623 1292q276 0 425.5 -186t149.5 -533q0 -354 -153.5 -556.5t-426.5 -202.5q-201 0 -341 106.5t-166 276.5h266q20 -82 83.5 -127t153.5 -45q154 0 240 135t86 370q-49 -98 -149.5 -156.5t-233.5 -58.5q-203 0 -335 132.5t-132 340.5q0 229 145.5 366.5t387.5 137.5z M891 795q0 123 -75 200.5t-193.5 77.5t-193.5 -77.5t-75 -198.5q0 -117 77 -197t192 -80q117 0 192.5 78t75.5 197z" glyph-name="glyph577"/><glyph d="M59 344q0 168 80 266.5t223 98.5q145 0 225.5 -98.5t80.5 -266.5t-80 -267.5t-226 -99.5q-143 0 -223 99.5t-80 267.5zM362 557q-121 0 -120 -213q0 -96 29.5 -155.5t90.5 -59.5q123 0 123 215q0 213 -123 213z" glyph-name="zero.dnom" horiz-adv-x="727"/><glyph d="M47 403v168l182 125h146v-704h-180v514z" glyph-name="one.dnom" horiz-adv-x="495"/><glyph d="M31 -8v112l278 248q86 78 86 131q0 39 -26.5 62.5t-67.5 23.5q-43 0 -69.5 -26.5t-28.5 -71.5h-172q2 109 80.5 172.5t199.5 63.5q115 0 191 -55.5t76 -151.5q0 -106 -123 -215l-154 -142h281v-151h-551z" glyph-name="two.dnom" horiz-adv-x="638"/><glyph d="M45 211h176q0 -41 30 -65.5t75 -24.5t75.5 24.5t30.5 63.5t-32.5 59.5t-82.5 20.5l-79 -2v129h75q45 0 75 20.5t30 59.5q0 35 -25.5 55t-64.5 20q-41 0 -68 -24.5t-27 -63.5h-165q0 102 75.5 163t188.5 61q104 0 180 -48.5t76 -136.5q0 -59 -34 -104t-91 -60 q70 -12 110.5 -57t40.5 -113q0 -96 -84 -151t-202.5 -55t-199.5 61.5t-83 167.5z" glyph-name="three.dnom" horiz-adv-x="673"/><glyph d="M371 119h-336v106q0 2 74.5 113t154.5 229.5t86 128.5h201v-434h90v-143h-90v-127h-180v127zM229 262h142v225z" glyph-name="four.dnom" horiz-adv-x="679"/><glyph d="M37 203h172q8 -37 36.5 -59.5t67.5 -22.5q49 0 80 31.5t31 79t-31 79t-78 31.5q-68 0 -100 -57h-168l39 411h461v-141h-322l-12 -143q53 55 145 55q104 0 171 -64.5t67 -169.5q0 -115 -81 -183t-202 -68q-115 0 -192.5 58.5t-83.5 162.5z" glyph-name="five.dnom" horiz-adv-x="655"/><glyph d="M360 -18q-145 0 -223 93t-78 259q0 170 80 271.5t221 101.5q104 0 181 -54.5t90 -144.5h-174q-14 63 -92 63q-63 0 -99.5 -54t-36.5 -142q53 84 177 84q102 0 168.5 -64.5t66.5 -167.5q0 -115 -79 -180t-202 -65zM254 229q0 -49 29.5 -78.5t77 -29.5t77 29.5t29.5 76.5 q0 45 -30.5 77t-76 32t-76 -31t-30.5 -76z" glyph-name="six.dnom" horiz-adv-x="700"/><glyph d="M39 696h514v-92l-272 -612h-191l264 557h-315v147z" glyph-name="seven.dnom" horiz-adv-x="571"/><glyph d="M84 522q0 86 79 135.5t183 49.5q106 0 185 -49.5t79 -135.5q0 -53 -32.5 -96t-85.5 -61q66 -18 104.5 -64.5t38.5 -110.5q0 -98 -85 -153t-204 -55t-204 54t-85 152q0 63 40 110.5t106 66.5q-53 18 -86 61t-33 96zM436 498q0 37 -24.5 60.5t-65.5 23.5q-39 0 -64.5 -23.5 t-25.5 -60.5t25.5 -58.5t64.5 -21.5q41 0 65.5 21.5t24.5 58.5zM453 205q0 39 -30 63.5t-77 24.5q-45 0 -75.5 -24.5t-30.5 -63.5q0 -41 30.5 -65.5t75.5 -24.5q47 0 77 24.5t30 65.5z" glyph-name="eight.dnom" horiz-adv-x="694"/><glyph d="M338 707q145 0 223 -93.5t78 -259.5q0 -168 -79 -270t-222 -102q-102 0 -179 55t-91 145h174q18 -66 92 -65q63 0 98 53t37 143q-55 -84 -176 -84q-100 0 -167 64.5t-67 167.5q0 115 79 180.5t200 65.5zM444 461q0 47 -29.5 76.5t-76.5 29.5t-77 -28.5t-30 -75.5t32 -78 t77 -31t74.5 30t29.5 77z" glyph-name="nine.dnom" horiz-adv-x="698"/><glyph d="M59 1163q0 168 80 266.5t223 98.5q145 0 225.5 -98.5t80.5 -266.5t-80 -267t-226 -99q-143 0 -223 99t-80 267zM362 1376q-121 0 -120 -213q0 -96 29.5 -155.5t90.5 -59.5q123 0 123 215q0 213 -123 213z" glyph-name="zero.superior" horiz-adv-x="727"/><glyph d="M47 1223v168l182 125h146v-705h-180v514z" glyph-name="glyph589" horiz-adv-x="495"/><glyph d="M31 811v113l278 247q86 78 86 132q0 39 -26.5 62.5t-67.5 23.5q-43 0 -69.5 -27t-28.5 -72h-172q2 109 80.5 172.5t199.5 63.5q115 0 191 -55.5t76 -151.5q0 -106 -123 -215l-154 -141h281v-152h-551z" glyph-name="glyph590" horiz-adv-x="638"/><glyph d="M45 1030h176q0 -41 30 -65.5t75 -24.5t75.5 24.5t30.5 63.5t-32.5 59.5t-82.5 20.5l-79 -2v129h75q45 0 75 20.5t30 59.5q0 35 -25.5 55.5t-64.5 20.5q-41 0 -68 -25t-27 -63h-165q0 102 75.5 162.5t188.5 60.5q104 0 180 -48t76 -137q0 -59 -34 -104t-91 -59 q70 -12 110.5 -57.5t40.5 -112.5q0 -96 -84 -151.5t-202.5 -55.5t-199.5 61.5t-83 167.5z" glyph-name="glyph591" horiz-adv-x="673"/><glyph d="M371 938h-336v106q0 2 74.5 113t154.5 229.5t86 129.5h201v-435h90v-143h-90v-127h-180v127zM229 1081h142v226z" glyph-name="four.superior" horiz-adv-x="679"/><glyph d="M37 1022h172q8 -37 36.5 -59.5t67.5 -22.5q49 0 80 32t31 79t-31 78.5t-78 31.5q-68 0 -100 -57h-168l39 412h461v-142h-322l-12 -143q53 55 145 55q104 0 171 -64.5t67 -168.5q0 -115 -81 -183.5t-202 -68.5q-115 0 -192.5 58.5t-83.5 162.5z" glyph-name="five.superior" horiz-adv-x="655"/><glyph d="M360 801q-145 0 -223 93t-78 259q0 170 80 271.5t221 101.5q104 0 181 -54.5t90 -144.5h-174q-14 63 -92 64q-63 0 -99.5 -54.5t-36.5 -142.5q53 84 177 84q102 0 168.5 -64.5t66.5 -166.5q0 -115 -79 -180.5t-202 -65.5zM254 1049q0 -49 29.5 -79t77 -30t77 29.5 t29.5 77.5q0 45 -30.5 76.5t-76 31.5t-76 -30.5t-30.5 -75.5z" glyph-name="six.superior" horiz-adv-x="700"/><glyph d="M39 1516h514v-93l-272 -612h-191l264 557h-315v148z" glyph-name="seven.superior" horiz-adv-x="571"/><glyph d="M84 1341q0 86 79 135.5t183 49.5q106 0 185 -49.5t79 -135.5q0 -53 -32.5 -96t-85.5 -61q66 -18 104.5 -64.5t38.5 -109.5q0 -98 -85 -153.5t-204 -55.5t-204 54t-85 153q0 63 40 110t106 66q-53 18 -86 61t-33 96zM436 1317q0 37 -24.5 60.5t-65.5 23.5 q-39 0 -64.5 -23.5t-25.5 -60.5t25.5 -58.5t64.5 -21.5q41 0 65.5 21.5t24.5 58.5zM453 1024q0 39 -30 63.5t-77 24.5q-45 0 -75.5 -24.5t-30.5 -63.5q0 -41 30.5 -65.5t75.5 -24.5q47 0 77 24.5t30 65.5z" glyph-name="eight.superior" horiz-adv-x="694"/><glyph d="M338 1526q145 0 223 -93.5t78 -258.5q0 -168 -79 -270.5t-222 -102.5q-102 0 -179 55t-91 145h174q18 -66 92 -65q63 0 98 53t37 144q-55 -84 -176 -84q-100 0 -167 64.5t-67 166.5q0 115 79 180.5t200 65.5zM444 1280q0 47 -29.5 76.5t-76.5 29.5t-77 -28.5t-30 -75.5 t32 -77.5t77 -30.5t74.5 29.5t29.5 76.5z" glyph-name="nine.superior" horiz-adv-x="698"/><glyph d="M59 180q0 168 80 266.5t223 98.5q145 0 225.5 -98.5t80.5 -266.5t-80 -267t-226 -99q-143 0 -223 99t-80 267zM362 393q-121 0 -120 -213q0 -96 29.5 -155.5t90.5 -59.5q123 0 123 215q0 213 -123 213z" glyph-name="zero.sinf" horiz-adv-x="727"/><glyph d="M47 240v168l182 124h146v-704h-180v514z" glyph-name="one.sinf" horiz-adv-x="495"/><glyph d="M31 -172v113l278 247q86 78 86 131q0 39 -26.5 63t-67.5 24q-43 0 -69.5 -27t-28.5 -72h-172q2 109 80.5 172.5t199.5 63.5q115 0 191 -55.5t76 -151.5q0 -106 -123 -215l-154 -141h281v-152h-551z" glyph-name="two.sinf" horiz-adv-x="638"/><glyph d="M45 47h176q0 -41 30 -65.5t75 -24.5t75.5 24.5t30.5 63.5t-32.5 59.5t-82.5 20.5l-79 -2v129h75q45 0 75 20.5t30 59.5q0 35 -25.5 55.5t-64.5 20.5q-41 0 -68 -25t-27 -64h-165q0 102 75.5 163t188.5 61q104 0 180 -48.5t76 -136.5q0 -59 -34 -104t-91 -59 q70 -12 110.5 -57.5t40.5 -112.5q0 -96 -84 -151.5t-202.5 -55.5t-199.5 61.5t-83 167.5z" glyph-name="three.sinf" horiz-adv-x="673"/><glyph d="M371 -45h-336v106q0 2 74.5 113t154.5 229.5t86 128.5h201v-434h90v-143h-90v-127h-180v127zM229 98h142v226z" glyph-name="four.sinf" horiz-adv-x="679"/><glyph d="M37 39h172q8 -37 36.5 -59.5t67.5 -22.5q49 0 80 31.5t31 79t-31 79t-78 31.5q-68 0 -100 -57h-168l39 411h461v-141h-322l-12 -143q53 55 145 55q104 0 171 -64.5t67 -168.5q0 -115 -81 -183.5t-202 -68.5q-115 0 -192.5 58.5t-83.5 162.5z" glyph-name="five.sinf" horiz-adv-x="655"/><glyph d="M360 -182q-145 0 -223 93t-78 259q0 170 80 271.5t221 101.5q104 0 181 -54.5t90 -144.5h-174q-14 63 -92 64q-63 0 -99.5 -54.5t-36.5 -142.5q53 84 177 84q102 0 168.5 -64.5t66.5 -167.5q0 -115 -79 -180t-202 -65zM254 66q0 -49 29.5 -79t77 -30t77 29.5t29.5 76.5 q0 45 -30.5 77t-76 32t-76 -30.5t-30.5 -75.5z" glyph-name="six.sinf" horiz-adv-x="700"/><glyph d="M39 532h514v-92l-272 -612h-191l264 557h-315v147z" glyph-name="seven.sinf" horiz-adv-x="571"/><glyph d="M84 358q0 86 79 135.5t183 49.5q106 0 185 -49.5t79 -135.5q0 -53 -32.5 -96t-85.5 -61q66 -18 104.5 -64.5t38.5 -109.5q0 -98 -85 -153.5t-204 -55.5t-204 54t-85 153q0 63 40 110t106 66q-53 18 -86 61t-33 96zM436 334q0 37 -24.5 60.5t-65.5 23.5q-39 0 -64.5 -23.5 t-25.5 -60.5t25.5 -58.5t64.5 -21.5q41 0 65.5 21.5t24.5 58.5zM453 41q0 39 -30 63.5t-77 24.5q-45 0 -75.5 -24.5t-30.5 -63.5q0 -41 30.5 -65.5t75.5 -24.5q47 0 77 24.5t30 65.5z" glyph-name="eight.sinf" horiz-adv-x="694"/><glyph d="M338 543q145 0 223 -93.5t78 -259.5q0 -168 -79 -270t-222 -102q-102 0 -179 55t-91 145h174q18 -66 92 -65q63 0 98 53t37 144q-55 -84 -176 -84q-100 0 -167 64.5t-67 166.5q0 115 79 180.5t200 65.5zM444 297q0 47 -29.5 76.5t-76.5 29.5t-77 -28.5t-30 -75.5t32 -78 t77 -31t74.5 30t29.5 77z" glyph-name="nine.sinf" horiz-adv-x="698"/><glyph d="M573 1518l105 -256h-156l-162 256h213zM748 1147l409 -1147h-272l-72 217h-436l-72 -217h-268l407 1147h304zM432 410h330l-166 505z" glyph-name="Agrave.aalt" horiz-adv-x="1191"/><glyph d="M305 1245l205 240h174l203 -240h-187l-104 137l-102 -137h-189zM748 1147l409 -1147h-272l-72 217h-436l-72 -217h-268l407 1147h304zM432 410h330l-166 505z" glyph-name="Acircumflex.aalt" horiz-adv-x="1191"/><glyph d="M342 1262q-2 86 38 133t114 47q59 0 114.5 -40t73.5 -40q20 0 32.5 16.5t10.5 42.5h125q2 -88 -38 -135t-112 -47q-61 0 -118.5 41t-73.5 41q-45 0 -41 -59h-125zM748 1147l409 -1147h-272l-72 217h-436l-72 -217h-268l407 1147h304zM432 410h330l-166 505z" glyph-name="Atilde.aalt" horiz-adv-x="1191"/><glyph d="M262 1386q0 57 41 97.5t100.5 40.5t100.5 -40t41 -98q0 -59 -41 -99t-100.5 -40t-100.5 40t-41 99zM647 1386q0 57 41 97.5t100.5 40.5t100.5 -40t41 -98q0 -59 -41 -99t-100.5 -40t-100.5 40t-41 99zM748 1147l409 -1147h-272l-72 217h-436l-72 -217h-268l407 1147h304z M432 410h330l-166 505z" glyph-name="Adieresis.aalt" horiz-adv-x="1191"/><glyph d="M487 1518l105 -256h-156l-162 256h213zM903 936h-520v-256h455v-201h-455v-268h520v-211h-790v1147h790v-211z" glyph-name="Egrave.aalt" horiz-adv-x="993"/><glyph d="M532 1518h213l-161 -256h-156zM903 936h-520v-256h455v-201h-455v-268h520v-211h-790v1147h790v-211z" glyph-name="Eacute.aalt" horiz-adv-x="993"/><glyph d="M217 1245l205 240h174l203 -240h-187l-104 137l-102 -137h-189zM903 936h-520v-256h455v-201h-455v-268h520v-211h-790v1147h790v-211z" glyph-name="Ecircumflex.aalt" horiz-adv-x="993"/><glyph d="M176 1386q0 57 41 97.5t100.5 40.5t100.5 -40t41 -98q0 -59 -41 -99t-100.5 -40t-100.5 40t-41 99zM561 1386q0 57 41 97.5t100.5 40.5t100.5 -40t41 -98q0 -59 -41 -99t-100.5 -40t-100.5 40t-41 99zM903 936h-520v-256h455v-201h-455v-268h520v-211h-790v1147h790v-211 z" glyph-name="Edieresis.aalt" horiz-adv-x="993"/><glyph d="M223 1518l105 -256h-156l-162 256h213zM383 0h-270v1147h270v-1147z" glyph-name="Igrave.aalt" horiz-adv-x="493"/><glyph d="M268 1518h213l-162 -256h-155zM383 0h-270v1147h270v-1147z" glyph-name="Iacute.aalt" horiz-adv-x="493"/><glyph d="M-45 1245l205 240h174l203 -240h-187l-104 137l-103 -137h-188zM383 0h-270v1147h270v-1147z" glyph-name="Icircumflex.aalt" horiz-adv-x="493"/><glyph d="M-88 1386q0 57 41 97.5t100.5 40.5t100.5 -40t41 -98q0 -59 -41 -99t-100.5 -40t-100.5 40t-41 99zM297 1386q0 57 41 97.5t100.5 40.5t100.5 -40t41 -98q0 -59 -41 -99t-100.5 -40t-100.5 40t-41 99zM383 0h-270v1147h270v-1147z" glyph-name="Idieresis.aalt" horiz-adv-x="493"/><glyph d="M360 1262q-2 86 38 133t114 47q61 0 116.5 -40t71.5 -40q20 0 32.5 16.5t10.5 42.5h125q2 -88 -37.5 -135t-111.5 -47q-61 0 -118.5 41t-74.5 41q-45 0 -41 -59h-125zM852 1147h264v-1147h-293l-448 735v-735h-262v1147h290l449 -735v735z" glyph-name="Ntilde.aalt" horiz-adv-x="1226"/><glyph d="M635 1518l104 -256h-155l-162 256h213zM657.5 1165q262.5 0 422 -162.5t159.5 -429t-159.5 -429t-422 -162.5t-422 162.5t-159.5 429t159.5 429t422 162.5zM657.5 197q141.5 0 224.5 102t83 274t-83 274.5t-224.5 102.5t-224.5 -102.5t-83 -274.5t83 -274t224.5 -102z " glyph-name="Ograve.aalt" horiz-adv-x="1314"/><glyph d="M680 1518h213l-162 -256h-156zM657.5 1165q262.5 0 422 -162.5t159.5 -429t-159.5 -429t-422 -162.5t-422 162.5t-159.5 429t159.5 429t422 162.5zM657.5 197q141.5 0 224.5 102t83 274t-83 274.5t-224.5 102.5t-224.5 -102.5t-83 -274.5t83 -274t224.5 -102z" glyph-name="Oacute.aalt" horiz-adv-x="1314"/><glyph d="M367 1245l204 240h174l203 -240h-186l-105 137l-102 -137h-188zM657.5 1165q262.5 0 422 -162.5t159.5 -429t-159.5 -429t-422 -162.5t-422 162.5t-159.5 429t159.5 429t422 162.5zM657.5 197q141.5 0 224.5 102t83 274t-83 274.5t-224.5 102.5t-224.5 -102.5t-83 -274.5 t83 -274t224.5 -102z" glyph-name="Ocircumflex.aalt" horiz-adv-x="1314"/><glyph d="M406 1262q-2 86 37.5 133t113.5 47q61 0 116.5 -40t71.5 -40q20 0 33 16.5t10 42.5h125q2 -88 -37.5 -135t-111.5 -47q-61 0 -118.5 41t-74.5 41q-45 0 -41 -59h-124zM657.5 1165q262.5 0 422 -162.5t159.5 -429t-159.5 -429t-422 -162.5t-422 162.5t-159.5 429 t159.5 429t422 162.5zM657.5 197q141.5 0 224.5 102t83 274t-83 274.5t-224.5 102.5t-224.5 -102.5t-83 -274.5t83 -274t224.5 -102z" glyph-name="Otilde.aalt" horiz-adv-x="1314"/><glyph d="M324 1386q0 57 41 97.5t100 40.5t100 -40t41 -98q0 -59 -41 -99t-100 -40t-100 40t-41 99zM709 1386q0 57 41 97.5t100 40.5t100 -40t41 -98q0 -59 -41 -99t-100 -40t-100 40t-41 99zM657.5 1165q262.5 0 422 -162.5t159.5 -429t-159.5 -429t-422 -162.5t-422 162.5 t-159.5 429t159.5 429t422 162.5zM657.5 197q141.5 0 224.5 102t83 274t-83 274.5t-224.5 102.5t-224.5 -102.5t-83 -274.5t83 -274t224.5 -102z" glyph-name="Odieresis.aalt" horiz-adv-x="1314"/><glyph d="M571 1518l105 -256h-156l-162 256h213zM811 1147h268v-721q0 -201 -132 -322.5t-351 -121.5t-351 121.5t-132 322.5v721h270v-711q0 -117 55.5 -179t157.5 -62t158.5 62t56.5 179v711z" glyph-name="Ugrave.aalt" horiz-adv-x="1191"/><glyph d="M616 1518h213l-161 -256h-156zM811 1147h268v-721q0 -201 -132 -322.5t-351 -121.5t-351 121.5t-132 322.5v721h270v-711q0 -117 55.5 -179t157.5 -62t158.5 62t56.5 179v711z" glyph-name="Uacute.aalt" horiz-adv-x="1191"/><glyph d="M305 1245l205 240h174l203 -240h-187l-104 137l-102 -137h-189zM811 1147h268v-721q0 -201 -132 -322.5t-351 -121.5t-351 121.5t-132 322.5v721h270v-711q0 -117 55.5 -179t157.5 -62t158.5 62t56.5 179v711z" glyph-name="Ucircumflex.aalt" horiz-adv-x="1191"/><glyph d="M262 1386q0 57 41 97.5t100.5 40.5t100.5 -40t41 -98q0 -59 -41 -99t-100.5 -40t-100.5 40t-41 99zM647 1386q0 57 41 97.5t100.5 40.5t100.5 -40t41 -98q0 -59 -41 -99t-100.5 -40t-100.5 40t-41 99zM811 1147h268v-721q0 -201 -132 -322.5t-351 -121.5t-351 121.5 t-132 322.5v721h270v-711q0 -117 55.5 -179t157.5 -62t158.5 62t56.5 179v711z" glyph-name="Udieresis.aalt" horiz-adv-x="1191"/><glyph d="M586 1518h213l-162 -256h-156zM815 1147h279l-394 -655v-492h-272v492l-393 655h278l250 -459z" glyph-name="Yacute.aalt" horiz-adv-x="1128"/><glyph d="M231 1386q0 57 41 97.5t100.5 40.5t100.5 -40t41 -98q0 -59 -41 -99t-100.5 -40t-100.5 40t-41 99zM616 1386q0 57 41 97.5t100.5 40.5t100.5 -40t41 -98q0 -59 -41 -99t-100.5 -40t-100.5 40t-41 99zM815 1147h279l-394 -655v-492h-272v492l-393 655h278l250 -459z" glyph-name="Ydieresis.aalt" horiz-adv-x="1128"/><glyph d="M324 1262v163h544v-163h-544zM748 1147l409 -1147h-272l-72 217h-436l-72 -217h-268l407 1147h304zM432 410h330l-166 505z" glyph-name="Amacron.aalt" horiz-adv-x="1191"/><glyph d="M852 1505q0 -113 -71.5 -184.5t-182.5 -71.5t-184.5 73t-73.5 183h141q0 -53 32 -89t83 -36q49 0 83 36t34 89h139zM748 1147l409 -1147h-272l-72 217h-436l-72 -217h-268l407 1147h304zM432 410h330l-166 505z" glyph-name="Abreve.aalt" horiz-adv-x="1191"/><glyph d="M334 1245l205 240h174l202 -240h-186l-104 137l-103 -137h-188zM639 197q102 0 173 56t87 157h277q-31 -197 -177.5 -312.5t-363.5 -115.5q-252 0 -405.5 162.5t-153.5 429t153.5 429t405.5 162.5q219 0 367.5 -118.5t166.5 -309.5h-274q-16 96 -88 154.5t-172 58.5 q-129 0 -207 -102.5t-78 -272.5q0 -172 79 -275t210 -103z" glyph-name="Ccircumflex.aalt" horiz-adv-x="1243"/><glyph d="M647 1518h213l-162 -256h-155zM639 197q102 0 173 56t87 157h277q-31 -197 -177.5 -312.5t-363.5 -115.5q-252 0 -405.5 162.5t-153.5 429t153.5 429t405.5 162.5q219 0 367.5 -118.5t166.5 -309.5h-274q-16 96 -88 154.5t-172 58.5q-129 0 -207 -102.5t-78 -272.5 q0 -172 79 -275t210 -103z" glyph-name="Cacute.aalt" horiz-adv-x="1243"/><glyph d="M512 1364q0 47 33 80t82 33t81.5 -33t32.5 -80t-32.5 -80t-81.5 -33t-82 33t-33 80zM639 197q102 0 173 56t87 157h277q-31 -197 -177.5 -312.5t-363.5 -115.5q-252 0 -405.5 162.5t-153.5 429t153.5 429t405.5 162.5q219 0 367.5 -118.5t166.5 -309.5h-274 q-16 96 -88 154.5t-172 58.5q-129 0 -207 -102.5t-78 -272.5q0 -172 79 -275t210 -103z" glyph-name="Cdotaccent.aalt" horiz-adv-x="1243"/><glyph d="M238 1262v163h544v-163h-544zM903 936h-520v-256h455v-201h-455v-268h520v-211h-790v1147h790v-211z" glyph-name="Emacron.aalt" horiz-adv-x="993"/><glyph d="M766 1505q0 -113 -71.5 -184.5t-182.5 -71.5t-184.5 73t-73.5 183h141q0 -53 32 -89t83 -36q49 0 83 36t34 89h139zM903 936h-520v-256h455v-201h-455v-268h520v-211h-790v1147h790v-211z" glyph-name="Ebreve.aalt" horiz-adv-x="993"/><glyph d="M395 1364q0 47 33 80t82 33t82 -33t33 -80t-33 -80t-82 -33t-82 33t-33 80zM903 936h-520v-256h455v-201h-455v-268h520v-211h-790v1147h790v-211z" glyph-name="Edotaccent.aalt" horiz-adv-x="993"/><glyph d="M346 1245l205 240h174l203 -240h-187l-104 137l-102 -137h-189zM1192 627q6 -53 6 -115q0 -252 -142.5 -391t-398.5 -139q-268 0 -424.5 158.5t-156.5 432.5q0 272 153.5 432t413.5 160q211 0 360.5 -106.5t178.5 -278.5h-269q-25 82 -95 130t-167 48q-141 0 -223 -101 t-82 -277q0 -180 86 -286t234 -106q119 0 193.5 64.5t78.5 171.5l2 20h-262v183h514z" glyph-name="Gcircumflex.aalt" horiz-adv-x="1273"/><glyph d="M891 1505q0 -113 -73 -184.5t-181 -71.5q-111 0 -184.5 73t-73.5 183h141q0 -53 32 -89t83 -36q49 0 83 36t34 89h139zM1192 627q6 -53 6 -115q0 -252 -142.5 -391t-398.5 -139q-268 0 -424.5 158.5t-156.5 432.5q0 272 153.5 432t413.5 160q211 0 360.5 -106.5 t178.5 -278.5h-269q-25 82 -95 130t-167 48q-141 0 -223 -101t-82 -277q0 -180 86 -286t234 -106q119 0 193.5 64.5t78.5 171.5l2 20h-262v183h514z" glyph-name="Gbreve.aalt" horiz-adv-x="1273"/><glyph d="M522 1364q0 47 33 80t82 33t82 -33t33 -80t-33 -80t-82 -33t-82 33t-33 80zM1192 627q6 -53 6 -115q0 -252 -142.5 -391t-398.5 -139q-268 0 -424.5 158.5t-156.5 432.5q0 272 153.5 432t413.5 160q211 0 360.5 -106.5t178.5 -278.5h-269q-25 82 -95 130t-167 48 q-141 0 -223 -101t-82 -277q0 -180 86 -286t234 -106q119 0 193.5 64.5t78.5 171.5l2 20h-262v183h514z" glyph-name="Gdotaccent.aalt" horiz-adv-x="1273"/><glyph d="M332 1245l205 240h174l202 -240h-186l-104 137l-103 -137h-188zM862 1147h271v-1147h-271v475h-479v-475h-270v1147h270v-463h479v463z" glyph-name="Hcircumflex.aalt" horiz-adv-x="1245"/><glyph d="M-8 1262q-2 86 38 133t113 47q59 0 115.5 -40t73.5 -40q20 0 32.5 16.5t10.5 42.5h125q2 -88 -38 -135t-112 -47q-61 0 -118.5 41t-73.5 41q-45 0 -41 -59h-125zM383 0h-270v1147h270v-1147z" glyph-name="Itilde.aalt" horiz-adv-x="493"/><glyph d="M-27 1262v163h545v-163h-545zM383 0h-270v1147h270v-1147z" glyph-name="Imacron.aalt" horiz-adv-x="493"/><glyph d="M659 651l445 -651h-320l-311 465l-90 -100v-365h-270v1147h270v-467l389 467h311zM446 -102h205l-137 -312h-135z" glyph-name="Kcommaaccent.aalt" horiz-adv-x="1120"/><glyph d="M272 1518h213l-161 -256h-156zM383 211h494v-211h-764v1147h270v-936z" glyph-name="Lacute.aalt" horiz-adv-x="940"/><glyph d="M383 211h494v-211h-764v1147h270v-936zM393 -102h205l-137 -312h-135z" glyph-name="Lcommaaccent.aalt" horiz-adv-x="940"/><glyph d="M635 1518h213l-162 -256h-156zM852 1147h264v-1147h-293l-448 735v-735h-262v1147h290l449 -735v735z" glyph-name="Nacute.aalt" horiz-adv-x="1226"/><glyph d="M852 1147h264v-1147h-293l-448 735v-735h-262v1147h290l449 -735v735zM510 -102h205l-137 -312h-136z" glyph-name="Ncommaaccent.aalt" horiz-adv-x="1226"/><glyph d="M385 1262v163h545v-163h-545zM657.5 1165q262.5 0 422 -162.5t159.5 -429t-159.5 -429t-422 -162.5t-422 162.5t-159.5 429t159.5 429t422 162.5zM657.5 197q141.5 0 224.5 102t83 274t-83 274.5t-224.5 102.5t-224.5 -102.5t-83 -274.5t83 -274t224.5 -102z" glyph-name="Omacron.aalt" horiz-adv-x="1314"/><glyph d="M913 1505q0 -113 -71.5 -184.5t-182 -71.5t-184.5 73t-74 183h142q0 -53 31.5 -89t82.5 -36q49 0 83 36t34 89h139zM657.5 1165q262.5 0 422 -162.5t159.5 -429t-159.5 -429t-422 -162.5t-422 162.5t-159.5 429t159.5 429t422 162.5zM657.5 197q141.5 0 224.5 102t83 274 t-83 274.5t-224.5 102.5t-224.5 -102.5t-83 -274.5t83 -274t224.5 -102z" glyph-name="Obreve.aalt" horiz-adv-x="1314"/><glyph d="M547 1518h213l-162 -256h-156zM113 0v1147h491q178 0 289 -107.5t111 -279.5q0 -115 -53.5 -202t-147.5 -134l233 -424h-286l-191 377h-176v-377h-270zM549 586q82 0 131 48t49 128t-49 127t-131 47h-168v-350h168z" glyph-name="Racute.aalt" horiz-adv-x="1085"/><glyph d="M113 0v1147h491q178 0 289 -107.5t111 -279.5q0 -115 -53.5 -202t-147.5 -134l233 -424h-286l-191 377h-176v-377h-270zM549 586q82 0 131 48t49 128t-49 127t-131 47h-168v-350h168zM451 -102h204l-137 -312h-135z" glyph-name="Rcommaaccent.aalt" horiz-adv-x="1085"/><glyph d="M561 1518h213l-162 -256h-155zM362 836q0 -51 48.5 -84t162.5 -60l74 -16q195 -43 278 -118t83 -212q0 -166 -124 -265t-335 -99t-339 99t-140 275h264q4 -76 65.5 -123t155.5 -47q82 0 133 39t51 99q0 53 -46 84.5t-158 56.5l-70 16q-186 39 -275.5 120t-89.5 210 q0 158 120 256t312 98q188 0 309.5 -95t133.5 -251h-256q-8 66 -59.5 106t-129.5 40q-76 0 -122 -36t-46 -93z" glyph-name="Sacute.aalt" horiz-adv-x="1077"/><glyph d="M248 1245l205 240h174l202 -240h-186l-104 137l-103 -137h-188zM362 836q0 -51 48.5 -84t162.5 -60l74 -16q195 -43 278 -118t83 -212q0 -166 -124 -265t-335 -99t-339 99t-140 275h264q4 -76 65.5 -123t155.5 -47q82 0 133 39t51 99q0 53 -46 84.5t-158 56.5l-70 16 q-186 39 -275.5 120t-89.5 210q0 158 120 256t312 98q188 0 309.5 -95t133.5 -251h-256q-8 66 -59.5 106t-129.5 40q-76 0 -122 -36t-46 -93z" glyph-name="Scircumflex.aalt" horiz-adv-x="1077"/><glyph d="M342 1262q-2 86 38 133t114 47q59 0 114.5 -40t73.5 -40q20 0 32.5 16.5t10.5 42.5h125q2 -88 -38 -135t-112 -47q-61 0 -118.5 41t-73.5 41q-45 0 -41 -59h-125zM811 1147h268v-721q0 -201 -132 -322.5t-351 -121.5t-351 121.5t-132 322.5v721h270v-711 q0 -117 55.5 -179t157.5 -62t158.5 62t56.5 179v711z" glyph-name="Utilde.aalt" horiz-adv-x="1191"/><glyph d="M324 1262v163h544v-163h-544zM811 1147h268v-721q0 -201 -132 -322.5t-351 -121.5t-351 121.5t-132 322.5v721h270v-711q0 -117 55.5 -179t157.5 -62t158.5 62t56.5 179v711z" glyph-name="Umacron.aalt" horiz-adv-x="1191"/><glyph d="M852 1505q0 -113 -71.5 -184.5t-182.5 -71.5t-184.5 73t-73.5 183h141q0 -53 32 -89t83 -36q49 0 83 36t34 89h139zM811 1147h268v-721q0 -201 -132 -322.5t-351 -121.5t-351 121.5t-132 322.5v721h270v-711q0 -117 55.5 -179t157.5 -62t158.5 62t56.5 179v711z" glyph-name="Ubreve.aalt" horiz-adv-x="1191"/><glyph d="M518 1245l205 240h174l203 -240h-187l-104 137l-102 -137h-189zM1311 1147h260l-281 -1147h-268l-211 772l-213 -772h-266l-283 1147h260l183 -815l208 798h222l206 -798z" glyph-name="Wcircumflex.aalt" horiz-adv-x="1619"/><glyph d="M272 1245l205 240h174l203 -240h-186l-105 137l-102 -137h-189zM815 1147h279l-394 -655v-492h-272v492l-393 655h278l250 -459z" glyph-name="Ycircumflex.aalt" horiz-adv-x="1128"/><glyph d="M573 1518h213l-161 -256h-156zM436 211h578v-211h-926v117l561 819h-545v211h893v-117z" glyph-name="Zacute.aalt" horiz-adv-x="1101"/><glyph d="M438 1364q0 47 33 80t82 33t82 -33t33 -80t-33 -80t-82 -33t-82 33t-33 80zM436 211h578v-211h-926v117l561 819h-545v211h893v-117z" glyph-name="Zdotaccent.aalt" horiz-adv-x="1101"/><glyph d="M362 836q0 -51 48.5 -84t162.5 -60l74 -16q195 -43 278 -118t83 -212q0 -166 -124 -265t-335 -99t-339 99t-140 275h264q4 -76 65.5 -123t155.5 -47q82 0 133 39t51 99q0 53 -46 84.5t-158 56.5l-70 16q-186 39 -275.5 120t-89.5 210q0 158 120 256t312 98 q188 0 309.5 -95t133.5 -251h-256q-8 66 -59.5 106t-129.5 40q-76 0 -122 -36t-46 -93zM430 -102h205l-137 -312h-136z" glyph-name="Scommaaccent.aalt" horiz-adv-x="1077"/><glyph d="M53 1147h946v-211h-337v-936h-271v936h-338v211zM418 -102h205l-138 -312h-135z" glyph-name="uni021A.aalt" horiz-adv-x="1052"/><glyph d="M477 1386q0 57 41 97.5t100.5 40.5t100.5 -40t41 -98q0 -59 -41 -99t-100.5 -40t-100.5 40t-41 99zM862 1386q0 57 41 97.5t100.5 40.5t100.5 -40t41 -98q0 -59 -41 -99t-100.5 -40t-100.5 40t-41 99zM1311 1147h260l-281 -1147h-268l-211 772l-213 -772h-266l-283 1147 h260l183 -815l208 798h222l206 -798z" glyph-name="Wdieresis.aalt" horiz-adv-x="1619"/><glyph d="M831 1518h213l-161 -256h-156zM1311 1147h260l-281 -1147h-268l-211 772l-213 -772h-266l-283 1147h260l183 -815l208 798h222l206 -798z" glyph-name="Wacute.aalt" horiz-adv-x="1619"/><glyph d="M786 1518l105 -256h-156l-162 256h213zM1311 1147h260l-281 -1147h-268l-211 772l-213 -772h-266l-283 1147h260l183 -815l208 798h222l206 -798z" glyph-name="Wgrave.aalt" horiz-adv-x="1619"/><glyph d="M410 1245l204 240h174l203 -240h-186l-105 137l-102 -137h-188zM569 1147h271v-789q0 -178 -104.5 -277t-291 -99t-294 96t-111.5 266h262q6 -152 137 -151.5t131 167.5v787z" glyph-name="Jcircumflex.aalt" horiz-adv-x="950"/><glyph d="M618 1518h213l-161 -256h-156zM748 1147l409 -1147h-272l-72 217h-436l-72 -217h-268l407 1147h304zM432 410h330l-166 505z" glyph-name="Aacute.aalt" horiz-adv-x="1191"/><glyph d="M252 0h110l-14 -92q82 2 126 -37t44 -100q0 -70 -56 -109t-161 -39q-55 0 -96 12v107q37 -10 82 -10q92 0 92 41q0 39 -92 39q-27 0 -51 -5v76z" glyph-name="glyph671" horiz-adv-x="724"/><glyph d="M383 0h-270v1147h270v-1147z" glyph-name="Idotaccent.aalt" horiz-adv-x="493"/><glyph d="M430 1413q0 70 48 116t120 46q70 0 118 -47t48 -115q0 -70 -48 -117t-118 -47q-72 0 -120 47t-48 117zM537 1413q0 -27 18 -44t43 -17t41 18.5t16 43t-16 42t-41 17.5t-43 -17.5t-18 -42.5zM748 1147l409 -1147h-272l-72 217h-436l-72 -217h-268l407 1147h304zM432 410 h330l-166 505z" glyph-name="Aring.aalt" horiz-adv-x="1191"/><glyph d="M639 197q102 0 173 56t87 157h277q-29 -186 -164 -301t-338 -125l-12 -76q82 2 125.5 -37t43.5 -100q0 -70 -56 -109t-161 -39q-57 0 -96 12v107q37 -10 82 -10q92 0 92 41q0 39 -92 39q-27 0 -51 -5v76l14 103q-221 23 -354 182.5t-133 404.5q0 266 153.5 429t405.5 163 q219 0 367.5 -118.5t166.5 -309.5h-274q-16 96 -88 154.5t-172 58.5q-129 0 -207 -102.5t-78 -272.5q0 -172 79 -275t210 -103z" glyph-name="Ccedilla.aalt" horiz-adv-x="1243"/><glyph d="M748 1147l409 -1147h-6q-41 -23 -66.5 -63.5t-25.5 -86.5q0 -100 135 -88v-133q-31 -6 -70 -6q-94 0 -152.5 45t-58.5 123q0 63 38 120.5t98 88.5h-164l-72 217h-436l-72 -217h-268l407 1147h304zM432 410h330l-166 505z" glyph-name="Aogonek.aalt" horiz-adv-x="1191"/><glyph d="M336 1501h186l103 -139l104 139h186l-202 -239h-174zM639 197q102 0 173 56t87 157h277q-31 -197 -177.5 -312.5t-363.5 -115.5q-252 0 -405.5 162.5t-153.5 429t153.5 429t405.5 162.5q219 0 367.5 -118.5t166.5 -309.5h-274q-16 96 -88 154.5t-172 58.5 q-129 0 -207 -102.5t-78 -272.5q0 -172 79 -275t210 -103z" glyph-name="Ccaron.aalt" horiz-adv-x="1243"/><glyph d="M250 1501h186l103 -139l104 139h186l-202 -239h-174zM543 1147q291 0 440.5 -146.5t149.5 -427.5q0 -270 -156 -421.5t-434 -151.5h-430v1147h430zM516 211q164 0 252 93t88 271q0 184 -84 272.5t-256 88.5h-133v-725h133z" glyph-name="Dcaron.aalt" horiz-adv-x="1208"/><glyph d="M903 936h-520v-256h455v-201h-455v-268h520v-211h-2q-41 -23 -66.5 -63.5t-25.5 -86.5q0 -100 135 -88v-133q-31 -6 -70 -6q-94 0 -152 45t-58 123q0 63 37.5 120.5t97.5 88.5h-686v1147h790v-211z" glyph-name="Eogonek.aalt" horiz-adv-x="993"/><glyph d="M219 1501h187l102 -139l104 139h187l-203 -239h-174zM903 936h-520v-256h455v-201h-455v-268h520v-211h-790v1147h790v-211z" glyph-name="Ecaron.aalt" horiz-adv-x="993"/><glyph d="M1192 627q6 -53 6 -115q0 -252 -142.5 -391t-398.5 -139q-268 0 -424.5 158.5t-156.5 432.5q0 272 153.5 432t413.5 160q211 0 360.5 -106.5t178.5 -278.5h-269q-25 82 -95 130t-167 48q-141 0 -223 -101t-82 -277q0 -180 86 -286t234 -106q119 0 193.5 64.5t78.5 171.5 l2 20h-262v183h514zM528 -102h205l-137 -312h-135z" glyph-name="Gcommaaccent.aalt" horiz-adv-x="1273"/><glyph d="M383 0h-2q-41 -23 -66.5 -63.5t-25.5 -86.5q0 -100 135 -88v-133q-31 -6 -70 -6q-94 0 -152.5 45t-58.5 123q0 63 38 120.5t98 88.5h-166v1147h270v-1147z" glyph-name="Iogonek.aalt" horiz-adv-x="493"/><glyph d="M324 1501h186l102 -139l105 139h186l-203 -239h-174zM852 1147h264v-1147h-293l-448 735v-735h-262v1147h290l449 -735v735z" glyph-name="Ncaron.aalt" horiz-adv-x="1226"/><glyph d="M233 1501h187l102 -139l105 139h186l-203 -239h-174zM113 0v1147h491q178 0 289 -107.5t111 -279.5q0 -115 -53.5 -202t-147.5 -134l233 -424h-286l-191 377h-176v-377h-270zM549 586q82 0 131 48t49 128t-49 127t-131 47h-168v-350h168z" glyph-name="Rcaron.aalt" horiz-adv-x="1085"/><glyph d="M362 836q0 -51 48.5 -84t162.5 -60l74 -16q195 -43 278 -118t83 -212q0 -158 -113 -256t-309 -106l-13 -76q82 2 126 -37t44 -100q0 -70 -56 -109t-161 -39q-55 0 -96 12v107q37 -10 82 -10q92 0 92 41q0 39 -92 39q-27 0 -51 -5v76l14 103q-178 16 -286.5 113.5 t-118.5 256.5h264q4 -76 65.5 -123t155.5 -47q82 0 133 39t51 99q0 53 -46 84.5t-158 56.5l-70 16q-186 39 -275.5 120t-89.5 210q0 158 120 256t312 98q188 0 309.5 -95t133.5 -251h-256q-8 66 -59.5 106t-129.5 40q-76 0 -122 -36t-46 -93z" glyph-name="scedilla.sc" horiz-adv-x="1077"/><glyph d="M248 1501h186l103 -139l104 139h186l-202 -239h-174zM362 836q0 -51 48.5 -84t162.5 -60l74 -16q195 -43 278 -118t83 -212q0 -166 -124 -265t-335 -99t-339 99t-140 275h264q4 -76 65.5 -123t155.5 -47q82 0 133 39t51 99q0 53 -46 84.5t-158 56.5l-70 16 q-186 39 -275.5 120t-89.5 210q0 158 120 256t312 98q188 0 309.5 -95t133.5 -251h-256q-8 66 -59.5 106t-129.5 40q-76 0 -122 -36t-46 -93z" glyph-name="Scaron.aalt" horiz-adv-x="1077"/><glyph d="M53 1147h946v-211h-337v-936h-84l-15 -92q82 2 126 -37t44 -100q0 -70 -56 -109t-161 -39q-57 0 -96 12v107q37 -10 82 -10q92 0 92 41q0 39 -92 39q-27 0 -51 -5v76l16 117h-76v936h-338v211z" glyph-name="tcommaaccent.sc" horiz-adv-x="1052"/><glyph d="M238 1501h186l102 -139l105 139h186l-203 -239h-174zM53 1147h946v-211h-337v-936h-271v936h-338v211z" glyph-name="Tcaron.aalt" horiz-adv-x="1052"/><glyph d="M430 1413q0 70 48 116t120 46q70 0 118 -47t48 -115q0 -70 -48 -117t-118 -47q-72 0 -120 47t-48 117zM537 1413q0 -27 18 -44t43 -17t41 18.5t16 43t-16 42t-41 17.5t-43 -17.5t-18 -42.5zM811 1147h268v-721q0 -201 -132 -322.5t-351 -121.5t-351 121.5t-132 322.5v721 h270v-711q0 -117 55.5 -179t157.5 -62t158.5 62t56.5 179v711z" glyph-name="Uring.aalt" horiz-adv-x="1191"/><glyph d="M745 1518h207l-129 -256h-174zM428 1518h201l-94 -256h-164zM811 1147h268v-721q0 -201 -132 -322.5t-351 -121.5t-351 121.5t-132 322.5v721h270v-711q0 -117 55.5 -179t157.5 -62t158.5 62t56.5 179v711z" glyph-name="Uhungarumlaut.aalt" horiz-adv-x="1191"/><glyph d="M811 1147h268v-721q0 -147 -72.5 -255t-203.5 -155q-70 -53 -70 -135q0 -98 135 -88v-133q-31 -6 -69 -6q-94 0 -152.5 45t-58.5 123q0 94 74 164q-45 -4 -66 -4q-219 0 -351 121.5t-132 322.5v721h270v-711q0 -117 55.5 -179t157.5 -62t158.5 62t56.5 179v711z" glyph-name="Uogonek.aalt" horiz-adv-x="1191"/><glyph d="M260 1501h186l103 -139l104 139h187l-203 -239h-174zM436 211h578v-211h-926v117l561 819h-545v211h893v-117z" glyph-name="Zcaron.aalt" horiz-adv-x="1101"/><glyph d="M721 217h-270l-336 438l336 439h270l-344 -439z" glyph-name="guilsinglleft.aalt" horiz-adv-x="835"/><glyph d="M385 217h-270l344 438l-344 439h270l336 -439z" glyph-name="guilsinglright.aalt" horiz-adv-x="835"/><glyph d="M1178 475h-1057v230h1057v-230z" glyph-name="minus.case" horiz-adv-x="1298"/><glyph d="M164 653q2 156 87 244t232 88q100 0 176 -44t131.5 -88t106.5 -44q49 0 80 32.5t33 86.5h213q0 -156 -85 -243t-235 -87q-80 0 -146.5 27.5t-102.5 60.5t-81 60.5t-88 27.5q-49 0 -77.5 -31.5t-30.5 -89.5h-213zM164 172q2 156 87 244t232 88q100 0 176 -44t131.5 -88 t106.5 -44q49 0 80 31.5t33 86.5h213q0 -156 -86 -243.5t-234 -87.5q-80 0 -146.5 27.5t-102.5 60.5t-81 60.5t-88 27.5q-49 0 -77.5 -32t-30.5 -87h-213z" glyph-name="approxequal.case" horiz-adv-x="1386"/><glyph d="M143 246v221h324l98 250h-422v221h510l76 188h248l-74 -188h232v-221h-320l-98 -250h418v-221h-506l-76 -189h-248l74 189h-236z" glyph-name="notequal.case" horiz-adv-x="1280"/><glyph d="M1151 362l-1016 302v210l1016 306v-250l-672 -160l672 -158v-250zM1151 61h-1016v211h1016v-211z" glyph-name="lessequal.case" horiz-adv-x="1284"/><glyph d="M135 362v250l670 158l-670 160v250l1016 -306v-210zM135 61v211h1016v-211h-1016z" glyph-name="greaterequal.case" horiz-adv-x="1284"/><glyph d="M657 1165q174 0 314 -78v60h790v-211h-520v-256h455v-201h-455v-268h520v-211h-790v59q-139 -78 -314 -77q-262 0 -421.5 162.5t-159.5 429t159.5 429t421.5 162.5zM657.5 197q141.5 0 224.5 102t83 274t-83 274.5t-224.5 102.5t-224.5 -102.5t-83 -274.5t83 -274 t224.5 -102z" glyph-name="OE.aalt" horiz-adv-x="1851"/><glyph d="M281 1503h241l135 -315h-178zM1118 0h-241l-21 166q-113 -188 -346 -189q-201 0 -327 152t-126 397q0 244 126 396.5t325 152.5q111 0 201 -48t143 -134l20 160h246v-1053zM860 526.5q0 153.5 -72.5 245.5t-193.5 92t-193.5 -92t-72.5 -245.5t72.5 -246t193.5 -92.5 t193.5 92.5t72.5 246z" glyph-name="glyph700" horiz-adv-x="1224"/><glyph d="M612 1503h242l-199 -315h-178zM1118 0h-241l-21 166q-113 -188 -346 -189q-201 0 -327 152t-126 397q0 244 126 396.5t325 152.5q111 0 201 -48t143 -134l20 160h246v-1053zM860 526.5q0 153.5 -72.5 245.5t-193.5 92t-193.5 -92t-72.5 -245.5t72.5 -246t193.5 -92.5 t193.5 92.5t72.5 246z" glyph-name="glyph701" horiz-adv-x="1224"/><glyph d="M434 1167h-215l254 295h197l254 -295h-215l-138 176zM1118 0h-241l-21 166q-113 -188 -346 -189q-201 0 -327 152t-126 397q0 244 126 396.5t325 152.5q111 0 201 -48t143 -134l20 160h246v-1053zM860 526.5q0 153.5 -72.5 245.5t-193.5 92t-193.5 -92t-72.5 -245.5 t72.5 -246t193.5 -92.5t193.5 92.5t72.5 246z" glyph-name="glyph702" horiz-adv-x="1224"/><glyph d="M256 1188q-2 102 47 159.5t139 57.5q76 0 145.5 -52.5t94.5 -52.5t42 21.5t15 56.5h146q0 -104 -47 -160.5t-138 -56.5q-59 0 -106 25.5t-80 52.5t-57 27q-27 0 -42.5 -20.5t-13.5 -57.5h-145zM1118 0h-241l-21 166q-113 -188 -346 -189q-201 0 -327 152t-126 397 q0 244 126 396.5t325 152.5q111 0 201 -48t143 -134l20 160h246v-1053zM860 526.5q0 153.5 -72.5 245.5t-193.5 92t-193.5 -92t-72.5 -245.5t72.5 -246t193.5 -92.5t193.5 92.5t72.5 246z" glyph-name="glyph703" horiz-adv-x="1224"/><glyph d="M217 1311q0 63 43 105t109 42q63 0 106 -42t43 -105q0 -61 -43 -103.5t-106.5 -42.5t-107.5 42.5t-44 103.5zM649 1311q0 63 43 105t107 42q66 0 108.5 -42t42.5 -105q0 -61 -44 -103.5t-107.5 -42.5t-106.5 42.5t-43 103.5zM1118 0h-241l-21 166q-113 -188 -346 -189 q-201 0 -327 152t-126 397q0 244 126 396.5t325 152.5q111 0 201 -48t143 -134l20 160h246v-1053zM860 526.5q0 153.5 -72.5 245.5t-193.5 92t-193.5 -92t-72.5 -245.5t72.5 -246t193.5 -92.5t193.5 92.5t72.5 246z" glyph-name="glyph704" horiz-adv-x="1224"/><glyph d="M375 1350q0 82 56 136t140 54t140.5 -54t56.5 -136t-56.5 -137.5t-140.5 -55.5t-140 55.5t-56 137.5zM498 1349.5q0 -32.5 21.5 -54t52 -21.5t52 21.5t21.5 54.5q0 31 -21.5 52t-52 21t-52 -20.5t-21.5 -53zM1118 0h-241l-21 166q-113 -188 -346 -189q-201 0 -327 152 t-126 397q0 244 126 396.5t325 152.5q111 0 201 -48t143 -134l20 160h246v-1053zM860 526.5q0 153.5 -72.5 245.5t-193.5 92t-193.5 -92t-72.5 -245.5t72.5 -246t193.5 -92.5t193.5 92.5t72.5 246z" glyph-name="glyph705" horiz-adv-x="1224"/><glyph d="M236 1188v188h671v-188h-671zM1118 0h-241l-21 166q-113 -188 -346 -189q-201 0 -327 152t-126 397q0 244 126 396.5t325 152.5q111 0 201 -48t143 -134l20 160h246v-1053zM860 526.5q0 153.5 -72.5 245.5t-193.5 92t-193.5 -92t-72.5 -245.5t72.5 -246t193.5 -92.5 t193.5 92.5t72.5 246z" glyph-name="glyph706" horiz-adv-x="1224"/><glyph d="M887 1489q0 -137 -89 -226t-225 -89q-137 0 -227 89t-90 226h160q0 -70 45 -117t112 -47q66 0 110 47t44 117h160zM1118 0h-241l-21 166q-113 -188 -346 -189q-201 0 -327 152t-126 397q0 244 126 396.5t325 152.5q111 0 201 -48t143 -134l20 160h246v-1053zM860 526.5 q0 153.5 -72.5 245.5t-193.5 92t-193.5 -92t-72.5 -245.5t72.5 -246t193.5 -92.5t193.5 92.5t72.5 246z" glyph-name="glyph707" horiz-adv-x="1224"/><glyph d="M1118 0h-10q-55 -31 -92 -86t-37 -115q0 -68 51 -93t127 -17v-152q-35 -8 -86 -8q-115 0 -186.5 55.5t-71.5 153.5q0 84 48 153.5t124 108.5h-108l-21 166q-113 -188 -346 -189q-201 0 -327 152t-126 397q0 244 126 396.5t325 152.5q111 0 201 -48t143 -134l20 160h246 v-1053zM860 526.5q0 153.5 -72.5 245.5t-193.5 92t-193.5 -92t-72.5 -245.5t72.5 -246t193.5 -92.5t193.5 92.5t72.5 246z" glyph-name="glyph708" horiz-adv-x="1224"/><glyph d="M555 1503h242l-199 -315h-178zM760 1053h282l-430 -1176q-55 -152 -149 -205t-295 -53v215q84 0 130 38t85 142l25 66l-390 973h283l238 -715z" glyph-name="glyph709" horiz-adv-x="1060"/><glyph d="M160 1311q0 63 43 105t108 42q63 0 106.5 -42t43.5 -105q0 -61 -43 -103.5t-106.5 -42.5t-107.5 42.5t-44 103.5zM592 1311q0 63 43 105t106 42q66 0 109 -42t43 -105q0 -61 -44 -103.5t-107.5 -42.5t-106.5 42.5t-43 103.5zM760 1053h282l-430 -1176q-55 -152 -149 -205 t-295 -53v215q84 0 130 38t85 142l25 66l-390 973h283l238 -715z" glyph-name="glyph710" horiz-adv-x="1060"/><glyph d="M377 1167h-215l254 295h196l254 -295h-215l-137 176zM760 1053h282l-430 -1176q-55 -152 -149 -205t-295 -53v215q84 0 130 38t85 142l25 66l-390 973h283l238 -715z" glyph-name="glyph711" horiz-adv-x="1060"/><glyph d="M809 1518h207l-129 -256h-174zM492 1518h200l-94 -256h-164zM657.5 1165q262.5 0 422 -162.5t159.5 -429t-159.5 -429t-422 -162.5t-422 162.5t-159.5 429t159.5 429t422 162.5zM657.5 197q141.5 0 224.5 102t83 274t-83 274.5t-224.5 102.5t-224.5 -102.5t-83 -274.5 t83 -274t224.5 -102z" glyph-name="Ohungarumlaut.aalt" horiz-adv-x="1314"/></font>
</defs>
</svg>
